<?xml version="1.0" encoding="utf-8"?>
<!-- Generator: Adobe Illustrator 27.5.0, SVG Export Plug-In . SVG Version: 6.00 Build 0)  -->
<svg version="1.1" xmlns="http://www.w3.org/2000/svg" xmlns:xlink="http://www.w3.org/1999/xlink" x="0px" y="0px"
	 viewBox="0 0 500 500" style="enable-background:new 0 0 500 500;" xml:space="preserve">
<g id="Background_Complete">
	<g>
		<rect y="382.398" style="fill:#EBEBEB;" width="500" height="0.25"/>
		<rect x="416.779" y="398.494" style="fill:#EBEBEB;" width="33.122" height="0.25"/>
		<rect x="322.527" y="401.208" style="fill:#EBEBEB;" width="8.693" height="0.25"/>
		<rect x="396.586" y="389.208" style="fill:#EBEBEB;" width="19.192" height="0.25"/>
		<rect x="52.459" y="390.888" style="fill:#EBEBEB;" width="43.193" height="0.25"/>
		<rect x="104.556" y="390.888" style="fill:#EBEBEB;" width="6.333" height="0.25"/>
		<rect x="131.471" y="395.111" style="fill:#EBEBEB;" width="93.676" height="0.25"/>
		<path style="fill:#EBEBEB;" d="M237.014,337.8H43.915c-3.147,0-5.708-2.561-5.708-5.708V60.66c0-3.147,2.561-5.708,5.708-5.708
			h193.099c3.146,0,5.707,2.561,5.707,5.708v271.432C242.721,335.239,240.16,337.8,237.014,337.8z M43.915,55.203
			c-3.01,0-5.458,2.448-5.458,5.458v271.432c0,3.01,2.448,5.458,5.458,5.458h193.099c3.009,0,5.457-2.448,5.457-5.458V60.66
			c0-3.009-2.448-5.458-5.457-5.458H43.915z"/>
		<path style="fill:#EBEBEB;" d="M453.31,337.8H260.212c-3.147,0-5.707-2.561-5.707-5.708V60.66c0-3.147,2.561-5.708,5.707-5.708
			H453.31c3.148,0,5.708,2.561,5.708,5.708v271.432C459.019,335.239,456.458,337.8,453.31,337.8z M260.212,55.203
			c-3.009,0-5.457,2.448-5.457,5.458v271.432c0,3.01,2.448,5.458,5.457,5.458H453.31c3.01,0,5.458-2.448,5.458-5.458V60.66
			c0-3.009-2.448-5.458-5.458-5.458H260.212z"/>
	</g>
	<g>
		<path style="fill:#F5F5F5;" d="M197.958,112.74c0-2.493,2.021-4.514,4.514-4.514c0.451,0,0.885,0.068,1.296,0.191
			c-0.066-0.453-0.101-0.915-0.101-1.386c0-5.279,4.28-9.559,9.559-9.559c0.602,0,1.19,0.058,1.761,0.165
			c1.469-2.404,4.11-4.015,7.134-4.015c4.577,0,8.29,3.678,8.357,8.238c0.047-0.001,0.092-0.007,0.139-0.007
			c4.253,0,7.7,3.447,7.7,7.7c0,4.253-3.447,7.7-7.7,7.7h-28.278l0.006-0.007C199.911,117.179,197.958,115.19,197.958,112.74z"/>
		<path style="fill:#F5F5F5;" d="M261.593,135.967c0-1.246,1.01-2.257,2.257-2.257c0.225,0,0.443,0.034,0.648,0.096
			c-0.033-0.226-0.051-0.458-0.051-0.693c0-2.64,2.14-4.779,4.779-4.779c0.301,0,0.595,0.029,0.88,0.082
			c0.735-1.202,2.055-2.007,3.567-2.007c2.288,0,4.145,1.839,4.179,4.119c0.023,0,0.046-0.003,0.07-0.003
			c2.126,0,3.85,1.724,3.85,3.85c0,2.126-1.724,3.85-3.85,3.85h-14.139l0.003-0.003
			C262.569,138.187,261.593,137.193,261.593,135.967z"/>
		<path style="fill:#F5F5F5;" d="M389.029,211.865c0-1.246,1.01-2.257,2.257-2.257c0.225,0,0.443,0.034,0.648,0.096
			c-0.033-0.226-0.051-0.458-0.051-0.693c0-2.639,2.14-4.779,4.779-4.779c0.301,0,0.595,0.029,0.88,0.082
			c0.735-1.202,2.055-2.007,3.567-2.007c2.288,0,4.145,1.839,4.179,4.119c0.023,0,0.046-0.004,0.07-0.004
			c2.126,0,3.85,1.724,3.85,3.85s-1.724,3.85-3.85,3.85H391.22l0.003-0.003C390.006,214.085,389.029,213.09,389.029,211.865z"/>
		<path style="fill:#F5F5F5;" d="M84.209,212.778c0-1.247,1.01-2.257,2.257-2.257c0.225,0,0.443,0.034,0.648,0.096
			c-0.033-0.226-0.051-0.458-0.051-0.693c0-2.64,2.14-4.779,4.779-4.779c0.301,0,0.595,0.029,0.88,0.082
			c0.735-1.202,2.055-2.007,3.567-2.007c2.289,0,4.145,1.839,4.179,4.119c0.023-0.001,0.046-0.004,0.07-0.004
			c2.126,0,3.85,1.724,3.85,3.85s-1.724,3.85-3.85,3.85H86.399l0.003-0.003C85.185,214.998,84.209,214.003,84.209,212.778z"/>
		<path style="fill:#F5F5F5;" d="M321.828,112.952c0-1.634,1.325-2.959,2.96-2.959c0.296,0,0.581,0.045,0.85,0.125
			c-0.043-0.297-0.066-0.6-0.066-0.909c0-3.461,2.806-6.267,6.267-6.267c0.395,0,0.78,0.038,1.155,0.108
			c0.963-1.576,2.695-2.632,4.677-2.632c3.001,0,5.435,2.411,5.48,5.401c0.031-0.001,0.06-0.005,0.091-0.005
			c2.788,0,5.049,2.26,5.049,5.049c0,2.788-2.26,5.049-5.049,5.049H324.7l0.004-0.004
			C323.108,115.863,321.828,114.558,321.828,112.952z"/>
		<g>
			<path style="fill:#F5F5F5;" d="M100.647,183.947c-0.142-0.515-0.227-1.105-0.265-1.755c-0.216-3.639-3.69-3.063-6.646-3.556
				c-2.309-0.386,3.805-6.219-0.851-8.101c-0.865-0.35-1.805-0.745-2.247-1.566c-0.585-1.086,0.007-2.516,1.014-3.228
				c1.007-0.712,2.301-0.863,3.535-0.886c0.76-0.923,0.142-2.313-0.593-3.256c-0.735-0.943-1.635-2.016-1.356-3.178
				c0.42-1.755,2.874-1.818,4.646-1.477c0.655-1.061,0.642-2.387,0.96-3.592c0.318-1.205,1.276-2.471,2.514-2.32
				c1.166,0.142,1.878,1.458,3.021,1.728c1.327,0.313,2.477-0.861,3.518-1.742c1.041-0.881,2.863-1.43,3.58-0.27
				c0.43,0.695,0.172,1.662,0.619,2.346c0.773,1.185,2.608,0.45,3.746-0.391c1.139-0.84,2.953-1.602,3.754-0.435
				c0.245,0.357,0.299,0.808,0.441,1.217c0.539,1.555,2.219,2.329,3.528,3.326c1.309,0.997,2.346,2.98,1.238,4.197
				c-0.547,0.6-1.507,0.843-1.779,1.608c-0.339,0.956,0.638,1.813,1.41,2.47c1.287,1.094,1.52,4.368-0.181,5.264
				c-0.714,0.376-1.761,0.491-1.936,1.279c-0.157,0.704,0.558,1.252,1.033,1.795c1.304,1.492,0.752,4.177-1.035,5.033
				c-0.408,0.196-0.91,0.356-1.061,0.783c-0.108,0.306,0.01,0.638,0.097,0.951c0.166,0.591,0.222,1.212,0.164,1.823
				c-0.02,0.209-0.063,0.435-0.222,0.572c-0.144,0.124-0.349,0.143-0.539,0.152c-2.456,0.11-3.641-0.76-5.14,1.377
				c-0.144,0.205-0.295,0.417-0.512,0.543c-0.203,0.118-0.444,0.15-0.678,0.169c-1.688,0.139-2.792-0.915-4.335-1.111
				c-2.141-0.273-2.595,0.831-4.481,1.718C102.642,186.827,101.204,185.968,100.647,183.947z"/>
			<path style="fill:#F5F5F5;" d="M128.935,180.89c-0.142-0.515-0.227-1.105-0.265-1.755c-0.216-3.639-3.69-3.063-6.646-3.557
				c-2.309-0.386,3.805-6.219-0.851-8.101c-0.865-0.35-1.805-0.745-2.247-1.566c-0.585-1.086,0.007-2.516,1.014-3.228
				c1.007-0.712,2.301-0.863,3.535-0.886c0.759-0.923,0.142-2.313-0.593-3.256c-0.735-0.943-1.635-2.016-1.356-3.178
				c0.421-1.755,2.874-1.818,4.646-1.477c0.655-1.061,0.642-2.387,0.96-3.592c0.318-1.205,1.276-2.47,2.514-2.32
				c1.166,0.142,1.878,1.458,3.021,1.728c1.328,0.313,2.477-0.861,3.518-1.742c1.041-0.881,2.863-1.43,3.58-0.27
				c0.429,0.695,0.172,1.663,0.618,2.346c0.774,1.185,2.608,0.449,3.747-0.391c1.139-0.84,2.953-1.602,3.754-0.435
				c0.245,0.357,0.299,0.808,0.441,1.217c0.539,1.555,2.219,2.329,3.528,3.326c1.309,0.997,2.346,2.98,1.238,4.197
				c-0.547,0.6-1.508,0.843-1.779,1.608c-0.339,0.956,0.638,1.812,1.41,2.47c1.286,1.094,1.52,4.368-0.181,5.264
				c-0.714,0.376-1.761,0.491-1.936,1.279c-0.157,0.704,0.558,1.252,1.033,1.795c1.304,1.492,0.752,4.177-1.035,5.033
				c-0.408,0.196-0.91,0.356-1.061,0.783c-0.108,0.306,0.01,0.638,0.098,0.951c0.166,0.591,0.222,1.212,0.164,1.823
				c-0.02,0.209-0.063,0.435-0.222,0.572c-0.145,0.124-0.349,0.143-0.539,0.152c-2.456,0.11-3.641-0.76-5.14,1.378
				c-0.144,0.205-0.295,0.417-0.512,0.543c-0.203,0.118-0.444,0.15-0.678,0.169c-1.688,0.139-2.792-0.915-4.335-1.111
				c-2.141-0.273-2.595,0.831-4.481,1.718C130.93,183.771,129.492,182.911,128.935,180.89z"/>
			<path style="fill:#F5F5F5;" d="M131.661,162.875c-0.142-0.515-0.227-1.105-0.265-1.755c-0.216-3.639-3.69-3.063-6.646-3.556
				c-2.309-0.386,3.805-6.219-0.851-8.101c-0.865-0.35-1.804-0.745-2.246-1.566c-0.585-1.086,0.007-2.516,1.014-3.228
				c1.007-0.712,2.301-0.863,3.535-0.886c0.759-0.923,0.142-2.313-0.593-3.255c-0.735-0.943-1.635-2.016-1.356-3.178
				c0.421-1.756,2.874-1.818,4.647-1.477c0.655-1.061,0.642-2.387,0.96-3.592c0.318-1.205,1.276-2.471,2.514-2.32
				c1.166,0.142,1.878,1.458,3.021,1.728c1.327,0.313,2.477-0.861,3.518-1.742c1.042-0.881,2.863-1.43,3.58-0.27
				c0.429,0.695,0.172,1.663,0.619,2.346c0.773,1.185,2.608,0.45,3.746-0.391c1.139-0.84,2.953-1.602,3.754-0.435
				c0.245,0.357,0.299,0.808,0.441,1.217c0.539,1.555,2.219,2.329,3.528,3.326c1.309,0.997,2.346,2.98,1.238,4.197
				c-0.546,0.6-1.508,0.844-1.779,1.608c-0.339,0.956,0.637,1.813,1.41,2.47c1.286,1.094,1.52,4.368-0.181,5.264
				c-0.714,0.376-1.761,0.491-1.936,1.279c-0.157,0.704,0.558,1.252,1.033,1.795c1.304,1.491,0.752,4.177-1.035,5.033
				c-0.408,0.196-0.91,0.356-1.062,0.783c-0.108,0.306,0.01,0.638,0.098,0.951c0.166,0.591,0.222,1.212,0.164,1.823
				c-0.02,0.209-0.063,0.435-0.222,0.572c-0.144,0.124-0.349,0.143-0.539,0.152c-2.456,0.109-3.641-0.76-5.14,1.377
				c-0.144,0.205-0.295,0.417-0.512,0.543c-0.203,0.118-0.444,0.15-0.678,0.169c-1.688,0.139-2.792-0.915-4.335-1.111
				c-2.141-0.273-2.595,0.831-4.481,1.718C133.656,165.756,132.218,164.896,131.661,162.875z"/>
			<path style="fill:#F5F5F5;" d="M150.295,171.848c-0.142-0.515-0.227-1.105-0.265-1.755c-0.216-3.639-3.691-3.063-6.646-3.556
				c-2.309-0.386,3.805-6.219-0.851-8.101c-0.865-0.349-1.805-0.745-2.247-1.566c-0.585-1.086,0.007-2.516,1.014-3.228
				c1.007-0.712,2.301-0.863,3.535-0.886c0.759-0.923,0.142-2.313-0.593-3.256c-0.735-0.943-1.635-2.016-1.356-3.178
				c0.42-1.756,2.874-1.818,4.646-1.477c0.655-1.061,0.642-2.387,0.96-3.592c0.318-1.205,1.276-2.471,2.514-2.32
				c1.166,0.142,1.878,1.458,3.021,1.728c1.327,0.313,2.477-0.861,3.518-1.742c1.041-0.881,2.863-1.43,3.58-0.27
				c0.429,0.695,0.172,1.663,0.618,2.347c0.773,1.185,2.608,0.45,3.747-0.391c1.139-0.84,2.953-1.602,3.754-0.435
				c0.245,0.357,0.299,0.808,0.441,1.217c0.539,1.555,2.219,2.329,3.528,3.326c1.309,0.997,2.346,2.98,1.238,4.197
				c-0.546,0.6-1.507,0.843-1.779,1.608c-0.339,0.956,0.637,1.813,1.41,2.47c1.287,1.094,1.52,4.368-0.181,5.264
				c-0.714,0.376-1.761,0.491-1.936,1.279c-0.157,0.704,0.558,1.252,1.033,1.795c1.304,1.492,0.752,4.177-1.035,5.033
				c-0.408,0.196-0.91,0.356-1.061,0.783c-0.108,0.305,0.01,0.638,0.098,0.951c0.166,0.591,0.222,1.212,0.164,1.823
				c-0.02,0.209-0.063,0.435-0.222,0.572c-0.144,0.124-0.349,0.143-0.539,0.152c-2.456,0.109-3.641-0.76-5.14,1.377
				c-0.144,0.205-0.295,0.417-0.512,0.543c-0.203,0.118-0.444,0.15-0.678,0.169c-1.688,0.139-2.792-0.915-4.335-1.111
				c-2.141-0.273-2.595,0.831-4.48,1.718C152.29,174.729,150.852,173.869,150.295,171.848z"/>
			<path style="fill:#F5F5F5;" d="M169.128,167.704c-0.142-0.515-0.227-1.105-0.265-1.755c-0.216-3.639-3.691-3.063-6.646-3.556
				c-2.309-0.386,3.805-6.219-0.851-8.101c-0.865-0.35-1.805-0.745-2.247-1.566c-0.585-1.086,0.007-2.516,1.014-3.228
				c1.007-0.712,2.301-0.863,3.535-0.886c0.76-0.923,0.142-2.313-0.593-3.256c-0.735-0.943-1.635-2.016-1.356-3.178
				c0.42-1.755,2.874-1.818,4.646-1.477c0.655-1.061,0.642-2.387,0.96-3.592c0.318-1.205,1.276-2.47,2.514-2.32
				c1.166,0.142,1.878,1.458,3.021,1.728c1.327,0.313,2.477-0.861,3.518-1.742c1.041-0.881,2.863-1.43,3.58-0.27
				c0.43,0.694,0.172,1.662,0.619,2.346c0.773,1.185,2.608,0.45,3.747-0.391c1.139-0.84,2.953-1.602,3.754-0.435
				c0.245,0.357,0.299,0.808,0.441,1.217c0.539,1.555,2.219,2.329,3.528,3.326c1.309,0.997,2.346,2.98,1.238,4.197
				c-0.546,0.6-1.507,0.843-1.779,1.608c-0.339,0.956,0.638,1.812,1.41,2.47c1.286,1.094,1.52,4.368-0.181,5.264
				c-0.714,0.376-1.761,0.491-1.936,1.279c-0.157,0.704,0.558,1.252,1.033,1.795c1.304,1.492,0.752,4.177-1.035,5.033
				c-0.408,0.196-0.91,0.356-1.061,0.783c-0.108,0.305,0.01,0.638,0.098,0.951c0.166,0.591,0.222,1.212,0.164,1.823
				c-0.02,0.209-0.063,0.435-0.222,0.572c-0.144,0.124-0.349,0.143-0.539,0.152c-2.456,0.11-3.641-0.76-5.14,1.377
				c-0.144,0.205-0.295,0.417-0.512,0.543c-0.203,0.118-0.444,0.149-0.678,0.169c-1.688,0.139-2.792-0.915-4.335-1.111
				c-2.141-0.273-2.594,0.831-4.48,1.718C171.123,170.585,169.685,169.725,169.128,167.704z"/>
			<path style="fill:#F5F5F5;" d="M169.374,187.849c-0.112-0.405-0.178-0.87-0.209-1.382c-0.17-2.866-2.906-2.411-5.233-2.8
				c-1.818-0.304,2.996-4.897-0.67-6.379c-0.681-0.275-1.421-0.586-1.769-1.233c-0.46-0.855,0.005-1.981,0.798-2.542
				c0.793-0.561,1.812-0.68,2.783-0.698c0.598-0.727,0.112-1.821-0.467-2.563c-0.579-0.743-1.287-1.587-1.068-2.503
				c0.331-1.382,2.263-1.432,3.659-1.163c0.516-0.835,0.506-1.88,0.756-2.829c0.25-0.949,1.005-1.945,1.979-1.827
				c0.918,0.112,1.479,1.148,2.379,1.36c1.045,0.246,1.95-0.678,2.77-1.372c0.82-0.693,2.254-1.126,2.819-0.213
				c0.338,0.547,0.136,1.309,0.487,1.848c0.609,0.933,2.053,0.354,2.95-0.308c0.897-0.662,2.325-1.261,2.956-0.342
				c0.193,0.281,0.236,0.636,0.347,0.958c0.424,1.224,1.748,1.834,2.778,2.619c1.031,0.785,1.847,2.346,0.975,3.304
				c-0.43,0.473-1.187,0.664-1.401,1.267c-0.267,0.753,0.502,1.427,1.11,1.945c1.013,0.862,1.197,3.44-0.143,4.145
				c-0.562,0.296-1.387,0.387-1.525,1.007c-0.123,0.555,0.439,0.986,0.813,1.414c1.027,1.174,0.592,3.289-0.815,3.963
				c-0.322,0.154-0.717,0.28-0.836,0.617c-0.085,0.241,0.008,0.503,0.077,0.748c0.13,0.465,0.174,0.954,0.129,1.435
				c-0.016,0.165-0.049,0.343-0.175,0.451c-0.114,0.098-0.275,0.113-0.425,0.12c-1.934,0.086-2.867-0.598-4.048,1.085
				c-0.113,0.162-0.232,0.328-0.403,0.428c-0.16,0.093-0.349,0.118-0.534,0.133c-1.329,0.11-2.199-0.72-3.413-0.875
				c-1.686-0.215-2.043,0.654-3.528,1.353C170.945,190.117,169.812,189.441,169.374,187.849z"/>
			<path style="fill:#F5F5F5;" d="M179.926,180.89c-0.142-0.515-0.227-1.105-0.265-1.755c-0.216-3.639-3.69-3.063-6.646-3.557
				c-2.309-0.386,3.805-6.219-0.851-8.101c-0.865-0.35-1.804-0.745-2.247-1.566c-0.585-1.086,0.007-2.516,1.014-3.228
				c1.007-0.712,2.301-0.863,3.535-0.886c0.759-0.923,0.142-2.313-0.593-3.256c-0.735-0.943-1.635-2.016-1.356-3.178
				c0.421-1.755,2.874-1.818,4.646-1.477c0.655-1.061,0.642-2.387,0.96-3.592c0.318-1.205,1.276-2.47,2.514-2.32
				c1.166,0.142,1.878,1.458,3.021,1.728c1.327,0.313,2.477-0.861,3.518-1.742c1.041-0.881,2.863-1.43,3.58-0.27
				c0.43,0.695,0.172,1.663,0.619,2.346c0.773,1.185,2.608,0.449,3.746-0.391c1.139-0.84,2.953-1.602,3.754-0.435
				c0.245,0.357,0.299,0.808,0.441,1.217c0.539,1.555,2.219,2.329,3.528,3.326c1.309,0.997,2.346,2.98,1.238,4.197
				c-0.546,0.6-1.507,0.843-1.779,1.608c-0.339,0.956,0.638,1.812,1.41,2.47c1.286,1.094,1.52,4.368-0.181,5.264
				c-0.714,0.376-1.761,0.491-1.936,1.279c-0.157,0.704,0.558,1.252,1.033,1.795c1.304,1.492,0.752,4.177-1.035,5.033
				c-0.408,0.196-0.91,0.356-1.061,0.783c-0.108,0.306,0.01,0.638,0.098,0.951c0.166,0.591,0.222,1.212,0.164,1.823
				c-0.02,0.209-0.063,0.435-0.222,0.572c-0.144,0.124-0.349,0.143-0.539,0.152c-2.456,0.11-3.641-0.76-5.14,1.378
				c-0.144,0.205-0.295,0.417-0.512,0.543c-0.203,0.118-0.444,0.15-0.678,0.169c-1.688,0.139-2.792-0.915-4.335-1.111
				c-2.141-0.273-2.595,0.831-4.481,1.718C181.921,183.771,180.483,182.911,179.926,180.89z"/>
			<path style="fill:#F5F5F5;" d="M150.295,149.689c-0.142-0.515-0.227-1.105-0.265-1.755c-0.216-3.639-3.691-3.063-6.646-3.556
				c-2.309-0.386,3.805-6.219-0.851-8.101c-0.865-0.35-1.805-0.745-2.247-1.566c-0.585-1.086,0.007-2.516,1.014-3.228
				c1.007-0.712,2.301-0.863,3.535-0.886c0.759-0.923,0.142-2.313-0.593-3.256c-0.735-0.943-1.635-2.016-1.356-3.178
				c0.42-1.756,2.874-1.818,4.646-1.477c0.655-1.061,0.642-2.387,0.96-3.592c0.318-1.205,1.276-2.47,2.514-2.32
				c1.166,0.142,1.878,1.458,3.021,1.728c1.327,0.313,2.477-0.861,3.518-1.742c1.041-0.881,2.863-1.43,3.58-0.27
				c0.429,0.695,0.172,1.663,0.618,2.346c0.773,1.185,2.608,0.45,3.747-0.391c1.139-0.84,2.953-1.602,3.754-0.435
				c0.245,0.357,0.299,0.807,0.441,1.217c0.539,1.555,2.219,2.329,3.528,3.326c1.309,0.997,2.346,2.98,1.238,4.197
				c-0.546,0.6-1.507,0.843-1.779,1.608c-0.339,0.956,0.637,1.813,1.41,2.47c1.287,1.094,1.52,4.368-0.181,5.264
				c-0.714,0.376-1.761,0.491-1.936,1.279c-0.157,0.704,0.558,1.252,1.033,1.796c1.304,1.491,0.752,4.177-1.035,5.033
				c-0.408,0.196-0.91,0.356-1.061,0.783c-0.108,0.305,0.01,0.639,0.098,0.951c0.166,0.591,0.222,1.212,0.164,1.823
				c-0.02,0.209-0.063,0.435-0.222,0.572c-0.144,0.124-0.349,0.143-0.539,0.152c-2.456,0.109-3.641-0.76-5.14,1.377
				c-0.144,0.205-0.295,0.417-0.512,0.543c-0.203,0.118-0.444,0.15-0.678,0.169c-1.688,0.139-2.792-0.915-4.335-1.111
				c-2.141-0.273-2.595,0.831-4.48,1.718C152.29,152.57,150.852,151.71,150.295,149.689z"/>
			<path style="fill:#F5F5F5;" d="M126.101,150.926c-0.142-0.515-0.227-1.105-0.265-1.754c-0.216-3.639-3.69-3.063-6.646-3.556
				c-2.309-0.386,3.805-6.219-0.851-8.101c-0.865-0.35-1.805-0.745-2.247-1.566c-0.585-1.086,0.007-2.516,1.014-3.228
				c1.007-0.712,2.301-0.863,3.535-0.886c0.76-0.923,0.142-2.313-0.593-3.255c-0.735-0.943-1.635-2.016-1.356-3.178
				c0.42-1.755,2.874-1.818,4.646-1.477c0.655-1.061,0.642-2.387,0.96-3.592c0.318-1.205,1.277-2.471,2.514-2.32
				c1.166,0.142,1.878,1.458,3.021,1.728c1.328,0.313,2.477-0.861,3.518-1.742s2.863-1.43,3.58-0.27
				c0.43,0.695,0.172,1.663,0.619,2.346c0.773,1.185,2.608,0.45,3.746-0.391c1.139-0.84,2.953-1.602,3.754-0.435
				c0.245,0.357,0.299,0.808,0.441,1.217c0.539,1.555,2.219,2.329,3.528,3.326c1.309,0.997,2.346,2.98,1.238,4.197
				c-0.546,0.6-1.507,0.843-1.779,1.608c-0.339,0.956,0.638,1.813,1.41,2.47c1.286,1.094,1.52,4.369-0.181,5.264
				c-0.714,0.376-1.761,0.491-1.936,1.279c-0.157,0.704,0.558,1.252,1.033,1.795c1.304,1.492,0.752,4.177-1.035,5.033
				c-0.409,0.196-0.91,0.356-1.061,0.783c-0.108,0.306,0.01,0.638,0.098,0.951c0.166,0.591,0.222,1.212,0.164,1.823
				c-0.02,0.209-0.063,0.435-0.222,0.572c-0.144,0.124-0.349,0.143-0.539,0.152c-2.456,0.109-3.641-0.76-5.14,1.377
				c-0.144,0.205-0.295,0.417-0.512,0.543c-0.203,0.118-0.444,0.15-0.678,0.169c-1.689,0.139-2.792-0.915-4.335-1.111
				c-2.141-0.273-2.595,0.831-4.481,1.718C128.096,153.807,126.659,152.947,126.101,150.926z"/>
			<path style="fill:#F5F5F5;" d="M111.406,160.827c-0.142-0.515-0.227-1.105-0.265-1.755c-0.216-3.639-3.69-3.063-6.646-3.556
				c-2.309-0.386,3.805-6.219-0.851-8.101c-0.865-0.35-1.804-0.745-2.247-1.566c-0.585-1.086,0.007-2.516,1.014-3.228
				c1.007-0.712,2.301-0.863,3.535-0.886c0.759-0.923,0.142-2.313-0.593-3.256c-0.735-0.943-1.635-2.016-1.356-3.178
				c0.421-1.756,2.874-1.818,4.646-1.477c0.655-1.061,0.642-2.387,0.96-3.592c0.318-1.205,1.276-2.471,2.514-2.32
				c1.166,0.142,1.878,1.458,3.021,1.728c1.327,0.313,2.477-0.861,3.518-1.742c1.041-0.881,2.863-1.43,3.58-0.27
				c0.429,0.695,0.172,1.663,0.619,2.346c0.773,1.185,2.608,0.45,3.746-0.391c1.139-0.84,2.953-1.601,3.754-0.435
				c0.245,0.357,0.299,0.808,0.441,1.217c0.539,1.555,2.219,2.329,3.528,3.326c1.309,0.997,2.346,2.98,1.238,4.197
				c-0.546,0.6-1.507,0.843-1.779,1.608c-0.339,0.956,0.638,1.813,1.41,2.47c1.286,1.094,1.52,4.368-0.181,5.264
				c-0.714,0.376-1.761,0.491-1.936,1.279c-0.157,0.704,0.558,1.252,1.033,1.796c1.304,1.491,0.752,4.177-1.035,5.033
				c-0.408,0.196-0.91,0.356-1.061,0.783c-0.108,0.306,0.01,0.639,0.097,0.951c0.166,0.591,0.222,1.212,0.164,1.823
				c-0.02,0.209-0.063,0.435-0.222,0.572c-0.144,0.124-0.349,0.143-0.539,0.152c-2.456,0.109-3.641-0.76-5.14,1.377
				c-0.144,0.205-0.295,0.417-0.512,0.543c-0.203,0.118-0.444,0.15-0.678,0.169c-1.688,0.139-2.792-0.915-4.335-1.111
				c-2.141-0.273-2.595,0.831-4.48,1.718C113.401,163.708,111.963,162.848,111.406,160.827z"/>
			<path style="fill:#F5F5F5;" d="M115.861,173.341c0,0,6.146,8.689,8.265,11.444c2.119,2.755,12.715,19.921,14.158,31.274
				c0.154,1.212,0.306,2.255,0.453,3.167c-4.558,30.084-3.842,144.93-3.682,154.354h18.697
				c-3.557-70.582-2.898-167.562-2.445-170.528c0.479-3.138,6.515-15.088,15.84-19.998c9.325-4.91,17.382-21.157,17.382-21.157
				h-2.972c0,0-5.51,9.96-13.351,15.47c-1.139,0.8-2.318,1.466-3.528,2.091c0.281-8.976-3.118-17.562-3.118-17.562l-1.604,1.484
				c2.166,8.871,1.881,14.553,1.226,17.817c-2.632,1.319-5.362,2.845-8.108,5.426c-8.133-10.576-12.707-34.765-12.707-34.765
				l-2.083,1.138c0,0,0.677,6.57,2.689,14.835c1.524,6.26,6.009,18.047,8.095,23.4c-2.074,2.88-4.134,6.604-6.144,11.533
				c-0.228-0.351-0.485-0.669-0.785-0.94c-5.298-4.79-15.259-27.422-15.259-27.422c-2.409-5.261,1.272-19.073,1.272-19.073h-2.781
				l-1.246,12.08l-6.994-7.629l-1.271,1.06l7.417,9.537l3.815,12.082l-9.96-11.023L115.861,173.341z"/>
		</g>
		<g>
			<path style="fill:#F5F5F5;" d="M396.947,190.571c0.134-0.485,0.214-1.041,0.25-1.653c0.204-3.428,3.476-2.885,6.26-3.35
				c2.175-0.363-3.584-5.858,0.801-7.63c0.815-0.329,1.7-0.701,2.116-1.475c0.551-1.023-0.007-2.37-0.955-3.041
				c-0.949-0.671-2.168-0.813-3.329-0.835c-0.715-0.87-0.134-2.178,0.559-3.067c0.692-0.888,1.54-1.898,1.278-2.994
				c-0.396-1.654-2.707-1.713-4.377-1.391c-0.617-0.999-0.605-2.248-0.904-3.384c-0.299-1.135-1.202-2.327-2.368-2.185
				c-1.098,0.134-1.769,1.374-2.846,1.627c-1.251,0.295-2.333-0.811-3.314-1.641c-0.981-0.829-2.696-1.347-3.372-0.255
				c-0.404,0.654-0.162,1.566-0.583,2.21c-0.729,1.117-2.456,0.424-3.529-0.368c-1.073-0.792-2.781-1.508-3.536-0.41
				c-0.231,0.337-0.282,0.761-0.416,1.147c-0.508,1.464-2.091,2.194-3.323,3.133c-1.233,0.939-2.21,2.807-1.166,3.953
				c0.515,0.565,1.42,0.795,1.676,1.515c0.32,0.9-0.601,1.707-1.328,2.326c-1.212,1.031-1.431,4.115,0.171,4.958
				c0.673,0.354,1.659,0.463,1.824,1.205c0.148,0.663-0.526,1.18-0.973,1.691c-1.228,1.405-0.708,3.934,0.975,4.74
				c0.385,0.184,0.857,0.335,1,0.738c0.102,0.288-0.009,0.601-0.092,0.895c-0.156,0.556-0.209,1.142-0.154,1.717
				c0.019,0.197,0.059,0.41,0.209,0.539c0.136,0.117,0.329,0.135,0.508,0.143c2.314,0.103,3.43-0.716,4.842,1.297
				c0.136,0.193,0.278,0.393,0.482,0.512c0.191,0.111,0.418,0.141,0.638,0.159c1.591,0.131,2.63-0.862,4.083-1.047
				c2.017-0.257,2.444,0.783,4.22,1.618C395.068,193.284,396.422,192.475,396.947,190.571z"/>
			<path style="fill:#F5F5F5;" d="M370.302,187.691c0.134-0.485,0.214-1.041,0.25-1.653c0.204-3.428,3.476-2.885,6.26-3.35
				c2.175-0.363-3.584-5.858,0.801-7.631c0.815-0.329,1.7-0.701,2.116-1.475c0.551-1.023-0.007-2.37-0.955-3.041
				s-2.168-0.813-3.329-0.835c-0.715-0.87-0.134-2.178,0.559-3.066c0.692-0.888,1.54-1.898,1.278-2.994
				c-0.396-1.654-2.707-1.713-4.377-1.392c-0.617-0.999-0.605-2.248-0.904-3.384c-0.299-1.135-1.202-2.327-2.368-2.185
				c-1.098,0.134-1.769,1.374-2.846,1.627c-1.25,0.295-2.333-0.811-3.314-1.641c-0.981-0.829-2.696-1.347-3.372-0.255
				c-0.404,0.654-0.162,1.566-0.583,2.21c-0.729,1.116-2.456,0.424-3.529-0.368c-1.073-0.792-2.781-1.508-3.536-0.41
				c-0.231,0.337-0.282,0.761-0.416,1.147c-0.507,1.464-2.09,2.194-3.323,3.133c-1.233,0.939-2.21,2.807-1.166,3.953
				c0.515,0.566,1.42,0.794,1.676,1.515c0.32,0.9-0.6,1.707-1.328,2.326c-1.212,1.031-1.431,4.115,0.171,4.958
				c0.673,0.354,1.659,0.463,1.824,1.205c0.147,0.663-0.526,1.18-0.973,1.691c-1.228,1.405-0.708,3.934,0.975,4.74
				c0.385,0.184,0.857,0.335,1,0.738c0.102,0.288-0.009,0.601-0.092,0.895c-0.156,0.556-0.209,1.142-0.154,1.717
				c0.019,0.197,0.059,0.41,0.209,0.539c0.136,0.117,0.329,0.135,0.508,0.143c2.314,0.103,3.43-0.716,4.842,1.297
				c0.136,0.193,0.278,0.393,0.482,0.512c0.191,0.111,0.418,0.141,0.638,0.159c1.59,0.131,2.63-0.862,4.083-1.047
				c2.017-0.257,2.444,0.783,4.22,1.618C368.423,190.405,369.777,189.595,370.302,187.691z"/>
			<path style="fill:#F5F5F5;" d="M367.735,170.723c0.134-0.485,0.213-1.041,0.25-1.653c0.204-3.428,3.476-2.885,6.26-3.35
				c2.175-0.363-3.584-5.858,0.801-7.631c0.815-0.329,1.7-0.701,2.116-1.475c0.551-1.023-0.007-2.37-0.955-3.041
				c-0.949-0.671-2.168-0.813-3.329-0.835c-0.715-0.87-0.134-2.178,0.559-3.066c0.692-0.888,1.54-1.899,1.278-2.994
				c-0.396-1.653-2.707-1.713-4.376-1.391c-0.617-0.999-0.605-2.248-0.904-3.384c-0.299-1.135-1.202-2.327-2.368-2.185
				c-1.098,0.134-1.769,1.374-2.846,1.627c-1.25,0.295-2.333-0.811-3.314-1.641c-0.981-0.83-2.696-1.347-3.372-0.255
				c-0.404,0.654-0.162,1.566-0.583,2.21c-0.729,1.116-2.456,0.423-3.529-0.368c-1.073-0.792-2.781-1.509-3.536-0.41
				c-0.231,0.337-0.282,0.761-0.416,1.147c-0.507,1.464-2.09,2.194-3.323,3.133c-1.233,0.939-2.21,2.807-1.166,3.953
				c0.515,0.565,1.42,0.794,1.676,1.515c0.32,0.9-0.6,1.707-1.328,2.326c-1.212,1.031-1.431,4.115,0.171,4.958
				c0.673,0.354,1.659,0.463,1.824,1.205c0.147,0.663-0.526,1.18-0.973,1.691c-1.228,1.405-0.708,3.934,0.975,4.741
				c0.385,0.184,0.857,0.335,1,0.737c0.102,0.288-0.009,0.601-0.092,0.895c-0.156,0.556-0.209,1.141-0.154,1.717
				c0.019,0.197,0.059,0.41,0.209,0.539c0.136,0.117,0.329,0.135,0.508,0.143c2.314,0.103,3.43-0.716,4.842,1.298
				c0.136,0.193,0.278,0.393,0.482,0.512c0.191,0.111,0.418,0.141,0.638,0.159c1.59,0.131,2.63-0.861,4.083-1.047
				c2.017-0.257,2.444,0.783,4.22,1.618C365.855,173.436,367.21,172.627,367.735,170.723z"/>
			<path style="fill:#F5F5F5;" d="M350.182,179.175c0.134-0.485,0.214-1.041,0.25-1.653c0.204-3.428,3.476-2.885,6.26-3.35
				c2.175-0.363-3.584-5.858,0.801-7.63c0.814-0.329,1.7-0.702,2.116-1.475c0.551-1.023-0.007-2.37-0.955-3.041
				c-0.949-0.671-2.168-0.813-3.329-0.835c-0.715-0.87-0.134-2.178,0.559-3.066c0.692-0.888,1.54-1.898,1.278-2.994
				c-0.396-1.654-2.707-1.713-4.377-1.391c-0.617-0.999-0.605-2.248-0.904-3.384c-0.299-1.135-1.202-2.327-2.368-2.185
				c-1.098,0.134-1.769,1.374-2.846,1.627c-1.25,0.295-2.333-0.811-3.314-1.641c-0.981-0.83-2.696-1.347-3.372-0.255
				c-0.404,0.654-0.162,1.566-0.583,2.21c-0.729,1.116-2.456,0.424-3.529-0.368c-1.073-0.792-2.782-1.508-3.536-0.41
				c-0.231,0.337-0.282,0.761-0.416,1.147c-0.507,1.464-2.091,2.194-3.323,3.133c-1.233,0.939-2.21,2.807-1.166,3.953
				c0.515,0.565,1.42,0.794,1.676,1.515c0.32,0.9-0.601,1.707-1.328,2.326c-1.212,1.031-1.431,4.115,0.171,4.958
				c0.673,0.354,1.659,0.463,1.824,1.205c0.147,0.663-0.526,1.18-0.973,1.691c-1.228,1.405-0.708,3.934,0.975,4.74
				c0.385,0.184,0.857,0.335,1,0.738c0.102,0.288-0.009,0.601-0.092,0.895c-0.156,0.556-0.209,1.142-0.154,1.717
				c0.019,0.197,0.059,0.41,0.209,0.539c0.136,0.117,0.329,0.135,0.508,0.143c2.314,0.103,3.43-0.716,4.842,1.297
				c0.136,0.193,0.278,0.393,0.482,0.512c0.191,0.111,0.418,0.141,0.638,0.159c1.59,0.131,2.63-0.862,4.083-1.047
				c2.017-0.257,2.444,0.783,4.22,1.618C348.303,181.888,349.658,181.079,350.182,179.175z"/>
			<path style="fill:#F5F5F5;" d="M332.443,175.271c0.134-0.485,0.214-1.041,0.25-1.653c0.204-3.428,3.476-2.885,6.26-3.35
				c2.175-0.363-3.584-5.858,0.801-7.63c0.814-0.329,1.7-0.702,2.116-1.475c0.551-1.023-0.007-2.37-0.955-3.041
				c-0.949-0.671-2.168-0.813-3.329-0.835c-0.715-0.87-0.134-2.178,0.559-3.066c0.692-0.888,1.54-1.898,1.278-2.994
				c-0.396-1.654-2.707-1.713-4.376-1.392c-0.617-0.999-0.605-2.248-0.904-3.384c-0.299-1.135-1.202-2.327-2.368-2.185
				c-1.098,0.134-1.769,1.374-2.846,1.627c-1.25,0.295-2.333-0.811-3.314-1.641c-0.981-0.829-2.696-1.347-3.372-0.255
				c-0.405,0.654-0.162,1.566-0.583,2.21c-0.729,1.116-2.456,0.423-3.529-0.368c-1.073-0.792-2.781-1.509-3.536-0.41
				c-0.231,0.337-0.282,0.761-0.416,1.146c-0.507,1.464-2.09,2.194-3.323,3.133c-1.233,0.939-2.21,2.807-1.166,3.953
				c0.515,0.565,1.42,0.795,1.676,1.515c0.32,0.9-0.601,1.707-1.328,2.326c-1.212,1.031-1.431,4.115,0.171,4.958
				c0.673,0.354,1.659,0.463,1.824,1.205c0.147,0.663-0.526,1.18-0.973,1.691c-1.228,1.405-0.708,3.934,0.975,4.74
				c0.385,0.184,0.857,0.335,1,0.738c0.102,0.288-0.009,0.601-0.092,0.895c-0.156,0.556-0.209,1.142-0.154,1.717
				c0.019,0.197,0.059,0.41,0.209,0.539c0.136,0.117,0.329,0.135,0.508,0.143c2.314,0.103,3.43-0.716,4.842,1.297
				c0.136,0.193,0.278,0.393,0.482,0.512c0.191,0.111,0.418,0.141,0.638,0.159c1.59,0.131,2.63-0.862,4.083-1.047
				c2.017-0.257,2.444,0.783,4.22,1.618C330.564,177.984,331.918,177.175,332.443,175.271z"/>
			<path style="fill:#F5F5F5;" d="M332.212,194.247c0.105-0.382,0.168-0.82,0.197-1.301c0.16-2.699,2.737-2.271,4.929-2.638
				c1.712-0.286-2.822-4.613,0.631-6.008c0.641-0.259,1.338-0.552,1.666-1.161c0.434-0.806-0.005-1.866-0.752-2.394
				c-0.747-0.528-1.707-0.64-2.622-0.658c-0.563-0.685-0.105-1.715,0.44-2.414c0.545-0.699,1.213-1.495,1.006-2.357
				c-0.312-1.302-2.131-1.349-3.446-1.096c-0.486-0.786-0.476-1.77-0.712-2.664c-0.236-0.894-0.947-1.832-1.864-1.721
				c-0.865,0.105-1.393,1.082-2.241,1.281c-0.984,0.232-1.837-0.639-2.609-1.292c-0.772-0.653-2.123-1.061-2.655-0.201
				c-0.318,0.515-0.128,1.233-0.459,1.74c-0.574,0.879-1.934,0.333-2.779-0.29c-0.845-0.623-2.19-1.188-2.784-0.323
				c-0.182,0.265-0.222,0.599-0.327,0.903c-0.4,1.153-1.646,1.727-2.617,2.467c-0.971,0.74-1.74,2.21-0.918,3.113
				c0.405,0.445,1.118,0.626,1.32,1.193c0.252,0.709-0.473,1.344-1.046,1.832c-0.954,0.812-1.127,3.24,0.134,3.904
				c0.53,0.279,1.306,0.365,1.436,0.949c0.116,0.522-0.414,0.929-0.766,1.331c-0.967,1.106-0.558,3.098,0.767,3.733
				c0.303,0.145,0.675,0.264,0.787,0.581c0.08,0.227-0.007,0.473-0.072,0.705c-0.123,0.438-0.164,0.899-0.122,1.352
				c0.015,0.155,0.047,0.323,0.165,0.424c0.107,0.092,0.259,0.106,0.4,0.113c1.822,0.081,2.7-0.564,3.812,1.022
				c0.107,0.152,0.219,0.309,0.379,0.403c0.15,0.088,0.329,0.111,0.503,0.125c1.252,0.103,2.071-0.678,3.215-0.824
				c1.588-0.202,1.924,0.617,3.323,1.274C330.732,196.383,331.798,195.746,332.212,194.247z"/>
			<path style="fill:#F5F5F5;" d="M322.272,187.691c0.134-0.485,0.213-1.041,0.25-1.653c0.204-3.428,3.476-2.885,6.26-3.35
				c2.175-0.363-3.584-5.858,0.801-7.631c0.814-0.329,1.7-0.701,2.116-1.475c0.551-1.023-0.006-2.37-0.955-3.041
				c-0.949-0.671-2.168-0.813-3.33-0.835c-0.715-0.87-0.133-2.178,0.559-3.066c0.692-0.888,1.54-1.898,1.278-2.994
				c-0.396-1.654-2.707-1.713-4.377-1.392c-0.617-0.999-0.605-2.248-0.904-3.384c-0.299-1.135-1.202-2.327-2.368-2.185
				c-1.098,0.134-1.769,1.374-2.846,1.627c-1.25,0.295-2.333-0.811-3.314-1.641c-0.981-0.829-2.697-1.347-3.372-0.255
				c-0.404,0.654-0.162,1.566-0.583,2.21c-0.728,1.116-2.456,0.424-3.529-0.368c-1.073-0.792-2.781-1.508-3.536-0.41
				c-0.231,0.337-0.282,0.761-0.416,1.147c-0.507,1.464-2.09,2.194-3.323,3.133c-1.233,0.939-2.21,2.807-1.166,3.953
				c0.515,0.566,1.42,0.794,1.676,1.515c0.32,0.9-0.6,1.707-1.328,2.326c-1.212,1.031-1.431,4.115,0.171,4.958
				c0.673,0.354,1.659,0.463,1.824,1.205c0.147,0.663-0.526,1.18-0.973,1.691c-1.228,1.405-0.708,3.934,0.975,4.74
				c0.385,0.184,0.857,0.335,1,0.738c0.102,0.288-0.009,0.601-0.092,0.895c-0.156,0.556-0.209,1.142-0.154,1.717
				c0.019,0.197,0.059,0.41,0.209,0.539c0.136,0.117,0.329,0.135,0.508,0.143c2.314,0.103,3.43-0.716,4.842,1.297
				c0.136,0.193,0.278,0.393,0.482,0.512c0.191,0.111,0.418,0.141,0.638,0.159c1.59,0.131,2.63-0.862,4.083-1.047
				c2.017-0.257,2.444,0.783,4.22,1.618C320.392,190.405,321.747,189.595,322.272,187.691z"/>
			<path style="fill:#F5F5F5;" d="M350.182,158.302c0.134-0.485,0.214-1.041,0.25-1.653c0.204-3.428,3.476-2.885,6.26-3.35
				c2.175-0.363-3.584-5.858,0.801-7.631c0.814-0.329,1.7-0.701,2.116-1.475c0.551-1.023-0.007-2.37-0.955-3.041
				c-0.949-0.671-2.168-0.813-3.329-0.835c-0.715-0.87-0.134-2.178,0.559-3.066c0.692-0.888,1.54-1.898,1.278-2.994
				c-0.396-1.654-2.707-1.713-4.377-1.392c-0.617-0.999-0.605-2.248-0.904-3.384c-0.299-1.135-1.202-2.327-2.368-2.185
				c-1.098,0.134-1.769,1.374-2.846,1.627c-1.25,0.295-2.333-0.811-3.314-1.641c-0.981-0.83-2.696-1.347-3.372-0.255
				c-0.404,0.654-0.162,1.566-0.583,2.21c-0.729,1.116-2.456,0.423-3.529-0.368c-1.073-0.792-2.782-1.508-3.536-0.41
				c-0.231,0.337-0.282,0.761-0.416,1.147c-0.507,1.464-2.091,2.194-3.323,3.133c-1.233,0.939-2.21,2.807-1.166,3.953
				c0.515,0.565,1.42,0.794,1.676,1.515c0.32,0.9-0.601,1.707-1.328,2.326c-1.212,1.031-1.431,4.115,0.171,4.958
				c0.673,0.354,1.659,0.463,1.824,1.205c0.147,0.663-0.526,1.18-0.973,1.691c-1.228,1.405-0.708,3.934,0.975,4.74
				c0.385,0.184,0.857,0.336,1,0.738c0.102,0.288-0.009,0.601-0.092,0.895c-0.156,0.556-0.209,1.141-0.154,1.717
				c0.019,0.197,0.059,0.41,0.209,0.539c0.136,0.117,0.329,0.135,0.508,0.143c2.314,0.103,3.43-0.716,4.842,1.298
				c0.136,0.193,0.278,0.393,0.482,0.512c0.191,0.111,0.418,0.141,0.638,0.159c1.59,0.131,2.63-0.862,4.083-1.047
				c2.017-0.257,2.444,0.783,4.22,1.618C348.303,161.016,349.658,160.206,350.182,158.302z"/>
			<path style="fill:#F5F5F5;" d="M372.971,159.468c0.134-0.485,0.214-1.041,0.25-1.653c0.204-3.428,3.476-2.885,6.26-3.35
				c2.175-0.363-3.584-5.858,0.801-7.631c0.815-0.329,1.7-0.701,2.116-1.475c0.551-1.023-0.006-2.37-0.955-3.041
				c-0.949-0.671-2.168-0.813-3.33-0.835c-0.715-0.87-0.134-2.178,0.559-3.066c0.692-0.888,1.54-1.898,1.278-2.994
				c-0.396-1.653-2.707-1.713-4.377-1.392c-0.617-0.999-0.605-2.248-0.904-3.384c-0.299-1.135-1.202-2.327-2.368-2.185
				c-1.098,0.134-1.769,1.374-2.846,1.627c-1.25,0.295-2.333-0.811-3.314-1.641c-0.981-0.83-2.697-1.347-3.372-0.255
				c-0.405,0.654-0.162,1.566-0.583,2.21c-0.729,1.116-2.456,0.423-3.529-0.368c-1.073-0.792-2.781-1.509-3.536-0.41
				c-0.231,0.337-0.282,0.761-0.416,1.147c-0.507,1.464-2.09,2.194-3.323,3.133c-1.233,0.939-2.21,2.807-1.166,3.953
				c0.515,0.566,1.42,0.795,1.676,1.515c0.32,0.9-0.601,1.707-1.328,2.326c-1.212,1.031-1.431,4.115,0.171,4.958
				c0.672,0.354,1.659,0.463,1.824,1.205c0.147,0.663-0.526,1.18-0.973,1.691c-1.228,1.405-0.708,3.934,0.975,4.741
				c0.385,0.184,0.857,0.335,1,0.738c0.102,0.288-0.009,0.601-0.092,0.895c-0.156,0.556-0.209,1.142-0.154,1.717
				c0.019,0.197,0.059,0.41,0.209,0.539c0.136,0.117,0.329,0.135,0.508,0.143c2.314,0.103,3.43-0.716,4.842,1.297
				c0.136,0.193,0.278,0.393,0.482,0.512c0.191,0.111,0.418,0.141,0.638,0.159c1.591,0.131,2.63-0.862,4.083-1.047
				c2.017-0.257,2.444,0.783,4.22,1.618C371.092,162.181,372.446,161.372,372.971,159.468z"/>
			<path style="fill:#F5F5F5;" d="M386.813,168.794c0.134-0.485,0.214-1.041,0.25-1.653c0.204-3.428,3.476-2.885,6.26-3.35
				c2.175-0.363-3.584-5.858,0.801-7.631c0.815-0.329,1.7-0.701,2.116-1.475c0.551-1.023-0.007-2.37-0.955-3.041
				s-2.168-0.813-3.329-0.835c-0.715-0.87-0.134-2.178,0.559-3.066c0.692-0.888,1.54-1.898,1.278-2.994
				c-0.396-1.653-2.707-1.713-4.377-1.391c-0.617-0.999-0.605-2.248-0.904-3.384c-0.299-1.135-1.202-2.327-2.368-2.185
				c-1.098,0.134-1.769,1.374-2.846,1.627c-1.25,0.295-2.333-0.811-3.314-1.641c-0.981-0.83-2.696-1.347-3.372-0.255
				c-0.404,0.654-0.162,1.566-0.583,2.21c-0.729,1.117-2.456,0.423-3.529-0.368c-1.073-0.792-2.781-1.508-3.536-0.41
				c-0.231,0.337-0.282,0.761-0.416,1.147c-0.508,1.464-2.09,2.194-3.323,3.133c-1.233,0.939-2.21,2.807-1.166,3.953
				c0.515,0.565,1.42,0.794,1.676,1.515c0.32,0.9-0.6,1.707-1.328,2.326c-1.212,1.031-1.432,4.115,0.171,4.958
				c0.673,0.354,1.659,0.463,1.824,1.205c0.147,0.663-0.526,1.18-0.973,1.691c-1.228,1.405-0.709,3.934,0.975,4.74
				c0.385,0.184,0.857,0.335,1,0.738c0.102,0.288-0.009,0.601-0.092,0.895c-0.156,0.556-0.209,1.141-0.154,1.717
				c0.019,0.197,0.059,0.41,0.209,0.539c0.136,0.117,0.329,0.135,0.508,0.143c2.314,0.103,3.43-0.716,4.842,1.297
				c0.136,0.193,0.278,0.393,0.482,0.512c0.191,0.111,0.418,0.141,0.638,0.159c1.591,0.131,2.63-0.862,4.083-1.047
				c2.017-0.257,2.444,0.783,4.22,1.618C384.934,171.507,386.289,170.697,386.813,168.794z"/>
			<path style="fill:#F5F5F5;" d="M382.617,180.581c0,0-5.789,8.184-7.785,10.779s-11.977,18.764-13.335,29.458
				c-0.145,1.141-0.288,2.124-0.427,2.983c4.293,28.337,3.619,142.791,3.468,151.667h-19.208
				c2.102-87.675,4.326-164.109,3.9-166.902c-0.451-2.955-6.137-14.212-14.92-18.836c-8.783-4.625-16.373-19.928-16.373-19.928
				h2.799c0,0,5.19,9.382,12.576,14.572c1.073,0.754,2.183,1.381,3.323,1.97c-0.265-8.454,2.937-16.542,2.937-16.542l1.511,1.397
				c-2.04,8.356-1.772,13.708-1.154,16.782c2.479,1.242,5.051,2.68,7.637,5.111c7.661-9.962,11.969-32.746,11.969-32.746
				l1.962,1.072c0,0-0.638,6.188-2.533,13.973c-1.436,5.897-5.66,17-7.625,22.041c1.953,2.713,3.894,6.221,5.787,10.863
				c0.215-0.33,0.457-0.631,0.739-0.886c4.991-4.512,14.372-25.83,14.372-25.83c2.269-4.956-1.198-17.965-1.198-17.965h2.619
				l1.174,11.378l6.587-7.186l1.198,0.998l-6.987,8.983l-3.593,11.381l9.382-10.383L382.617,180.581z"/>
		</g>
		<rect x="84.209" y="297.966" style="fill:#E0E0E0;" width="334.935" height="11.355"/>
		<g>
			<polygon style="fill:#E6E6E6;" points="92.095,368.47 76.322,368.47 76.322,268.89 84.209,263.283 92.095,268.89 			"/>
			<polygon style="fill:#E6E6E6;" points="120.006,368.47 104.233,368.47 104.233,268.89 112.12,263.283 120.006,268.89 			"/>
			<polygon style="fill:#E6E6E6;" points="147.918,368.47 132.144,368.47 132.144,268.89 140.031,263.283 147.918,268.89 			"/>
			<polygon style="fill:#E6E6E6;" points="175.829,368.47 160.056,368.47 160.056,268.89 167.942,263.283 175.829,268.89 			"/>
			<polygon style="fill:#E6E6E6;" points="203.74,368.47 187.967,368.47 187.967,268.89 195.853,263.283 203.74,268.89 			"/>
			<polygon style="fill:#E6E6E6;" points="231.651,368.47 215.878,368.47 215.878,268.89 223.765,263.283 231.651,268.89 			"/>
			<polygon style="fill:#E6E6E6;" points="259.563,368.47 243.789,368.47 243.789,268.89 251.676,263.283 259.563,268.89 			"/>
			<polygon style="fill:#E6E6E6;" points="287.474,368.47 271.701,368.47 271.701,268.89 279.587,263.283 287.474,268.89 			"/>
			<polygon style="fill:#E6E6E6;" points="315.385,368.47 299.612,368.47 299.612,268.89 307.498,263.283 315.385,268.89 			"/>
			<polygon style="fill:#E6E6E6;" points="343.296,368.47 327.523,368.47 327.523,268.89 335.41,263.283 343.296,268.89 			"/>
			<polygon style="fill:#E6E6E6;" points="371.208,368.47 355.434,368.47 355.434,268.89 363.321,263.283 371.208,268.89 			"/>
			<polygon style="fill:#E6E6E6;" points="399.119,368.47 383.346,368.47 383.346,268.89 391.232,263.283 399.119,268.89 			"/>
			<polygon style="fill:#E6E6E6;" points="427.03,368.47 411.257,368.47 411.257,268.89 419.143,263.283 427.03,268.89 			"/>
		</g>
		<path style="fill:#E0E0E0;" d="M415.035,369.556c0,0,2.611-8.747-2.671-10.489c-5.282-1.742-8.415-5.832-8.238-10.459
			c0.177-4.626-5.383-9.129-9.552-4.793c-4.17,4.336-3.614-3.334-9.174-5.198c-5.56-1.864-10.272,2.658-8.75,6.791
			s-3.964,6.714-10.533,3.199c-6.569-3.514-13.797,2.879-12.407,7.883c1.39,5.004,0.252,5.56-3.905,3.892
			c-4.157-1.668-11.592,3.058-8.986,9.173C343.424,375.671,415.035,369.556,415.035,369.556z"/>
		<path style="fill:#E0E0E0;" d="M134.382,368.302c0,0,2.027-6.79-2.073-8.143c-4.1-1.352-6.532-4.528-6.395-8.119
			c0.137-3.591-4.179-7.087-7.416-3.721c-3.237,3.366-2.805-2.588-7.121-4.035c-4.316-1.447-7.974,2.063-6.793,5.272
			c1.182,3.208-3.077,5.212-8.177,2.484c-5.1-2.728-10.71,2.235-9.631,6.119c1.079,3.884,0.196,4.316-3.031,3.021
			c-3.227-1.295-8.999,2.374-6.976,7.121C78.791,373.049,134.382,368.302,134.382,368.302z"/>
		<path style="fill:#E0E0E0;" d="M235.825,369.107c4.672-4.672,0.467-12.616-4.205-13.55c-4.672-0.934-9.369-9.156-9.59-14.39
			c-0.221-5.234-8.632-21.333-21.715-11.391c-13.083,9.942-9.107,1.464-18.571-1.329c-9.464-2.793-15.434,5.243-11.281,11.271
			c0,0-9.507-2.383-13.424,6.495c-3.916,8.878,0,14.391,0,14.391s-17.88-0.529-16.272,10.529
			C142.377,382.19,235.825,369.107,235.825,369.107z"/>
		<g>
			<path style="fill:#EBEBEB;" d="M69.645,369.387v12.802h360.71v-12.802c0-2.224-1.551-4.018-3.775-4.018H73.42
				C71.196,365.369,69.645,367.163,69.645,369.387z"/>
			<g>
				<rect x="387.369" y="365.369" style="fill:#F5F5F5;" width="22.428" height="16.821"/>
				<rect x="345.317" y="365.369" style="fill:#F5F5F5;" width="21.493" height="16.821"/>
				<rect x="302.331" y="365.369" style="fill:#F5F5F5;" width="22.428" height="16.821"/>
				<rect x="260.279" y="365.369" style="fill:#F5F5F5;" width="21.493" height="16.821"/>
				<rect x="218.228" y="365.369" style="fill:#F5F5F5;" width="21.493" height="16.821"/>
				<rect x="175.241" y="365.369" style="fill:#F5F5F5;" width="22.428" height="16.821"/>
				<rect x="133.19" y="365.369" style="fill:#F5F5F5;" width="21.493" height="16.821"/>
				<rect x="90.203" y="365.369" style="fill:#F5F5F5;" width="22.428" height="16.821"/>
			</g>
		</g>
	</g>
</g>
<g id="Background_Simple" style="display:none;">
	<g style="display:inline;">
		<path style="fill:#407BFF;" d="M88.093,103.177c27.919-59.449,127.059-51.062,165.317-9.255
			c38.258,41.806,50.696,68.599,85.208,52.983c34.512-15.616,78.518-11.44,81.042,38.164s-37.913,108.263-102.09,125.615
			c-64.177,17.352-64.161,78.759-149.1,66.368c-46.31-6.756-47.365-56.86-40.825-98.301S55.715,172.121,88.093,103.177z"/>
		<path style="opacity:0.9;fill:#FFFFFF;" d="M88.093,103.177c27.919-59.449,127.059-51.062,165.317-9.255
			c38.258,41.806,50.696,68.599,85.208,52.983c34.512-15.616,78.518-11.44,81.042,38.164s-37.913,108.263-102.09,125.615
			c-64.177,17.352-64.161,78.759-149.1,66.368c-46.31-6.756-47.365-56.86-40.825-98.301S55.715,172.121,88.093,103.177z"/>
	</g>
</g>
<g id="Shadow_1_">
	<ellipse id="_x3C_Path_x3E__359_" style="fill:#F5F5F5;" cx="250" cy="416.238" rx="193.889" ry="11.323"/>
</g>
<g id="Trash_bin_1">
	<g>
		<g>
			<polygon style="fill:#407BFF;" points="322.961,418.15 266.707,418.15 265.918,408.319 323.75,408.319 			"/>
			<polygon style="opacity:0.2;enable-background:new    ;" points="322.961,418.15 266.707,418.15 265.918,408.319 323.75,408.319 
							"/>
			<polygon style="opacity:0.2;enable-background:new    ;" points="317.955,418.15 266.707,418.15 265.918,408.319 
				318.603,408.319 			"/>
		</g>
		<g>
			<path style="fill:#263238;" d="M301.368,411.545c-0.514,0-2.247,0-2.761,0c-1.34,0-2.427,1.685-2.427,3.762
				c0,2.078,1.087,3.762,2.427,3.762c0.514,0,2.247,0,2.761,0c1.341,0,2.427-1.685,2.427-3.762
				C303.795,413.23,302.708,411.545,301.368,411.545z"/>
			<path style="opacity:0.2;fill:#FFFFFF;enable-background:new    ;" d="M303.795,415.308c0,2.078-1.087,3.762-2.427,3.762
				c-1.341,0-2.427-1.685-2.427-3.762c0-2.078,1.087-3.762,2.427-3.762C302.708,411.545,303.795,413.23,303.795,415.308z"/>
		</g>
		<g>
			<path style="fill:#263238;" d="M256.947,411.545c-0.514,0-2.247,0-2.761,0c-1.34,0-2.427,1.685-2.427,3.762
				c0,2.078,1.087,3.762,2.427,3.762c0.514,0,2.247,0,2.761,0c1.341,0,2.427-1.685,2.427-3.762
				C259.375,413.23,258.288,411.545,256.947,411.545z"/>
			<path style="opacity:0.2;fill:#FFFFFF;enable-background:new    ;" d="M259.375,415.308c0,2.078-1.087,3.762-2.427,3.762
				c-1.341,0-2.427-1.685-2.427-3.762c0-2.078,1.087-3.762,2.427-3.762C258.288,411.545,259.375,413.23,259.375,415.308z"/>
		</g>
		<g>
			<path style="fill:#407BFF;" d="M327.855,267.147h-43.858c-2.626,0-4.334-2.043-3.816-4.563l10.029-48.737
				c0.519-2.52,3.068-4.563,5.694-4.563h43.858c7.302,0,12.052,5.681,10.61,12.689l-6.685,32.486
				C342.246,261.466,335.157,267.147,327.855,267.147z"/>
			<path style="opacity:0.2;fill:#FFFFFF;enable-background:new    ;" d="M327.855,267.147h-43.858
				c-2.626,0-4.334-2.043-3.816-4.563l10.029-48.737c0.519-2.52,3.068-4.563,5.694-4.563h43.858c7.302,0,12.052,5.681,10.61,12.689
				l-6.685,32.486C342.246,261.466,335.157,267.147,327.855,267.147z"/>
			<path style="fill:#407BFF;" d="M331.082,268.884h-55.594c-2.626,0-4.334-2.043-3.816-4.563l10.744-52.21
				c0.519-2.52,3.068-4.563,5.694-4.563h55.594c2.626,0,4.334,2.043,3.816,4.563l-10.744,52.21
				C336.257,266.841,333.707,268.884,331.082,268.884z"/>
			<path style="opacity:0.2;enable-background:new    ;" d="M345.675,212.115l-0.994,4.841l-9.747,47.362
				c-0.313,1.546-1.878,2.798-3.488,2.798h-55.59c-1.611,0-2.66-1.252-2.347-2.798l10.75-52.203
				c0.313-1.546,1.878-2.798,3.488-2.798h55.591C344.948,209.317,345.997,210.568,345.675,212.115z"/>
			<path style="opacity:0.2;enable-background:new    ;" d="M345.675,212.115l-0.994,4.841c-17.984-0.35-52.038-0.847-52.838,0.221
				c-1.095,1.454-15.987,49.939-15.987,49.939c-1.611,0-2.66-1.252-2.347-2.798l10.75-52.203c0.313-1.546,1.878-2.798,3.488-2.798
				h55.591C344.948,209.317,345.997,210.568,345.675,212.115z"/>
		</g>
		<path style="fill:#407BFF;" d="M332.928,271.975l-4.694,136.399c-0.092,2.614-2.237,4.685-4.86,4.685h-71.743
			c-2.623,0-4.767-2.071-4.85-4.685l-4.694-136.399H332.928z"/>
		<path style="opacity:0.2;enable-background:new    ;" d="M332.928,271.975l-4.694,136.399c-0.092,2.614-2.237,4.685-4.86,4.685
			h-16.521c-2.623,0-4.767-2.071-4.85-4.685l-4.694-136.399H332.928z"/>
		<g>
			<path style="fill:#FFFFFF;" d="M261.518,333.01l3.64-6.3l0.953,0.566l-1.237-4.851l-4.851,1.237l1.078,0.64l-3.666,6.35
				c-1.103,1.908-1.103,4.277,0,6.185c1.101,1.908,3.153,3.093,5.355,3.093h4.72l0.037-4.718h-4.757
				C261.659,335.212,260.954,333.988,261.518,333.01z"/>
			<path style="fill:#FFFFFF;" d="M271.598,317.022c0.493,0,0.988,0.244,1.271,0.734l3.946,6.838l-0.961,0.554l4.834,1.3l1.3-4.835
				l-1.085,0.625l-3.952-6.841c-1.101-1.908-3.153-3.093-5.355-3.093c-2.204,0-4.256,1.185-5.357,3.093l-2.71,4.691l4.06,2.403
				l2.736-4.736C270.607,317.266,271.103,317.022,271.598,317.022z"/>
			<path style="fill:#FFFFFF;" d="M285.761,330.651l-2.343-4.06l-4.11,2.319l2.367,4.099c0.564,0.978-0.141,2.202-1.271,2.202h-7.26
				v-1.117l-3.54,3.54l3.54,3.54v-1.245h7.26c2.202,0,4.254-1.185,5.357-3.093C286.862,334.929,286.862,332.559,285.761,330.651z"/>
		</g>
		<g>
			<path style="fill:#407BFF;" d="M334.87,269.886v8.32c0,0.856-0.7,1.555-1.556,1.555H242.29c-0.865,0-1.555-0.699-1.555-1.555
				v-8.32c0-0.856,0.69-1.555,1.555-1.555h91.024C334.17,268.331,334.87,269.03,334.87,269.886z"/>
			<path style="opacity:0.2;fill:#FFFFFF;enable-background:new    ;" d="M299.896,269.886v8.32c0,0.856-0.7,1.555-1.556,1.555
				h-56.05c-0.865,0-1.555-0.699-1.555-1.555v-8.32c0-0.856,0.69-1.555,1.555-1.555h56.05
				C299.196,268.331,299.896,269.03,299.896,269.886z"/>
		</g>
	</g>
</g>
<g id="Trash_bin_2">
	<g>
		<g>
			<path style="fill:#263238;" d="M381.819,259.957H342.37l1.954-2.589c2.66-3.527,6.887-5.633,11.305-5.633h12.93
				c4.419,0,8.645,2.106,11.305,5.633L381.819,259.957z M348.268,257.196h27.653c-2.04-1.719-4.656-2.7-7.362-2.7h-12.93
				C352.923,254.496,350.307,255.476,348.268,257.196z"/>
		</g>
		<path style="fill:#263238;" d="M406.557,270.374v3.433h-89.414v-3.433c0-8.118,6.581-14.698,14.708-14.698h60.008
			C399.976,255.676,406.557,262.256,406.557,270.374z"/>
		<path style="opacity:0.2;enable-background:new    ;" d="M406.557,270.374v3.433h-34.192v-3.433
			c0-8.118,6.581-14.698,14.708-14.698h4.786C399.976,255.676,406.557,262.256,406.557,270.374z"/>
		<g>
			<polygon style="fill:#263238;" points="396.591,418.15 340.337,418.15 339.548,408.319 397.38,408.319 			"/>
			<polygon style="opacity:0.2;enable-background:new    ;" points="396.591,418.15 340.337,418.15 339.548,408.319 397.38,408.319 
							"/>
			<polygon style="opacity:0.2;enable-background:new    ;" points="391.584,418.15 340.337,418.15 339.548,408.319 
				392.233,408.319 			"/>
		</g>
		<g>
			<path style="fill:#263238;" d="M374.997,411.545c-0.514,0-2.247,0-2.761,0c-1.341,0-2.427,1.685-2.427,3.762
				c0,2.078,1.087,3.762,2.427,3.762c0.514,0,2.247,0,2.761,0c1.341,0,2.427-1.685,2.427-3.762
				C377.425,413.23,376.338,411.545,374.997,411.545z"/>
			<path style="opacity:0.2;fill:#FFFFFF;enable-background:new    ;" d="M377.425,415.308c0,2.078-1.087,3.762-2.427,3.762
				s-2.427-1.685-2.427-3.762c0-2.078,1.087-3.762,2.427-3.762S377.425,413.23,377.425,415.308z"/>
		</g>
		<g>
			<path style="fill:#263238;" d="M330.577,411.545c-0.514,0-2.247,0-2.761,0c-1.34,0-2.427,1.685-2.427,3.762
				c0,2.078,1.087,3.762,2.427,3.762c0.514,0,2.247,0,2.761,0c1.341,0,2.427-1.685,2.427-3.762
				C333.004,413.23,331.918,411.545,330.577,411.545z"/>
			<path style="opacity:0.2;fill:#FFFFFF;enable-background:new    ;" d="M333.004,415.308c0,2.078-1.087,3.762-2.427,3.762
				s-2.427-1.685-2.427-3.762c0-2.078,1.087-3.762,2.427-3.762S333.004,413.23,333.004,415.308z"/>
		</g>
		<path style="fill:#263238;" d="M406.557,271.975l-4.694,136.399c-0.092,2.614-2.237,4.685-4.86,4.685h-71.743
			c-2.623,0-4.767-2.071-4.85-4.685l-4.694-136.399H406.557z"/>
		<path style="opacity:0.2;enable-background:new    ;" d="M406.557,271.975l-4.694,136.399c-0.092,2.614-2.237,4.685-4.86,4.685
			h-16.521c-2.623,0-4.767-2.071-4.85-4.685l-4.694-136.399H406.557z"/>
		<g>
			<path style="fill:#FFFFFF;" d="M335.147,333.01l3.64-6.3l0.953,0.566l-1.237-4.851l-4.851,1.237l1.078,0.64l-3.666,6.35
				c-1.103,1.908-1.103,4.277,0,6.185c1.101,1.908,3.153,3.093,5.355,3.093h4.72l0.037-4.718h-4.757
				C335.289,335.212,334.584,333.988,335.147,333.01z"/>
			<path style="fill:#FFFFFF;" d="M345.228,317.022c0.493,0,0.988,0.244,1.271,0.734l3.946,6.838l-0.961,0.554l4.834,1.3l1.3-4.835
				l-1.085,0.625l-3.952-6.841c-1.101-1.908-3.153-3.093-5.355-3.093c-2.204,0-4.256,1.185-5.357,3.093l-2.71,4.691l4.06,2.403
				l2.736-4.736C344.237,317.266,344.732,317.022,345.228,317.022z"/>
			<path style="fill:#FFFFFF;" d="M359.391,330.651l-2.343-4.06l-4.11,2.319l2.367,4.099c0.564,0.978-0.141,2.202-1.271,2.202h-7.26
				v-1.117l-3.54,3.54l3.54,3.54v-1.245h7.26c2.202,0,4.254-1.185,5.357-3.093C360.492,334.929,360.492,332.559,359.391,330.651z"/>
		</g>
		<g>
			<path style="fill:#263238;" d="M408.499,269.886v8.32c0,0.856-0.7,1.555-1.556,1.555h-91.025c-0.865,0-1.555-0.699-1.555-1.555
				v-8.32c0-0.856,0.69-1.555,1.555-1.555h91.025C407.8,268.331,408.499,269.03,408.499,269.886z"/>
			<path style="opacity:0.2;fill:#FFFFFF;enable-background:new    ;" d="M373.525,269.886v8.32c0,0.856-0.7,1.555-1.556,1.555
				h-56.05c-0.865,0-1.555-0.699-1.555-1.555v-8.32c0-0.856,0.69-1.555,1.555-1.555h56.05
				C372.826,268.331,373.525,269.03,373.525,269.886z"/>
		</g>
	</g>
</g>
<g id="Trash_bag">
	<g>
		<g>
			<path style="fill:#407BFF;" d="M150.312,303.897l0.99-3.087l-5.4-1.732l-0.99,3.087c-0.266,0.831-0.871,1.51-1.666,1.871l0,0
				c-0.794,0.361-1.399,1.04-1.665,1.871l-5.689,17.737c-0.277,0.862,0.198,1.785,1.06,2.062l6.142,1.97
				c0.862,0.277,1.785-0.198,2.062-1.06l5.689-17.737c0.266-0.831,0.17-1.735-0.266-2.491l0,0
				C150.143,305.632,150.046,304.727,150.312,303.897z"/>
			<path style="opacity:0.2;enable-background:new    ;" d="M150.312,303.897l0.99-3.087l-5.4-1.732l-0.99,3.087
				c-0.266,0.831-0.871,1.51-1.666,1.871l0,0c-0.794,0.361-1.399,1.04-1.665,1.871l-5.689,17.737
				c-0.277,0.862,0.198,1.785,1.06,2.062l6.142,1.97c0.862,0.277,1.785-0.198,2.062-1.06l5.689-17.737
				c0.266-0.831,0.17-1.735-0.266-2.491l0,0C150.143,305.632,150.046,304.727,150.312,303.897z"/>
			<path style="opacity:0.5;fill:#FFFFFF;enable-background:new    ;" d="M149.478,313.141l1.367-4.263
				c0.266-0.831,0.17-1.735-0.266-2.49c-0.436-0.756-0.533-1.66-0.267-2.491l0.99-3.086l-5.4-1.732l-0.99,3.087
				c-0.266,0.831-0.871,1.51-1.665,1.871c-0.794,0.361-1.399,1.04-1.666,1.871l-1.367,4.263L149.478,313.141z"/>
			<path style="opacity:0.6;fill:#FFFFFF;enable-background:new    ;" d="M138.224,316.371l-2.333,7.272
				c-0.277,0.862,0.198,1.785,1.061,2.062l6.142,1.97c0.862,0.277,1.785-0.198,2.062-1.06l2.333-7.272L138.224,316.371z"/>
			<path style="fill:#407BFF;" d="M150.78,302.385l-5.369-1.722c-0.277-0.089-0.43-0.386-0.341-0.663l0.456-1.423
				c0.089-0.277,0.386-0.43,0.663-0.341l5.369,1.722c0.277,0.089,0.43,0.386,0.341,0.663l-0.456,1.422
				C151.354,302.321,151.057,302.474,150.78,302.385z"/>
		</g>
		<g>
			<path style="fill:#407BFF;" d="M132.132,308.965l0.99-3.087l-5.4-1.732l-0.99,3.087c-0.266,0.831-0.871,1.51-1.666,1.871l0,0
				c-0.794,0.361-1.399,1.04-1.666,1.871l-5.689,17.736c-0.276,0.862,0.198,1.785,1.06,2.062l6.142,1.97
				c0.862,0.277,1.785-0.198,2.062-1.06l5.689-17.737c0.266-0.831,0.17-1.735-0.266-2.491l0,0
				C131.962,310.701,131.866,309.796,132.132,308.965z"/>
			<path style="opacity:0.2;enable-background:new    ;" d="M132.132,308.965l0.99-3.087l-5.4-1.732l-0.99,3.087
				c-0.266,0.831-0.871,1.51-1.666,1.871l0,0c-0.794,0.361-1.399,1.04-1.666,1.871l-5.689,17.736
				c-0.276,0.862,0.198,1.785,1.06,2.062l6.142,1.97c0.862,0.277,1.785-0.198,2.062-1.06l5.689-17.737
				c0.266-0.831,0.17-1.735-0.266-2.491l0,0C131.962,310.701,131.866,309.796,132.132,308.965z"/>
			<path style="opacity:0.5;fill:#FFFFFF;enable-background:new    ;" d="M131.298,318.209l1.367-4.263
				c0.266-0.831,0.17-1.735-0.266-2.49c-0.436-0.756-0.533-1.66-0.267-2.491l0.99-3.087l-5.4-1.732l-0.99,3.087
				c-0.267,0.831-0.871,1.51-1.665,1.871c-0.794,0.361-1.399,1.04-1.666,1.871l-1.367,4.263L131.298,318.209z"/>
			<path style="opacity:0.6;fill:#FFFFFF;enable-background:new    ;" d="M120.044,321.44l-2.332,7.272
				c-0.277,0.862,0.198,1.785,1.061,2.062l6.142,1.97c0.862,0.277,1.785-0.198,2.062-1.06l2.332-7.272L120.044,321.44z"/>
			<path style="fill:#407BFF;" d="M132.6,307.453l-5.369-1.722c-0.277-0.089-0.43-0.386-0.341-0.663l0.456-1.423
				c0.089-0.277,0.386-0.43,0.663-0.341l5.369,1.722c0.277,0.089,0.43,0.386,0.341,0.663l-0.456,1.422
				C133.174,307.389,132.877,307.542,132.6,307.453z"/>
		</g>
		<g>
			<path style="fill:#407BFF;" d="M137.546,300.061l-0.202-3.235l-5.66,0.354l0.202,3.235c0.055,0.871-0.261,1.724-0.869,2.349l0,0
				c-0.608,0.625-0.924,1.479-0.87,2.349l1.623,25.939c0.057,0.904,0.835,1.59,1.739,1.534l6.437-0.403
				c0.904-0.057,1.59-0.835,1.534-1.739l-1.623-25.939c-0.054-0.871-0.474-1.678-1.156-2.222l0,0
				C138.021,301.739,137.601,300.932,137.546,300.061z"/>
			<path style="opacity:0.6;fill:#FFFFFF;enable-background:new    ;" d="M140.367,312.648l-0.51-8.142
				c-0.055-0.87-0.474-1.678-1.155-2.222c-0.682-0.545-1.101-1.352-1.156-2.222l-0.202-3.235l-5.66,0.354l0.202,3.235
				c0.055,0.871-0.261,1.724-0.869,2.349c-0.608,0.625-0.924,1.479-0.87,2.349l0.51,8.142L140.367,312.648z"/>
			<path style="opacity:0.6;fill:#FFFFFF;enable-background:new    ;" d="M131.294,323.431l0.477,7.622
				c0.057,0.904,0.835,1.59,1.739,1.534l6.437-0.403c0.904-0.057,1.59-0.835,1.534-1.739l-0.477-7.622L131.294,323.431z"/>
			<path style="fill:#407BFF;" d="M137.431,298.483l-5.627,0.352c-0.291,0.018-0.541-0.203-0.559-0.493l-0.093-1.491
				c-0.018-0.291,0.203-0.541,0.493-0.559l5.627-0.352c0.291-0.018,0.541,0.203,0.559,0.493l0.093,1.491
				C137.943,298.214,137.722,298.464,137.431,298.483z"/>
		</g>
		<g>
			<path style="fill:#407BFF;" d="M118.11,310.031l-2.098-2.471l-4.323,3.67l2.098,2.471c0.565,0.665,0.822,1.538,0.709,2.402l0,0
				c-0.113,0.865,0.144,1.737,0.709,2.402l16.821,19.812c0.586,0.69,1.621,0.775,2.311,0.189l4.917-4.175
				c0.69-0.586,0.775-1.621,0.189-2.311l-16.821-19.812c-0.565-0.665-1.384-1.06-2.256-1.089l0,0
				C119.494,311.092,118.675,310.696,118.11,310.031z"/>
			<path style="opacity:0.6;fill:#FFFFFF;enable-background:new    ;" d="M127.902,318.428l-5.28-6.219
				c-0.564-0.665-1.384-1.061-2.255-1.089c-0.872-0.029-1.691-0.424-2.256-1.089l-2.098-2.471l-4.323,3.671l2.098,2.471
				c0.565,0.665,0.822,1.537,0.709,2.402c-0.113,0.865,0.144,1.738,0.709,2.402l5.28,6.219L127.902,318.428z"/>
			<path style="opacity:0.6;fill:#FFFFFF;enable-background:new    ;" d="M127.084,332.497l4.943,5.821
				c0.586,0.69,1.621,0.775,2.311,0.188l4.917-4.175c0.69-0.586,0.775-1.621,0.189-2.311L134.5,326.2L127.084,332.497z"/>
			<path style="fill:#407BFF;" d="M117.073,308.835l-4.298,3.649c-0.222,0.189-0.555,0.161-0.743-0.061l-0.967-1.139
				c-0.188-0.222-0.161-0.555,0.061-0.743l4.298-3.649c0.222-0.189,0.555-0.161,0.743,0.061l0.967,1.139
				C117.322,308.314,117.295,308.647,117.073,308.835z"/>
		</g>
		<path style="fill:#263238;" d="M138.361,419.066c0,0,49.323-1.841,54.755-1.841c5.433,0,1.225-4.443,1.225-4.443
			s0.889-15.218,0-21.044c-0.889-5.826-16.287-46.866-26.794-56.566c-10.506-9.701-10.385-13.351-10.385-13.351
			s1.653,0.358,1.653-2.751c0-2.793-11.241-7.313-19.342-7.918c-5.443-0.406-18.114,4.218-24.304,4.61
			c-6.19,0.391-22.248,20.96-19.904,24.828c0.791,1.306,14.321-2.83,14.321-2.83s-0.607,10.65-2.791,19.025
			c-2.185,8.374-7.646,22.917-7.646,31.12c0,8.203,6.918,24.636,6.918,24.636s-2.913,1.964-2.913,3.612
			c0,1.649,9.103,0.92,9.103,0.92S129.623,419.066,138.361,419.066z"/>
		<path style="opacity:0.5;fill:#FFFFFF;enable-background:new    ;" d="M193.114,417.229c-5.43,0-54.753,1.841-54.753,1.841
			c-8.734,0-26.102-1.997-26.102-1.997s-9.103,0.727-9.103-0.92c0-1.647,2.909-3.608,2.909-3.608s-2.375-5.642-4.335-11.956
			c-1.39-4.473-2.577-9.287-2.577-12.683c0-8.2,5.458-22.751,7.639-31.118c2.19-8.375,2.798-19.033,2.798-19.033s0,0-0.009,0.009
			c-0.35,0.101-8.026,2.439-12.002,2.973c-1.243,0.166-2.126,0.156-2.31-0.147c-2.347-3.866,13.714-24.436,19.899-24.831
			c6.194-0.387,18.858-5.016,24.307-4.602c8.099,0.598,19.337,5.117,19.337,7.915c0,3.111-1.647,2.752-1.647,2.752
			s-0.12,3.645,10.382,13.345c10.511,9.701,25.908,50.74,26.792,56.566c0.184,1.233,0.295,2.89,0.35,4.731
			c0.202,6.857-0.35,16.318-0.35,16.318S198.554,417.229,193.114,417.229z"/>
		<path style="opacity:0.2;enable-background:new    ;" d="M118.408,325.919c-3.783,2.236-8.817,11.836-8.817,11.836
			s0,0-0.009,0.009c-0.35,0.101-8.026,2.439-12.002,2.973C102.844,332.574,114.634,327.41,118.408,325.919z"/>
		<path style="opacity:0.2;enable-background:new    ;" d="M119.576,325.478c-0.092,0.027-0.506,0.175-1.169,0.442
			C118.813,325.68,119.209,325.524,119.576,325.478z"/>
		<path style="opacity:0.2;enable-background:new    ;" d="M157.163,321.822c0,0-11.269-5.331-15.708-6.059
			s-20.702,4.855-20.702,4.855s15.189-8.738,20.702-7.525C146.968,314.306,155.579,318.256,157.163,321.822z"/>
		<path style="opacity:0.2;enable-background:new    ;" d="M193.114,417.229c-5.43,0-54.753,1.841-54.753,1.841
			c-8.734,0-26.102-1.997-26.102-1.997s-9.103,0.727-9.103-0.92c0-1.647,2.909-3.608,2.909-3.608s-2.375-5.642-4.335-11.956
			c9.728,5.706,23.598,12.103,37.229,12.333c0,0-18.334-7.888-22.273-16.723c0,0,26.341,13.99,33.041,14.349
			c6.709,0.368,33.649,2.954,36.079-0.764c1.519-2.328,5.844-8.799,8.881-13.318c0.202,6.857-0.35,16.318-0.35,16.318
			S198.554,417.229,193.114,417.229z"/>
	</g>
</g>
<g id="Character">
	<g>
		<path style="fill:#EBB376;" d="M204.662,401.158l4.915,0.078c4.993-23.456,8.525-52.483,10.722-74.379
			c0.343-3.433,0.657-6.681,0.932-9.712c0.128-1.442,0.255-2.825,0.373-4.16c0.589-6.582,0.991-11.801,1.236-15.029
			c0.176-2.354,0.265-3.649,0.265-3.649h-17.756l0.167,4.522l0.549,14.931l0.059,1.707l0.373,9.859l0.618,16.785
			C201.023,365.744,204.662,401.158,204.662,401.158z"/>
		<path style="fill:#EBB376;" d="M164.834,399.902l4.836,0.912c9.683-24.201,18.776-55.191,24.691-76.841
			c0.913-3.355,1.756-6.494,2.511-9.339c0.039-0.147,0.069-0.284,0.108-0.422c1.491-5.651,2.639-10.153,3.355-13.008
			c0.549-2.237,0.854-3.463,0.854-3.463l-17.501-3.021l-0.991,7.357l-1.462,10.811l-0.284,2.119l-0.991,7.367l-2.658,19.757
			C167.277,364.38,164.834,399.902,164.834,399.902z"/>
		<path style="opacity:0.2;enable-background:new    ;" d="M181.236,312.888l15.637,1.746c0.039-0.147,0.069-0.284,0.108-0.422
			c1.491-5.651,2.639-10.153,3.355-13.008l-17.638,0.873L181.236,312.888z"/>
		<path style="opacity:0.2;enable-background:new    ;" d="M205.516,298.83l0.549,14.931l0.059,1.707l15.107,1.677
			c0.128-1.442,0.255-2.825,0.373-4.16c0.589-6.582,0.991-11.801,1.236-15.029L205.516,298.83z"/>
		<path style="fill:#263238;" d="M219.172,417.461c-0.915-0.74-1.957-1.307-3.076-1.673l0,0c0,0-3.345-3.318-4.955-13.309
			l-4.379-1.142c-1.523-0.369-3.114,0.252-3.984,1.556c-0.122,0.177-0.216,0.371-0.279,0.576c-0.225,1.071-0.382,2.155-0.468,3.246
			c-0.441,3.381-0.063,10.971-0.063,10.971h0.791l0.315-6.888c0.117-2.338,1.906,0.405,2.419,2.922
			c0.513,2.518,1.601,5.198,6.726,5.324C218.201,419.161,220.683,418.927,219.172,417.461z"/>
		<path style="fill:#263238;" d="M202.626,402.974c-0.288-2.338-0.378-6.403-0.378-6.403l9.73,1.079c0,0-1.178,4.622-0.207,8.093
			C206.87,404.458,202.626,402.974,202.626,402.974z"/>
		<path style="fill:#263238;" d="M179.58,417.461c-0.915-0.74-1.957-1.307-3.075-1.673l0,0c0,0-3.345-3.318-4.955-13.309
			l-4.379-1.142c-1.523-0.369-3.114,0.252-3.984,1.556c-0.122,0.177-0.215,0.371-0.279,0.576c-0.225,1.071-0.382,2.155-0.468,3.246
			c-0.441,3.381-0.063,10.971-0.063,10.971h0.791l0.315-6.888c0.117-2.338,1.906,0.405,2.419,2.922
			c0.512,2.518,1.601,5.198,6.726,5.324C178.609,419.161,181.091,418.927,179.58,417.461z"/>
		<path style="fill:#263238;" d="M163.034,402.974c-0.288-2.338-0.378-6.403-0.378-6.403l9.73,1.079c0,0-1.178,4.622-0.207,8.093
			C167.279,404.458,163.034,402.974,163.034,402.974z"/>
		<path style="fill:#407BFF;" d="M179.549,308.071l18.511,2.364l0.716,0.088l3.806-13.95l1.001,14.95l19.836-1.04
			c8.839-51.865-6.268-64.118-6.268-64.118l-26.909,5.415c-12.187,20.714-9.287,44.793-9.287,44.793L179.549,308.071z"/>
		<path style="opacity:0.5;fill:#FFFFFF;enable-background:new    ;" d="M179.549,308.071l18.511,2.364l0.716,0.088l3.806-13.95
			l1.001,14.95l19.836-1.04c8.839-51.865-6.268-64.118-6.268-64.118l-26.909,5.415c-12.187,20.714-9.287,44.793-9.287,44.793
			L179.549,308.071z"/>
		<path style="opacity:0.2;enable-background:new    ;" d="M198.06,310.435l0.716,0.088l3.806-13.95c0,0-8.162-13.94-5.611-21.199
			C196.608,275.885,187.818,288.922,198.06,310.435z"/>
		<g>
			<path style="fill:#407BFF;" d="M153.973,214.036l0.99-3.087l-5.4-1.732l-0.99,3.087c-0.266,0.831-0.871,1.51-1.665,1.871l0,0
				c-0.794,0.361-1.399,1.04-1.665,1.871l-5.689,17.737c-0.277,0.862,0.198,1.785,1.06,2.062l6.142,1.97
				c0.862,0.277,1.785-0.198,2.062-1.06l5.689-17.736c0.266-0.831,0.169-1.735-0.267-2.491l0,0
				C153.803,215.771,153.706,214.867,153.973,214.036z"/>
			<path style="opacity:0.2;enable-background:new    ;" d="M153.973,214.036l0.99-3.087l-5.4-1.732l-0.99,3.087
				c-0.266,0.831-0.871,1.51-1.665,1.871l0,0c-0.794,0.361-1.399,1.04-1.665,1.871l-5.689,17.737
				c-0.277,0.862,0.198,1.785,1.06,2.062l6.142,1.97c0.862,0.277,1.785-0.198,2.062-1.06l5.689-17.736
				c0.266-0.831,0.169-1.735-0.267-2.491l0,0C153.803,215.771,153.706,214.867,153.973,214.036z"/>
			<path style="opacity:0.5;fill:#FFFFFF;enable-background:new    ;" d="M153.138,223.28l1.367-4.263
				c0.266-0.831,0.17-1.735-0.266-2.49c-0.436-0.756-0.533-1.66-0.267-2.491l0.99-3.087l-5.4-1.732l-0.99,3.087
				c-0.266,0.831-0.871,1.51-1.665,1.871c-0.794,0.361-1.399,1.04-1.666,1.871l-1.367,4.263L153.138,223.28z"/>
			<path style="opacity:0.6;fill:#FFFFFF;enable-background:new    ;" d="M141.885,226.51l-2.332,7.272
				c-0.277,0.862,0.198,1.785,1.06,2.062l6.142,1.97c0.862,0.277,1.785-0.198,2.062-1.06l2.332-7.272L141.885,226.51z"/>
			<path style="fill:#407BFF;" d="M154.44,212.524l-5.368-1.722c-0.277-0.089-0.43-0.386-0.341-0.663l0.456-1.422
				c0.089-0.277,0.386-0.43,0.663-0.341l5.369,1.722c0.277,0.089,0.43,0.386,0.341,0.663l-0.456,1.422
				C155.015,212.46,154.718,212.613,154.44,212.524z"/>
		</g>
		<g>
			<path style="fill:#407BFF;" d="M251.67,182.808l-0.202-3.235l-5.66,0.354l0.202,3.235c0.055,0.871-0.261,1.724-0.869,2.349l0,0
				c-0.608,0.625-0.924,1.478-0.87,2.349l1.623,25.939c0.056,0.904,0.835,1.59,1.739,1.534l6.438-0.403
				c0.904-0.057,1.59-0.835,1.534-1.739l-1.623-25.939c-0.055-0.871-0.474-1.678-1.156-2.222l0,0
				C252.144,184.485,251.725,183.678,251.67,182.808z"/>
			<path style="opacity:0.6;fill:#FFFFFF;enable-background:new    ;" d="M254.491,195.395l-0.51-8.142
				c-0.055-0.871-0.474-1.678-1.155-2.222c-0.682-0.545-1.101-1.352-1.156-2.222l-0.202-3.235l-5.66,0.354l0.202,3.235
				c0.054,0.871-0.261,1.724-0.869,2.349c-0.608,0.625-0.924,1.478-0.87,2.349l0.51,8.142L254.491,195.395z"/>
			<path style="opacity:0.6;fill:#FFFFFF;enable-background:new    ;" d="M245.418,206.177l0.477,7.622
				c0.057,0.904,0.835,1.59,1.739,1.534l6.438-0.403c0.904-0.057,1.59-0.835,1.534-1.739l-0.477-7.622L245.418,206.177z"/>
			<path style="fill:#407BFF;" d="M251.555,181.229l-5.627,0.352c-0.291,0.018-0.541-0.203-0.559-0.493l-0.093-1.491
				c-0.018-0.291,0.203-0.541,0.493-0.559l5.627-0.352c0.291-0.018,0.541,0.203,0.559,0.493l0.093,1.491
				C252.066,180.96,251.846,181.211,251.555,181.229z"/>
		</g>
		<path style="fill:#EBB376;" d="M151.522,229.325c0,0-0.102-1.674,0-3.011c0.102-1.337-6.634-8.656-7.726-8.273
			c-1.092,0.383-3.459,5.066-2.731,6.639c0.728,1.572,6.008,6.305,7.282,6.67C149.621,231.713,151.522,229.325,151.522,229.325z"/>
		<path style="fill:#EBB376;" d="M175.27,219.635c0,0-2.972,15.091-6.255,18.133c-3.283,3.042-18.223-12.425-18.223-12.425
			l-2.943,3.144c0,0,14.731,19.44,22.632,16.122c7.901-3.318,14.191-20.942,14.191-20.942L175.27,219.635z"/>
		<g>
			<polygon style="fill:#407BFF;" points="176.802,213.435 171.776,225.114 183.012,232.797 190.786,225.114 			"/>
			<polygon style="opacity:0.2;fill:#FFFFFF;enable-background:new    ;" points="171.776,225.116 178.43,229.672 183.014,232.801 
				186.778,229.073 190.782,225.116 176.801,213.436 			"/>
			<path style="opacity:0.2;enable-background:new    ;" d="M178.43,229.672l4.583,3.129l3.764-3.728
				c-3.553-5.034-7.575-9.774-7.575-9.774S177.445,224.352,178.43,229.672z"/>
		</g>
		<path style="fill:#EBB376;" d="M221.795,211.072c0,0,10.179,11.531,14.548,12.501c4.369,0.97,9.467-19.921,9.467-19.921
			l4.126,1.23c0,0-2.913,24.216-11.408,25.337c-8.496,1.121-22.817-10.924-22.817-10.924L221.795,211.072z"/>
		<g>
			<path style="fill:#D58745;" d="M206.589,183.364c0,0,0.885,2.36,2.005,3.825c0,0-0.873,1.056-2.352,0.667L206.589,183.364z"/>
			<g>
				<path style="fill:#263238;" d="M207.716,181.189c0.048,0.699-0.292,1.291-0.757,1.323c-0.466,0.032-0.882-0.509-0.93-1.208
					c-0.048-0.699,0.292-1.291,0.757-1.323C207.252,179.95,207.669,180.491,207.716,181.189z"/>
				<path style="fill:#263238;" d="M206.594,180.029l1.479-0.7C208.074,179.329,207.404,180.66,206.594,180.029z"/>
			</g>
			
				<path style="fill:none;stroke:#263238;stroke-width:0.7247;stroke-linecap:round;stroke-linejoin:round;stroke-miterlimit:10;" d="
				M204.882,176.571c0,0,1.479-0.624,3.425,0.549"/>
			<path style="fill:none;stroke:#263238;stroke-width:0.5;stroke-linecap:round;stroke-linejoin:round;stroke-miterlimit:10;" d="
				M205.031,181.748c0,2.036,0.903,3.687,2.018,3.687c1.114,0,2.018-1.651,2.018-3.687c0-2.036-0.903-3.687-2.018-3.687
				C205.935,178.061,205.031,179.712,205.031,181.748z"/>
			<path style="fill:#EBB376;" d="M191.743,194.103c0.072,0.063,0.153,0.126,0.234,0.171c1.088,0.773,2.338,1.515,3.759,1.839
				c3.975,0.917,6.691,0.373,8.462-1.425c0.009,0,0.009,0,0.009,0c2.482-2.698,3.102-7.477,2.752-13.241
				c-0.153-2.644-0.531-4.944-1.259-6.733c-0.009-0.018-0.009-0.084-0.018-0.102c-0.036-0.072-0.063-0.173-0.099-0.244
				c-1.088-2.5-2.896-4.119-5.782-4.803c-0.998-0.234-2.131-0.365-3.408-0.383C185.152,169.064,183.129,187.682,191.743,194.103z"/>
			<path style="opacity:0.2;enable-background:new    ;" d="M191.977,194.273c1.088,0.773,2.338,1.358,3.759,1.682
				c3.975,0.917,6.691,0.243,8.462-1.583c-1.951,0.432-4.577,0.593-7.131-0.585C195.457,193.051,193.668,193.428,191.977,194.273z"
				/>
			<path style="fill:#EBB376;" d="M190.835,204.426c-0.692,3.201,3.453,4.505,3.453,4.505c6.78-2.896,8.039-6.502,8.039-6.502
				c-5.656-2.949-4.02-11.294-4.02-11.294l-1.151,0.567l-8.077,1.58c0,0,2.241,4.301,2.538,5.281c0,0.009,0.009,0.018,0.009,0.027
				C193.146,203.715,190.835,204.426,190.835,204.426z"/>
			<path style="fill:#263238;" d="M205.704,174.638c0,0,0.62,7.883-6.85,11.268c0,0-3.208,8.188-7.93,8.304
				c-6.438,0.158-12.112-9.003-9.882-18.333C183.935,163.779,202.265,162.795,205.704,174.638z"/>
			<path style="fill:#EBB376;" d="M202.637,183.643c-0.003-1.23-0.991-3.295-2.902-3.015c-1.978,0.29-3.075,5.167,1.787,6.256
				C202.219,187.042,202.642,186.209,202.637,183.643z"/>
			<path style="fill:#263238;" d="M191.977,166.26c0,0,7.52-1.902,11.677,1.122c4.854,3.531,6.695,7.184,0.948,12.854
				c0,0-12.627-4.093-16.824-3.226c-4.197,0.867-7.199,2.09-7.199,2.09C179.695,170.762,187.778,164.556,191.977,166.26z"/>
			
				<line style="fill:none;stroke:#263238;stroke-width:0.5;stroke-linecap:round;stroke-linejoin:round;stroke-miterlimit:10;" x1="209.067" y1="181.166" x2="201.524" y2="181.166"/>
			<path style="fill:#263238;" d="M186.413,170.945c0,0-7.78-6.479-14.333-1.766c-8.086,5.815,0.91,28.198,1.456,33.771
				c0.546,5.572-2.185,8.121-2.185,8.121s6.018,0.126,8.198-9.404c2.179-9.529-4.581-25.486,4.079-23.607L186.413,170.945z"/>
		</g>
		<g>
			<path style="fill:#407BFF;" d="M213.344,203.652c0,0-8.976-3.021-22.508,0.664c-13.533,3.685-14.029,9.123-14.029,9.123
				s8.574,18.332,9.923,39.086l35.26-1.243C221.988,251.282,226.193,221.991,213.344,203.652z"/>
			<path style="opacity:0.2;fill:#FFFFFF;enable-background:new    ;" d="M176.802,213.435c0,0,8.574,18.333,9.928,39.092
				l35.257-1.24c0,0,0.589-4.081,0.647-10.143c0.049-4.229-0.157-9.43-0.981-14.891c-1.177-7.681-3.6-15.881-8.309-22.6
				c0,0-8.976-3.017-22.504,0.666C177.302,208.002,176.802,213.435,176.802,213.435z"/>
		</g>
		<path style="opacity:0.2;enable-background:new    ;" d="M213.237,219.295c0,0,2.059,16.647,9.397,21.848
			c0.049-4.229-0.157-9.43-0.981-14.891L213.237,219.295z"/>
		<g>
			<path style="fill:#407BFF;" d="M213.344,203.652c10.47,4.296,18.266,12.809,18.266,12.809l-8.505,10.421
				c0,0-4.232-0.884-6.787-3.188C208.793,216.91,213.344,203.652,213.344,203.652z"/>
			<path style="opacity:0.2;fill:#FFFFFF;enable-background:new    ;" d="M213.344,203.652c10.47,4.296,18.266,12.809,18.266,12.809
				l-8.505,10.421c0,0-4.232-0.884-6.787-3.188C208.793,216.91,213.344,203.652,213.344,203.652z"/>
		</g>
		<path style="fill:#EBB376;" d="M245.548,204.679c0,0,0.102-1.674,0-3.011c-0.102-1.337,6.634-8.656,7.726-8.273
			c1.092,0.382,3.459,5.066,2.731,6.639c-0.728,1.572-6.008,6.305-7.282,6.67C247.449,207.067,245.548,204.679,245.548,204.679z"/>
	</g>
</g>
</svg>
