<?xml version="1.0" encoding="utf-8"?>
<!-- Generator: Adobe Illustrator 27.5.0, SVG Export Plug-In . SVG Version: 6.00 Build 0)  -->
<svg version="1.1" xmlns="http://www.w3.org/2000/svg" xmlns:xlink="http://www.w3.org/1999/xlink" x="0px" y="0px"
	 viewBox="0 0 500 500" style="enable-background:new 0 0 500 500;" xml:space="preserve">
<g id="Background_Complete">
	<g>
		<path style="fill:#EBEBEB;" d="M248.721,382.538l0.04-157.611l-53.918-0.011l-0.04,157.622H248.721z M243.266,345.749
			l-40.807-0.009l0.001-2.943l40.807,0.009L243.266,345.749z M243.19,338.096l-40.807-0.009l0.001-2.943l40.807,0.009
			L243.19,338.096z M243.114,330.443l-40.807-0.008l0.001-2.944l40.807,0.009L243.114,330.443z M243.038,322.79l-40.807-0.009
			l0.001-2.943l40.807,0.008L243.038,322.79z M242.962,315.138l-40.807-0.009l0.001-2.943l40.807,0.009L242.962,315.138z
			 M242.886,307.485l-40.807-0.009l0.001-2.943l40.807,0.009L242.886,307.485z M242.81,299.832l-40.807-0.009l0.001-2.943
			l40.807,0.009L242.81,299.832z M242.735,292.179l-40.807-0.009l0.001-2.943l40.807,0.009L242.735,292.179z M242.659,284.526
			l-40.807-0.008l0.001-2.944l40.807,0.009L242.659,284.526z M242.583,276.874l-40.807-0.009l0.001-2.943l40.807,0.008
			L242.583,276.874z M242.507,269.221l-40.807-0.009l0.001-2.943l40.807,0.009L242.507,269.221z M242.431,261.568l-40.807-0.009
			l0.001-2.943l40.807,0.009L242.431,261.568z M242.355,253.915l-40.807-0.008l0-2.943l40.807,0.009L242.355,253.915z
			 M242.279,246.263l-40.807-0.009l0.001-2.943l40.807,0.009L242.279,246.263z M201.397,235.658l40.807,0.008l-0.001,2.943
			l-40.807-0.008L201.397,235.658z"/>
		<path style="fill:#EBEBEB;" d="M256.603,382.538h74.679l-0.082-181.299l-12.98,0.005l-0.008-18.792l-11.379,0.004l-0.009-19.609
			l-11.113,0.004l-0.012-27.234l-3.734,0.001l0.012,27.234l-11.113,0.004l0.009,19.609l-11.38,0.004l0.008,18.791l-12.98,0.005
			L256.603,382.538z M316.464,215.838l5.365,0.012l-0.419,154.387l-5.365-0.012L316.464,215.838z M303.947,215.81l5.365,0.012
			l-0.419,154.386l-5.365-0.012L303.947,215.81z M291.43,215.782l5.365,0.012l-0.419,154.386l-5.364-0.012L291.43,215.782z
			 M278.913,215.753l5.364,0.012l-0.419,154.386l-5.364-0.012L278.913,215.753z M271.76,215.737l-0.419,154.387l-5.364-0.012
			l0.419-154.386L271.76,215.737z"/>
	</g>
	<g>
		<rect y="382.398" style="fill:#EBEBEB;" width="500" height="0.25"/>
		<rect x="416.779" y="398.494" style="fill:#EBEBEB;" width="33.122" height="0.25"/>
		<rect x="322.527" y="401.208" style="fill:#EBEBEB;" width="8.693" height="0.25"/>
		<rect x="396.586" y="389.208" style="fill:#EBEBEB;" width="19.192" height="0.25"/>
		<rect x="52.459" y="390.888" style="fill:#EBEBEB;" width="43.193" height="0.25"/>
		<rect x="104.556" y="390.888" style="fill:#EBEBEB;" width="6.333" height="0.25"/>
		<rect x="131.471" y="395.111" style="fill:#EBEBEB;" width="93.676" height="0.25"/>
		<path style="fill:#EBEBEB;" d="M237.014,337.8H43.915c-3.147,0-5.708-2.561-5.708-5.708V60.66c0-3.147,2.561-5.708,5.708-5.708
			h193.099c3.146,0,5.707,2.561,5.707,5.708v271.432C242.721,335.239,240.16,337.8,237.014,337.8z M43.915,55.203
			c-3.01,0-5.458,2.448-5.458,5.458v271.432c0,3.01,2.448,5.458,5.458,5.458h193.099c3.009,0,5.457-2.448,5.457-5.458V60.66
			c0-3.009-2.448-5.458-5.457-5.458H43.915z"/>
		<path style="fill:#EBEBEB;" d="M453.31,337.8H260.212c-3.147,0-5.707-2.561-5.707-5.708V60.66c0-3.147,2.561-5.708,5.707-5.708
			H453.31c3.148,0,5.708,2.561,5.708,5.708v271.432C459.019,335.239,456.458,337.8,453.31,337.8z M260.212,55.203
			c-3.009,0-5.457,2.448-5.457,5.458v271.432c0,3.01,2.448,5.458,5.457,5.458H453.31c3.01,0,5.458-2.448,5.458-5.458V60.66
			c0-3.009-2.448-5.458-5.458-5.458H260.212z"/>
	</g>
	<path style="fill:#E0E0E0;" d="M176.248,382.538l-4.203-22.091c-0.104-0.601-0.625-1.037-1.234-1.034h-1.635
		c-0.69,0-1.25-0.56-1.25-1.25v-1.723c0-0.69-0.56-1.25-1.25-1.25h-2.29c-0.691,0-1.253-0.561-1.253-1.253l-0.398-14.788
		c-0.004-0.142-0.038-0.282-0.099-0.41l-2.428-5.063h-0.181v-5.724c0-0.559-0.453-1.012-1.012-1.012h-0.314v-4.054h-0.266v4.054
		h-0.431c-0.559,0-1.012,0.453-1.012,1.012v0.257h-1.135v-0.257c0-0.559-0.453-1.012-1.012-1.012h-0.256v-4.054h-0.266v4.054h-0.488
		c-0.559,0-1.012,0.453-1.012,1.012v5.724h-0.181l-2.425,5.063c-0.061,0.128-0.095,0.268-0.099,0.411l-0.391,14.804
		c0,0.691-0.561,1.25-1.253,1.25h-1.63c-0.692,0-1.252-0.561-1.252-1.253v-39.647l-0.051,0.036v-3.347h-0.266v3.538l-12.408,8.892
		l-0.683,0.489v8.164c0,0.309-0.12,0.077-0.33,0.306l-9.932,5.704c-0.029,0.031-0.051,0.067-0.077,0.101v-4.078h-0.266v6.622h0.013
		v13.218c0,0.689-0.559,1.25-1.25,1.25h-1.346c-0.691,0-1.25-0.561-1.25-1.25v-6.558c0-0.689-0.564-1.253-1.253-1.253h-4.316
		c-0.692,0-1.253,0.561-1.253,1.253v6.547c0,0.69-0.56,1.25-1.25,1.25h-0.407c-0.692,0-1.252-0.561-1.252-1.253v-1.771
		c0-0.69-0.56-1.25-1.25-1.25h-4.358c-0.69,0-1.25,0.56-1.25,1.25v6.015c0,0.692-0.561,1.253-1.252,1.253h-2.659
		c-0.692-0.003-1.25,0.556-1.253,1.245c0,0.003,0,0.005,0,0.005v11.02c-0.003,0.691-0.564,1.25-1.255,1.25H82.253
		c-0.692,0-1.252-0.561-1.252-1.253v-3.002c0-0.689-0.558-1.25-1.25-1.25l-8.521,0.032c0,0-0.149,10.354-0.095,15.06H176.248z"/>
	<path style="fill:#F0F0F0;" d="M198.262,382.538c-11.602-5.792-43.837-21.655-49.715-22.085
		c-6.543-0.478-27.33,18.625-31.038,22.085H198.262z"/>
	<g>
		<path style="fill:#F0F0F0;" d="M370.143,125.858c-2.714-8.072-10.509-13.908-19.717-13.908c-9.208,0-17.003,5.836-19.717,13.908
			H370.143z"/>
		<path style="fill:#F0F0F0;" d="M418.932,125.858c-1.644-16.953-14.679-30.159-30.526-30.159
			c-15.847,0-28.882,13.207-30.526,30.159H418.932z"/>
		<path style="fill:#F0F0F0;" d="M447.332,125.858c-2.01-10.443-8.892-18.149-17.098-18.149s-15.088,7.707-17.098,18.149H447.332z"
			/>
	</g>
	<g>
		<path style="fill:#F0F0F0;" d="M92.257,131.773c-2.316-6.888-8.969-11.869-16.827-11.869s-14.511,4.981-16.826,11.869H92.257z"/>
		<path style="fill:#F0F0F0;" d="M133.893,131.773c-1.403-14.467-12.527-25.738-26.051-25.738s-24.648,11.271-26.05,25.738H133.893z
			"/>
		<path style="fill:#F0F0F0;" d="M158.129,131.773c-1.715-8.912-7.588-15.489-14.591-15.489s-12.876,6.577-14.591,15.489H158.129z"
			/>
	</g>
	<g>
		<path style="fill:#F0F0F0;" d="M206.409,97.794c-2.192-5.761-8.49-9.926-15.928-9.926c-7.438,0-13.736,4.165-15.928,9.926H206.409
			z"/>
		<path style="fill:#F0F0F0;" d="M228.212,97.794c-0.799-12.099-7.135-21.524-14.837-21.524c-7.702,0-14.038,9.425-14.837,21.524
			H228.212z"/>
		<path style="fill:#F0F0F0;" d="M245.485,97.794c-1.759-7.453-7.782-12.953-14.963-12.953c-7.181,0-13.204,5.5-14.963,12.953
			H245.485z"/>
	</g>
	<g>
		<path style="fill:#F0F0F0;" d="M235.394,156.797c-1.663-6.583-6.441-11.343-12.084-11.343s-10.421,4.76-12.085,11.343H235.394z"/>
		<path style="fill:#F0F0F0;" d="M260.31,156.797c-0.913-10.964-8.154-19.504-16.956-19.504c-8.802,0-16.043,8.541-16.956,19.504
			H260.31z"/>
		<path style="fill:#F0F0F0;" d="M274.216,156.797c-1.324-5.611-5.859-9.752-11.265-9.752c-5.406,0-9.941,4.141-11.265,9.752
			H274.216z"/>
	</g>
	<g>
		<g>
			<path style="fill:#E0E0E0;" d="M439.888,382.538l-0.138-51.327l-13.249,0.029l-0.07-25.841c-2.812,0.008-5.623,0.015-8.435,0.023
				c-1.277,8.617-2.553,17.234-3.829,25.851l-22.344,0.06l-0.07-25.841c-2.812,0.007-5.624,0.015-8.435,0.023
				c-1.276,8.617-2.553,17.234-3.829,25.851l-13.374,0.036l0.138,51.136H439.888z M373.594,373.559l-0.007-2.678l55.699-0.15
				l0.007,2.678L373.594,373.559z M429.537,339.935l0.007,2.678l-55.698,0.15l-0.007-2.678L429.537,339.935z M429.486,346.095
				l0.007,2.678l-55.699,0.15l-0.007-2.678L429.486,346.095z M429.436,352.254l0.007,2.678l-55.698,0.15l-0.007-2.678
				L429.436,352.254z M429.386,358.413l0.007,2.678l-55.699,0.15l-0.007-2.678L429.386,358.413z M429.336,364.572l0.007,2.678
				l-55.698,0.15l-0.007-2.678L429.336,364.572z"/>
		</g>
		<path style="fill:#E0E0E0;" d="M389.824,304.441c-0.694-0.591-1.185-1.346-0.735-2.416c0.66-1.568,3.078-1.713,3.675-3.327
			c0.852-2.305-2.485-2.034-2.988-3.805c-0.468-1.646,3.732-1.403,3.768-3.422c0.012-0.642-0.757-0.901-0.645-1.65
			c0.114-0.759,1.443-1.648,2.079-1.995c-1.618,0.403-3.691,0.405-3.55,2.409c0.093,1.32,0.541,1.884-1.125,2.444
			c-1.323,0.445-3.384,0.017-3.488,1.884c-0.101,1.817,1.75,1.716,2.663,2.778c1.057,1.229-0.099,2.711-1.385,3.363
			c-1.45,0.734-3.038,0.454-3.289,2.452c-0.059,0.471-0.01,0.892,0.114,1.284H389.824z"/>
		<path style="fill:#E0E0E0;" d="M419.729,304.441h5.128c-0.335-0.362-0.582-0.746-0.537-1.449c0.1-1.555,1.429-1.625,2.125-2.703
			c1.713-2.657-3.754-2.19-2.61-4.605c0.44-0.928,2.648-1.124,2.902-1.947c0.307-0.996-1.464-0.977-1.936-1.784
			c-1.373-2.347,4.347-2.063,4.22-4.241c-0.04-0.688-0.882-0.886-0.847-1.679c0.049-1.114,1.457-1.462,2.255-1.907
			c-1.027,0.256-3.23,0.148-3.734,1.33c-0.555,1.303,1.109,1.627-0.406,3.053c-0.918,0.864-4.357,0.979-4.02,2.792
			c0.224,1.205,2.313,0.884,1.943,2.441c-0.423,1.78-3.595,0.574-3.969,2.28c-0.464,2.12,3.488,1.111,4.052,2.39
			c0.932,2.113-3.887,2.77-4.765,3.375C418.174,302.72,418.822,303.665,419.729,304.441z"/>
	</g>
	<path style="fill:#F0F0F0;" d="M399.853,382.538c-12.775-4.027-95.264-29.859-107.485-29.374
		c-11.161,0.443-37.838,22.438-45.985,29.374H399.853z"/>
	<path style="fill:#EBEBEB;" d="M134.967,382.538c-17.221-5.944-62.904-21.474-71.305-21.899
		c-9.302-0.471-38.519,18.007-44.563,21.899H134.967z"/>
	<g>
		<g>
			<path style="fill:#E0E0E0;" d="M434.414,382.538h35.692c-4.603-7.695-4.773-19.937-4.577-25.42h-12.503
				c0.166,4.724,0.072,14.475-2.899,22.004c-2.086-6.093-2.107-13.557-1.968-17.132H437.93
				C438.095,366.28,438.003,376.144,434.414,382.538z"/>
			<path style="fill:#E0E0E0;" d="M452.256,353.7l14.045,0.004c0.201,0,0.363,0.163,0.363,0.363l-0.001,1.943
				c0,0.2-0.163,0.363-0.363,0.363l-0.741,0c0,0.001,0,0.002,0,0.004h-12.563c0-0.002,0-0.004,0-0.007c0,0,0,0,0,0l-0.741,0
				c-0.2,0-0.363-0.163-0.363-0.363l0-1.943C451.893,353.863,452.055,353.7,452.256,353.7z"/>
			<path style="fill:#E0E0E0;" d="M448.929,359.155l0,1.777c0,0.169-0.137,0.306-0.307,0.306l-0.429,0l0,0c0,0.004,0,0.008,0,0.012
				h-10.296c0-0.005-0.001-0.01-0.001-0.014l-0.429,0c-0.169,0-0.306-0.137-0.306-0.307l0-1.777c0-0.169,0.137-0.307,0.307-0.306
				l11.155,0.003C448.792,358.849,448.929,358.986,448.929,359.155z"/>
		</g>
		<path style="fill:#E0E0E0;" d="M450.801,336.608c-0.011-0.052-0.027-0.106-0.048-0.161c-0.341-0.918-1.613-0.541-2.13-1.259
			c0.065,0.29,0.069,0.483,0.366,0.637c0.242,0.125,0.506,0.154,0.714,0.35c0.917,0.86-0.719,1.412-1.234,1.764
			c-0.786,0.537-1.53,1.302-1.513,2.319c0.009,0.55,0.108,1.016-0.311,1.456c-0.969,1.016-3.061,0.657-3.469,2.315
			c-0.16,0.649-0.061,1.356,0.218,1.946c0.223,0.47,0.567,0.628,0.465,1.194c-0.321,1.782-2.591,1.479-3.477,2.53
			c-0.843,1,0.376,1.732,1.173,2.151c1.055,0.556,2.37,1.398,1.332,2.7c-0.682,0.855-1.778,1.182-2.592,1.866
			c-0.581,0.489-1.045,1.052-1.333,1.726h8.236c-0.193-0.746-0.898-1.242-1.179-1.965c-0.266-0.683,0.033-1.414,0.387-1.983
			c0.368-0.592,0.685-1.336-0.029-1.785c-0.519-0.326-1.21-0.283-1.786-0.418c-0.715-0.168-1.28-0.475-1.772-1.019
			c0.196-1.565,5.963-1.306,4.33-3.38c-0.641-0.814-3.385-1.399-1.967-2.793c0.716-0.704,1.845-0.824,2.664-1.379
			c0.519-0.352,0.712-0.839,0.617-1.457c-0.086-0.558-0.472-1.087-0.396-1.658c0.064-0.487,0.12-0.923,0.476-1.299
			c0.25-0.264,0.515-0.469,0.828-0.65C449.968,338.006,450.985,337.448,450.801,336.608z"/>
		<path style="fill:#E0E0E0;" d="M464.34,352.899c-0.919-0.589-1.826-1.163-2.464-2.087c-0.357-0.517-0.578-1.112-0.358-1.73
			c0.213-0.598,0.628-1.024,0.096-1.621c-0.38-0.426-0.992-0.546-1.325-1.022c-0.743-1.061,0.675-2.108,1.459-2.61
			c0.446-0.285,2.652-1.048,1.466-1.583c-0.633-0.285-2.063-0.285-0.979-1.194c0.791-0.663,2.182-0.847,2.84-1.683
			c0.466-0.593-0.023-0.793-0.323-1.289c-0.872-1.44,1.315-2.193,2.485-2.188c-1.413-0.675-4.128-0.45-3.76,1.509
			c0.047,0.253,0.246,0.815,0.187,1.056c-0.117,0.483-0.995,0.948-1.449,1.089c-1.357,0.421-2.815-0.484-3.582,1.123
			c-0.494,1.034,0.665,1.29,0.999,2.062c0.58,1.341-1.232,1.783-2.034,2.372c-1.112,0.817-0.132,1.23,0.711,1.484
			c1.06,0.319,1.537,0.989,0.887,2.009c-0.755,1.184-2.36,1.125-3.445,1.824c-0.887,0.572-1.444,1.498-1.343,2.479H464.34z"/>
	</g>
</g>
<g id="Background_Simple" style="display:none;">
	<g style="display:inline;">
		<path style="fill:#407BFF;" d="M248.802,91.252c-79.589,35.809-7.339,99.63-53.294,134.388
			c-45.954,34.758-170.9-5.424-123.27,84.834c55.949,106.021,300.954,91.299,353.78-38.743
			C478.845,141.689,328.392,55.443,248.802,91.252z"/>
		<path style="opacity:0.9;fill:#FFFFFF;" d="M248.802,91.252c-79.589,35.809-7.339,99.63-53.294,134.388
			c-45.954,34.758-170.9-5.424-123.27,84.834c55.949,106.021,300.954,91.299,353.78-38.743
			C478.845,141.689,328.392,55.443,248.802,91.252z"/>
	</g>
</g>
<g id="Shadow_1_">
	<ellipse id="_x3C_Path_x3E__359_" style="fill:#F5F5F5;" cx="250" cy="416.238" rx="209.608" ry="11.323"/>
	<ellipse id="_x3C_Path_x3E__1_" style="fill:#F5F5F5;" cx="389.754" cy="432.661" rx="62.703" ry="9.178"/>
</g>
<g id="Sun">
	<g>
		<circle style="fill:#407BFF;" cx="304.601" cy="89.222" r="15.386"/>
	</g>
</g>
<g id="Speech_bubble_1">
	<path style="fill:#407BFF;" d="M41.171,195.46h25.873c4.4,0,7.967,3.567,7.967,7.967v22.517c0,4.4-3.567,7.967-7.967,7.967h-3.799
		l0.024,8.011l-5.383-8.011H41.171c-4.4,0-7.967-3.567-7.967-7.967v-22.517C33.204,199.027,36.771,195.46,41.171,195.46z"/>
	<path style="opacity:0.7;fill:#FFFFFF;" d="M41.171,195.46h25.873c4.4,0,7.967,3.567,7.967,7.967v22.517
		c0,4.4-3.567,7.967-7.967,7.967h-3.799l0.024,8.011l-5.383-8.011H41.171c-4.4,0-7.967-3.567-7.967-7.967v-22.517
		C33.204,199.027,36.771,195.46,41.171,195.46z"/>
	<g>
		<path style="fill:#407BFF;" d="M64.436,217.418c-0.001,0.006-0.002,0.011-0.003,0.017
			C64.435,217.43,64.435,217.424,64.436,217.418z"/>
		<path style="fill:#407BFF;" d="M44.677,215.927c-0.006-0.134-0.01-0.269-0.01-0.405C44.668,215.657,44.671,215.792,44.677,215.927
			z"/>
		<path style="fill:#407BFF;" d="M59.226,205.199c0.039-0.046,0.078-0.093,0.116-0.14C59.304,205.105,59.266,205.151,59.226,205.199
			z"/>
		<path style="fill:#407BFF;" d="M46.469,209.728c-0.12,0.171-0.237,0.346-0.347,0.527c-0.995,1.632-1.464,3.44-1.456,5.224
			c0.001-2.137,0.678-4.118,1.827-5.743C46.485,209.733,46.477,209.731,46.469,209.728z"/>
		<path style="fill:#407BFF;" d="M64.627,215.482c0,0.506-0.039,1.003-0.112,1.49c0.194-1.277,0.136-2.571-0.156-3.81
			c-0.004-0.009-0.006-0.019-0.007-0.026c-0.13-0.55-0.307-1.089-0.531-1.609c-0.17-0.402-0.367-0.791-0.591-1.168
			c-0.804-1.361-1.942-2.55-3.383-3.429c-0.374-0.227-0.757-0.425-1.146-0.598c-0.007,0.008-0.014,0.017-0.021,0.025
			C62.179,207.909,64.627,211.414,64.627,215.482z"/>
		<path style="fill:#407BFF;" d="M54.771,210.151c-0.113,0.067-0.145,0.123-0.05,0.213c0.225,0.212,0.398,0.447-0.132,0.283
			c-0.397-0.123-0.212-0.223-0.179-0.35c0.033-0.127-0.116-0.099-0.239-0.059c-0.123,0.04-0.312,0.067-0.35-0.005
			c-0.018-0.034-0.033-0.074-0.101-0.104c-0.29-0.129-0.419,0.127-0.224,0.246c0.112,0.068,0.171,0.083,0.124,0.143
			c-0.047,0.059-0.191,0.045-0.316,0.082c-0.4,0.12-1.084,0.795-1.324,1.045c-0.133,0.139-0.146,0.377-0.24,0.473
			c-0.155,0.157-0.425,0.21-0.571,0.375c-0.259,0.292-2.28,0.212-2.545,1.079c-0.297,0.97,0.473,0.722,1.015,0.412
			c0.114-0.065,0.242-0.022,0.235,0.109c-0.004,0.074-0.023,0.145-0.055,0.214c-0.055,0.119-0.025,0.185,0.105,0.205
			c0.394,0.061,0.32,0.364,0.35,0.829c0.02,0.295,0.746,0.209,0.909,0.02c0.266-0.309,0.656-0.54,0.974-0.097
			c0.117,0.163,0.352,0.197,0.511,0.119c0.118-0.058,0.261-0.149,0.359-0.062c0.184,0.165,0.201,0.431,0.431,0.566
			c0.2,0.117,0.504-0.133,0.641,0.106c0.112,0.195,0.141,0.722,0.291,0.779c0.302,0.115,0.515,0.207,0.834,0.21
			c0.498,0.005,1.148,0.354,1.058,0.837c-0.039,0.211-0.379,0.337-0.403,0.565c-0.034,0.33-0.068,0.661-0.103,0.992
			c-0.055,0.532-0.874,0.156-1.072,0.636c-0.124,0.301,0.229,0.453-0.018,0.769c-0.161,0.206-0.351,0.406-0.476,0.636
			c-0.198,0.363-0.609,0.416-0.883,0.573c-0.114,0.065-0.048,0.121,0.008,0.24c0.031,0.066,0.024,0.158-0.08,0.258
			c-0.153,0.148-0.07,0.232,0.064,0.269c0.127,0.035,0.199,0.122,0.17,0.25c-0.047,0.206-0.033,0.372,0.156,0.532
			c0.401,0.338-0.033,0.457-0.402,0.338c-0.889-0.286-0.822-1.297-0.916-1.955c-0.022-0.154-0.307-0.277-0.323-0.431
			c-0.021-0.195,0.083-0.463,0.117-0.656c0.033-0.185-0.178-0.025-0.178-0.173c0-0.249,0-0.499,0-0.749
			c0-0.657,0.079-0.756-0.468-1.137c-0.349-0.243-0.314-0.275-0.579-0.607c-0.396-0.495-0.512-0.566-0.486-1.152
			c0.024-0.546,0.528-0.508,0.466-1.01c-0.072-0.592-0.498-0.064-0.8-0.407c-0.337-0.384-0.516-0.43-0.889-0.673
			c-0.007-0.005-0.081-0.068-0.148-0.133c-0.079-0.077-0.188-0.154-0.294-0.137c-0.107,0.018-0.205,0.042-0.331,0.007
			c-0.4-0.112-0.571-0.113-0.856-0.55c-0.109-0.167,0.145-0.226,0.044-0.374c-0.145-0.212-0.291-0.424-0.436-0.636
			c-0.124-0.181-0.045-0.41-0.12-0.526c-0.071-0.11-0.204,0.031-0.163,0.156c0.135,0.419,0.481,1.085,0.185,1.039
			c-0.465-0.072-0.515-0.704-0.52-1.148c-0.001-0.131-0.119-0.244-0.208-0.34c-0.005-0.005-0.01-0.011-0.015-0.017
			c-0.081-0.103-0.108-0.124-0.154-0.002c-0.381,1.001-0.59,2.087-0.59,3.221c0,5.01,4.064,9.069,9.07,9.069
			c2.886,0,5.457-1.347,7.118-3.447c0.081-0.103,0.077-0.104-0.025-0.023c-0.106,0.084-0.179,0.093-0.179-0.044
			c0-0.462-0.024-0.552-0.298-0.921c-0.161-0.216,0.003-0.562-0.055-0.814c-0.058-0.254-0.448-0.28-0.257-0.644
			c0.149-0.285,0.368-0.477,0.206-0.765c-0.059-0.103-0.523-1.112-0.608-1.552c-0.024-0.129-0.062-0.216-0.185-0.261
			c-0.216-0.08-0.424-0.209-0.581-0.209c-0.354,0-0.47,0.185-0.837,0.185c-0.836,0-0.857-0.055-1.501-0.789
			c-0.269-0.306-0.165-0.742-0.027-1.081c0.049-0.121-0.019-0.217-0.125-0.295c-0.257-0.19,0.404-0.58,0.629-0.742
			c0.428-0.309,0.158-0.664,0.575-0.896c0.489-0.271,1.352-0.315,1.99-0.356c0.131-0.009,0.196,0.086,0.202,0.217
			c0.019,0.404,0.519,0.49,0.934,0.571c0.129,0.025,0.183-0.089,0.291-0.164c0.188-0.129,0.725,0.028,1.14,0.133
			c0.127,0.032,0.199-0.047,0.156-0.17c-0.034-0.096-0.069-0.191-0.105-0.286c-0.048-0.122-0.202-0.221-0.312-0.293
			c-0.128-0.083-0.212-0.231-0.241-0.4c-0.023-0.129-0.112-0.201-0.203-0.107c-0.077,0.079-0.127,0.18-0.155,0.293
			c-0.031,0.127-0.122,0.177-0.202,0.073c-0.279-0.364-0.327-0.998-0.838-1.027c-0.131-0.008-0.231,0.135-0.167,0.248
			c0.093,0.166,0.263,0.248,0.432,0.352c0.112,0.069,0.167,0.244,0.096,0.354c-0.1,0.153-0.255,0.27-0.41,0.174
			c-0.111-0.069-0.054-0.161,0.059-0.201c0.113-0.04,0.113-0.136,0-0.203c-0.177-0.105-0.354-0.209-0.47-0.36
			c-0.08-0.104-0.158-0.109-0.271-0.043c-0.196,0.115-0.397-0.001-0.586,0.245c-0.134,0.174-0.333,0.608-0.528,0.626
			c-0.221,0.02-0.663,0.097-0.831-0.105c-0.145-0.174-0.115-0.723,0.13-0.777c0.281-0.062,0.392-0.057,0.676,0
			c0.138,0.028,0.148-0.001,0.144-0.056c-0.007-0.106-0.074-0.183-0.124-0.304c-0.055-0.135-0.053-0.325,0.153-0.357
			c0.586-0.092,0.649-0.561,1.226-0.562c0.131,0,0.244-0.08,0.227-0.203c-0.018-0.124-0.134-0.17-0.243-0.141
			c-0.11,0.029-0.229-0.027-0.315-0.126c-0.174-0.202-0.387-0.301-0.091-0.586c0.041-0.033,0.086-0.057,0.132-0.076
			c0.078-0.032,0.064-0.121-0.038-0.204c-0.69-0.56-1.465-1.02-2.301-1.359c-0.864,0.925-1.978,1.856-3.35,2.519
			C54.829,209.833,54.941,210.05,54.771,210.151z"/>
		<path style="fill:#407BFF;" d="M44.098,206.228c0,0-0.178,1.476,0.752,3.244c0.01,0.004,0.017,0.006,0.017,0.006
			c3.155-3.796-0.079-7.453-0.079-7.453c-0.629,1.418-2.837,2.658-2.078,5.201c0.259,0.871,0.824,1.516,1.385,1.842
			C43.971,208.806,43.416,207.555,44.098,206.228z"/>
		<path style="fill:#407BFF;" d="M64.49,210.511c-0.015-0.031-0.031-0.063-0.046-0.092c-0.287-0.559-0.62-1.096-1.004-1.604
			c-0.811-1.079-1.837-2.024-3.057-2.768c-0.343-0.209-0.691-0.395-1.046-0.561c-0.186,0.267-0.398,0.551-0.636,0.845
			c0.389,0.172,0.772,0.371,1.146,0.598c1.441,0.88,2.579,2.068,3.383,3.429c0.224,0.378,0.42,0.767,0.591,1.168
			c0.224,0.52,0.402,1.059,0.531,1.609c0.002,0.007,0.004,0.017,0.007,0.026c0.293,1.239,0.351,2.533,0.156,3.81
			c-0.023,0.149-0.049,0.298-0.078,0.447c-0.001,0.006-0.002,0.011-0.003,0.017c-0.223,1.108-0.639,2.197-1.261,3.217
			c-2.637,4.323-8.056,5.933-12.567,3.931c-0.393-0.174-0.78-0.376-1.155-0.605c-2.932-1.788-4.616-4.855-4.772-8.051
			c-0.007-0.135-0.009-0.27-0.01-0.405c0-0.014-0.001-0.028-0.001-0.042c-0.008-1.785,0.461-3.592,1.456-5.224
			c0.11-0.181,0.227-0.356,0.347-0.527c0.18-0.257,0.37-0.505,0.571-0.741c0.033-0.041,0.069-0.08,0.104-0.119
			c5.312,1.672,9.053-0.622,11.18-2.698c0.039,0.015,0.855-0.917,0.902-0.972c0.04-0.048,0.078-0.094,0.116-0.14
			c0.466-0.564,0.781-1.035,0.945-1.296c0.088-0.141,0.133-0.222,0.133-0.222c-3.076-0.239-6.871-3.551-11.136-0.437
			c-1.149,0.839-1.909,1.938-2.298,2.987c0.389-1.045,1.148-2.14,2.295-2.976c4.262-3.107,8.056,0.199,11.132,0.434
			c0,0-0.003,0.006-0.008,0.014c-1.084,0.612-3.54,1.012-5.157,0.898c-1.895-0.133-4.103,0.555-4.039,0.534
			c-0.005,0-0.01,0.001-0.015,0.001c-0.086,0.027-0.172,0.058-0.257,0.09c-0.156,0.054-0.311,0.113-0.465,0.176
			c-2.105,0.857-3.963,2.37-5.235,4.455c-0.063,0.104-0.124,0.207-0.181,0.311c-0.031,0.057-0.063,0.113-0.093,0.171
			c-0.048,0.087-0.094,0.172-0.139,0.261c-0.913,1.754-1.372,3.818-1.239,5.903c0.007,0.122,0.017,0.242,0.028,0.365
			c0.411,3.246,2.24,6.286,5.244,8.117c0.065,0.039,0.128,0.078,0.194,0.117c0.993,0.578,2.041,0.985,3.107,1.228
			c0.117,0.028,0.233,0.054,0.35,0.076c0.937,0.183,1.889,0.242,2.827,0.182c0.115-0.006,0.231-0.015,0.348-0.028
			c0.117-0.011,0.233-0.024,0.35-0.039c0.041-0.004,0.082-0.009,0.122-0.017c0.181-0.024,0.363-0.054,0.542-0.089
			c2.953-0.563,5.668-2.32,7.353-5.084C66.103,217.829,66.134,213.796,64.49,210.511z"/>
		<path style="fill:#407BFF;" d="M46.948,206.741c-0.001,0.001-0.002,0.002-0.003,0.003
			C46.946,206.743,46.947,206.742,46.948,206.741z"/>
		<path style="fill:#407BFF;" d="M47.088,206.617c0,0.001-0.001,0.001-0.001,0.001C47.086,206.618,47.087,206.617,47.088,206.617z"
			/>
		<path style="fill:#407BFF;" d="M55.249,204.461c1.617,0.113,4.073-0.287,5.157-0.898c0.005-0.008,0.008-0.014,0.008-0.014
			c-3.076-0.236-6.871-3.541-11.132-0.434c-1.147,0.836-1.906,1.931-2.295,2.976c-0.106,0.285-0.186,0.567-0.237,0.839
			c0.046-0.046,0.111-0.109,0.195-0.186c0.001-0.001,0.002-0.002,0.003-0.003c0.042-0.038,0.088-0.079,0.138-0.123
			c0,0,0.001-0.001,0.001-0.001c0.67-0.578,2.117-1.597,4.108-1.62c0.005,0,0.01-0.001,0.015-0.001
			C51.147,205.016,53.354,204.328,55.249,204.461z"/>
	</g>
</g>
<g id="Speech_bubble_2">
	<path style="fill:#407BFF;" d="M402.816,211.22h-25.873c-4.4,0-7.967,3.567-7.967,7.967v22.518c0,4.4,3.567,7.967,7.967,7.967
		h10.233h5.407h5.178l2.627,8.463l2.629-8.473c4.306-0.108,7.766-3.625,7.766-7.957v-22.518
		C410.783,214.787,407.216,211.22,402.816,211.22z"/>
	<path style="opacity:0.7;fill:#FFFFFF;" d="M402.816,211.22h-25.873c-4.4,0-7.967,3.567-7.967,7.967v22.518
		c0,4.4,3.567,7.967,7.967,7.967h20.819l2.627,8.463l2.629-8.473c4.306-0.108,7.766-3.625,7.766-7.957v-22.518
		C410.783,214.787,407.216,211.22,402.816,211.22z"/>
	<path style="fill:#407BFF;" d="M380.333,222.085v0.424c0,0.491,0.395,0.89,0.881,0.89h17.331c0.486,0,0.881-0.399,0.881-0.89
		v-0.424c0-0.491-0.395-0.89-0.881-0.89h-5.01c-0.18-1.814-1.721-3.189-3.656-3.189c-1.935,0-3.475,1.374-3.655,3.189h-5.01
		C380.728,221.195,380.333,221.594,380.333,222.085z M391.797,221.195h-3.835c0.171-0.903,0.966-1.587,1.918-1.587
		C390.832,219.608,391.626,220.293,391.797,221.195z"/>
	<path style="fill:#407BFF;" d="M381.663,224.308c-0.115,0.122-0.174,0.279-0.165,0.444c0,0.001,0,0.003,0,0.004l1.348,17.118
		c0.04,0.67,0.412,1.011,1.105,1.011h11.894c0.778,0,0.975-0.351,1.066-1c0.001-0.004,0.001-0.008,0.001-0.011l1.348-17.118
		c0-0.001,0-0.003,0-0.005c0.009-0.164-0.049-0.322-0.165-0.444c-0.127-0.135-0.313-0.212-0.509-0.212h-15.416
		C381.976,224.096,381.79,224.174,381.663,224.308z M384.662,226.312c0.078-0.106,0.184-0.17,0.299-0.178l0.143-0.011
		c0.009-0.001,0.018-0.001,0.027-0.001c0.106,0,0.21,0.047,0.296,0.133c0.101,0.101,0.163,0.243,0.175,0.398l1.028,13.716
		c0.012,0.155-0.028,0.304-0.113,0.42c-0.078,0.106-0.184,0.169-0.299,0.178l-0.143,0.011c-0.115,0.009-0.23-0.038-0.323-0.132
		c-0.101-0.102-0.163-0.243-0.174-0.398l-1.028-13.716c0,0,0,0,0,0C384.537,226.576,384.578,226.427,384.662,226.312z
		 M389.808,226.107h0.144c0.247,0,0.456,0.259,0.456,0.566v13.754c0,0.306-0.209,0.565-0.456,0.565h-0.144
		c-0.247,0-0.456-0.259-0.456-0.565v-13.754C389.352,226.366,389.561,226.107,389.808,226.107z M393.03,240.365l1.075-13.712
		c0.023-0.294,0.236-0.529,0.471-0.529c0.009,0,0.018,0,0.028,0.001l0.143,0.011c0.115,0.009,0.221,0.073,0.299,0.179
		c0.084,0.116,0.124,0.265,0.112,0.42l-1.075,13.712c-0.024,0.306-0.252,0.547-0.499,0.528l-0.143-0.011h0
		C393.194,240.945,393.006,240.671,393.03,240.365z"/>
</g>
<g id="Garbage_can">
	<g id="Plastic">
		<g>
			<g>
				<g>
					<path style="fill:#407BFF;" d="M143.607,183.956l-1.102-3.042c-1.189-3.282-4.472-5.322-7.941-4.934l-22.906,2.56
						c-3.469,0.388-6.221,3.102-6.656,6.566l-1.946,15.497l5.169,46.248c0.6,5.364,5.434,9.227,10.798,8.627l49.4-5.522
						c5.364-0.6,9.227-5.434,8.627-10.798l-5.169-46.248l-0.892-7.976c-0.246-2.202-2.231-3.788-4.434-3.542L143.607,183.956z
						 M115.208,189.109l0.273-2.176c0.231-1.839,1.692-3.28,3.533-3.486l12.16-1.359c1.842-0.206,3.585,0.877,4.216,2.62
						l0.747,2.061c1.059,2.923-0.894,6.066-3.984,6.411l-11.645,1.302C117.42,194.828,114.821,192.193,115.208,189.109z"/>
				</g>
				<g style="opacity:0.6;">
					<path style="fill:#FFFFFF;" d="M143.607,183.956l-1.102-3.042c-1.189-3.282-4.472-5.322-7.941-4.934l-22.906,2.56
						c-3.469,0.388-6.221,3.102-6.656,6.566l-1.946,15.497l5.169,46.248c0.6,5.364,5.434,9.227,10.798,8.627l49.4-5.522
						c5.364-0.6,9.227-5.434,8.627-10.798l-5.169-46.248l-0.892-7.976c-0.246-2.202-2.231-3.788-4.434-3.542L143.607,183.956z
						 M115.208,189.109l0.273-2.176c0.231-1.839,1.692-3.28,3.533-3.486l12.16-1.359c1.842-0.206,3.585,0.877,4.216,2.62
						l0.747,2.061c1.059,2.923-0.894,6.066-3.984,6.411l-11.645,1.302C117.42,194.828,114.821,192.193,115.208,189.109z"/>
				</g>
				
					<rect x="150.624" y="179.624" transform="matrix(0.9938 -0.1111 0.1111 0.9938 -19.1184 18.7969)" style="fill:#3056CE;" width="17.02" height="2.707"/>
			</g>
			<path style="opacity:0.1;fill:#263238;" d="M114.45,246.154l-5.452-46.217l2.229-15.528c0.435-3.464,2.904-6.146,6.373-6.534
				l-5.942,0.664c-3.469,0.388-6.221,3.102-6.656,6.566l-1.946,15.497l5.169,46.248c0.6,5.364,5.434,9.227,10.798,8.627l5.659-0.632
				C119.318,255.444,115.049,251.518,114.45,246.154z"/>
			
				<rect x="102.975" y="197.266" transform="matrix(0.9938 -0.1111 0.1111 0.9938 -21.1368 16.5104)" style="opacity:0.1;fill:#263238;" width="69.254" height="1.359"/>
			
				<rect x="108.015" y="242.356" transform="matrix(0.9938 -0.1111 0.1111 0.9938 -26.1141 17.349)" style="fill:#899D9E;" width="69.254" height="1.359"/>
			
				<rect x="150.624" y="179.624" transform="matrix(0.9938 -0.1111 0.1111 0.9938 -19.1184 18.7969)" style="fill:#407BFF;" width="17.02" height="2.707"/>
			<path style="fill:#407BFF;" d="M159.978,173.138l-3.399,0.38c-2.756,0.308-4.741,2.792-4.433,5.548l0.147,1.313l13.379-1.495
				l-0.147-1.313C165.218,174.815,162.734,172.83,159.978,173.138z"/>
			
				<rect x="150.624" y="179.624" transform="matrix(0.9938 -0.1111 0.1111 0.9938 -19.1184 18.7969)" style="opacity:0.3;fill:#263238;" width="17.02" height="2.707"/>
			<path style="opacity:0.1;fill:#263238;" d="M159.978,173.138l-3.399,0.38c-2.756,0.308-4.741,2.792-4.433,5.548l0.147,1.313
				l13.379-1.495l-0.147-1.313C165.218,174.815,162.734,172.83,159.978,173.138z"/>
		</g>
		<g>
			<g>
				<path style="fill:#407BFF;" d="M162.888,254.342c-3.374-1.374-5.061-2.059-6.222-2.529c-0.806-0.326-3.064-1.236-3.064-1.236
					c-0.812-0.329-1.383-0.886-1.702-1.658c-0.806-1.948,0.295-4.587,0.342-4.698c0.057-0.139,5.866-14.245,6.489-16.022
					c0.481-1.372,4.328-6.758,6.578-9.845c0.685-0.939,1.253-1.962,1.688-3.038l1.242-3.065c0.364-0.899,0.565-1.846,0.597-2.816
					l0.031-0.953c0.051-1.556,0.36-3.082,0.919-4.535c2.013-5.24,5.504-14.199,6.263-15.326c0.98-1.456,9.062-5.181,10.516-5.843
					l0.766-1.892l9.12,3.693l-0.766,1.892c0.584,1.487,3.796,9.786,3.487,11.514c-0.24,1.339-3.967,10.201-6.167,15.364
					c-0.61,1.432-1.45,2.743-2.496,3.896l-0.641,0.706c-0.652,0.719-1.167,1.539-1.531,2.438l-1.241,3.065
					c-0.436,1.076-0.739,2.206-0.901,3.357c-0.533,3.784-1.518,10.329-2.127,11.648c-0.79,1.71-6.433,15.883-6.49,16.026
					c-0.042,0.109-1.087,2.771-3.022,3.609c-0.767,0.332-1.565,0.335-2.372,0.008c0,0-1.78-0.723-2.704-1.097
					C166.186,255.671,162.888,254.342,162.888,254.342z"/>
				<path style="opacity:0.8;fill:#FFFFFF;" d="M162.888,254.342c-3.374-1.374-5.061-2.059-6.222-2.529
					c-0.806-0.326-3.064-1.236-3.064-1.236c-0.812-0.329-1.383-0.886-1.702-1.658c-0.806-1.948,0.295-4.587,0.342-4.698
					c0.057-0.139,5.866-14.245,6.489-16.022c0.481-1.372,4.328-6.758,6.578-9.845c0.685-0.939,1.253-1.962,1.688-3.038l1.242-3.065
					c0.364-0.899,0.565-1.846,0.597-2.816l0.031-0.953c0.051-1.556,0.36-3.082,0.919-4.535c2.013-5.24,5.504-14.199,6.263-15.326
					c0.98-1.456,9.062-5.181,10.516-5.843l0.766-1.892l9.12,3.693l-0.766,1.892c0.584,1.487,3.796,9.786,3.487,11.514
					c-0.24,1.339-3.967,10.201-6.167,15.364c-0.61,1.432-1.45,2.743-2.496,3.896l-0.641,0.706c-0.652,0.719-1.167,1.539-1.531,2.438
					l-1.241,3.065c-0.436,1.076-0.739,2.206-0.901,3.357c-0.533,3.784-1.518,10.329-2.127,11.648
					c-0.79,1.71-6.433,15.883-6.49,16.026c-0.042,0.109-1.087,2.771-3.022,3.609c-0.767,0.332-1.565,0.335-2.372,0.008
					c0,0-1.78-0.723-2.704-1.097C166.186,255.671,162.888,254.342,162.888,254.342z"/>
				<path style="fill:#407BFF;" d="M195.976,184.779l-0.684,1.689c0,0,3.832,9.71,3.52,11.452
					c-0.241,1.342-4.297,10.953-6.143,15.286c-0.593,1.393-1.414,2.674-2.431,3.794l-0.641,0.706
					c-0.678,0.748-1.22,1.61-1.599,2.546l-1.242,3.065c-0.448,1.106-0.758,2.261-0.924,3.443c-0.465,3.305-1.49,10.232-2.097,11.546
					c-0.803,1.739-6.498,16.044-6.498,16.044s-1.803,4.676-4.918,3.414c-0.001-0.001-0.003-0.001-0.004-0.002
					c-0.849-0.345-1.77-0.719-2.691-1.092c-3.298-1.336-6.599-2.666-6.599-2.666c-3.371-1.372-5.058-2.058-6.219-2.528
					c-1.163-0.471-1.798-0.726-3.068-1.238c-0.002-0.001-0.003-0.001-0.004-0.002c-3.114-1.261-1.157-5.874-1.157-5.874
					s5.864-14.237,6.498-16.044c0.479-1.366,4.563-7.053,6.529-9.751c0.703-0.965,1.284-2.009,1.732-3.116l1.242-3.065
					c0.379-0.936,0.59-1.932,0.623-2.941l0.031-0.953c0.049-1.512,0.352-3.004,0.894-4.416c1.689-4.396,5.464-14.121,6.225-15.253
					c0.988-1.468,10.497-5.775,10.497-5.775l0.684-1.689l4.222,1.71L195.976,184.779 M196.925,184.377l-0.676-0.274l-4.222-1.71
					l-4.222-1.71l-0.676-0.274l-0.273,0.676l-0.575,1.419c-2.092,0.954-9.534,4.423-10.535,5.911
					c-0.739,1.099-3.834,8.98-6.301,15.398c-0.573,1.491-0.89,3.057-0.943,4.654l-0.031,0.953c-0.031,0.927-0.223,1.832-0.57,2.691
					l-1.242,3.066c-0.425,1.049-0.978,2.045-1.645,2.96c-2.763,3.791-6.155,8.593-6.627,9.939
					c-0.62,1.769-6.425,15.865-6.484,16.008c-0.047,0.11-1.204,2.886-0.341,4.973c0.358,0.866,0.997,1.49,1.898,1.855l1.034,0.417
					c0.684,0.275,1.235,0.498,2.038,0.823c1.161,0.47,2.847,1.156,6.218,2.528c0.003,0.001,3.304,1.331,6.601,2.666
					c0.921,0.373,1.842,0.746,2.69,1.091c0.906,0.367,1.799,0.363,2.659-0.009c2.073-0.898,3.172-3.697,3.218-3.816
					c0.054-0.136,5.694-14.299,6.479-16.001c0.597-1.293,1.502-7.103,2.157-11.75c0.158-1.122,0.453-2.222,0.878-3.271l1.242-3.065
					c0.348-0.859,0.84-1.643,1.463-2.33l0.641-0.706c1.074-1.183,1.936-2.529,2.562-3.998c2.695-6.324,5.956-14.137,6.19-15.443
					c0.316-1.765-2.615-9.435-3.453-11.576l0.575-1.419L196.925,184.377L196.925,184.377z"/>
				<path style="opacity:0.5;fill:#FFFFFF;" d="M195.976,184.779l-0.684,1.689c0,0,3.832,9.71,3.52,11.452
					c-0.241,1.342-4.297,10.953-6.143,15.286c-0.593,1.393-1.414,2.674-2.431,3.794l-0.641,0.706
					c-0.678,0.748-1.22,1.61-1.599,2.546l-1.242,3.065c-0.448,1.106-0.758,2.261-0.924,3.443c-0.465,3.305-1.49,10.232-2.097,11.546
					c-0.803,1.739-6.498,16.044-6.498,16.044s-1.803,4.676-4.918,3.414c-0.001-0.001-0.003-0.001-0.004-0.002
					c-0.849-0.345-1.77-0.719-2.691-1.092c-3.298-1.336-6.599-2.666-6.599-2.666c-3.371-1.372-5.058-2.058-6.219-2.528
					c-1.163-0.471-1.798-0.726-3.068-1.238c-0.002-0.001-0.003-0.001-0.004-0.002c-3.114-1.261-1.157-5.874-1.157-5.874
					s5.864-14.237,6.498-16.044c0.479-1.366,4.563-7.053,6.529-9.751c0.703-0.965,1.284-2.009,1.732-3.116l1.242-3.065
					c0.379-0.936,0.59-1.932,0.623-2.941l0.031-0.953c0.049-1.512,0.352-3.004,0.894-4.416c1.689-4.396,5.464-14.121,6.225-15.253
					c0.988-1.468,10.497-5.775,10.497-5.775l0.684-1.689l4.222,1.71L195.976,184.779 M196.925,184.377l-0.676-0.274l-4.222-1.71
					l-4.222-1.71l-0.676-0.274l-0.273,0.676l-0.575,1.419c-2.092,0.954-9.534,4.423-10.535,5.911
					c-0.739,1.099-3.834,8.98-6.301,15.398c-0.573,1.491-0.89,3.057-0.943,4.654l-0.031,0.953c-0.031,0.927-0.223,1.832-0.57,2.691
					l-1.242,3.066c-0.425,1.049-0.978,2.045-1.645,2.96c-2.763,3.791-6.155,8.593-6.627,9.939
					c-0.62,1.769-6.425,15.865-6.484,16.008c-0.047,0.11-1.204,2.886-0.341,4.973c0.358,0.866,0.997,1.49,1.898,1.855l1.034,0.417
					c0.684,0.275,1.235,0.498,2.038,0.823c1.161,0.47,2.847,1.156,6.218,2.528c0.003,0.001,3.304,1.331,6.601,2.666
					c0.921,0.373,1.842,0.746,2.69,1.091c0.906,0.367,1.799,0.363,2.659-0.009c2.073-0.898,3.172-3.697,3.218-3.816
					c0.054-0.136,5.694-14.299,6.479-16.001c0.597-1.293,1.502-7.103,2.157-11.75c0.158-1.122,0.453-2.222,0.878-3.271l1.242-3.065
					c0.348-0.859,0.84-1.643,1.463-2.33l0.641-0.706c1.074-1.183,1.936-2.529,2.562-3.998c2.695-6.324,5.956-14.137,6.19-15.443
					c0.316-1.765-2.615-9.435-3.453-11.576l0.575-1.419L196.925,184.377L196.925,184.377z"/>
			</g>
			<g>
				<path style="fill:#C1DEE1;" d="M154.142,250.401c2.148,0.872,2.466,1.004,2.466,1.004s1.04,0.419,2.535,1.023
					C157.346,251.698,156.244,251.25,154.142,250.401z"/>
				<path style="fill:#C1DEE1;" d="M167.249,255.71c0.003,0.001,0.006,0.001,0.008,0.003c-0.138-0.056-0.277-0.112-0.412-0.166
					C166.981,255.601,167.118,255.656,167.249,255.71z"/>
				<path style="opacity:0.1;fill:#263238;" d="M177.238,254.349c0,0,5.695-14.305,6.498-16.044
					c0.606-1.314,1.631-8.241,2.097-11.546c0.166-1.182,0.476-2.336,0.924-3.443l1.242-3.065c0.379-0.936,0.921-1.798,1.599-2.546
					l0.641-0.706c1.017-1.121,1.838-2.402,2.431-3.794c1.846-4.333,5.903-13.944,6.143-15.286
					c0.312-1.741-3.521-11.452-3.521-11.452l0.684-1.689l-1.52-0.616c0,0,0.953,10.51,0.641,12.251
					c-0.241,1.342-4.297,10.953-6.143,15.286c-0.593,1.392-1.414,2.673-2.431,3.794l-0.641,0.706
					c-0.678,0.748-1.22,1.61-1.599,2.546l-1.242,3.065c-0.448,1.106-0.758,2.261-0.924,3.443c-0.465,3.305-1.49,10.232-2.097,11.546
					c-0.803,1.739-6.498,16.044-6.498,16.044s-1.802,4.67-4.914,3.415c1.625,0.657,2.116,0.855,3.707,1.502
					C175.433,259.029,177.238,254.349,177.238,254.349z"/>
				<path style="fill:#C1DEE1;" d="M153.738,250.238c0.132,0.053,0.269,0.108,0.404,0.163c-0.135-0.055-0.273-0.111-0.411-0.167
					C153.734,250.235,153.736,250.237,153.738,250.238z"/>
				<path style="fill:#C1DEE1;" d="M159.142,252.428c1.493,0.607,3.883,1.576,3.883,1.576s1.671,0.673,3.821,1.542
					C164.746,254.693,160.941,253.154,159.142,252.428z"/>
			</g>
			<g>
				<path style="fill:#C1DEE1;" d="M157.454,251.743c0.132,0.053,0.269,0.108,0.404,0.163c-0.135-0.055-0.273-0.111-0.411-0.167
					C157.449,251.74,157.451,251.742,157.454,251.743z"/>
				<path style="fill:#C1DEE1;" d="M165.56,255.027c1.494,0.607,2.532,1.029,2.532,1.029s1.671,0.673,3.821,1.542
					C169.812,256.745,167.359,255.753,165.56,255.027z"/>
				<path style="fill:#C1DEE1;" d="M172.316,257.762c0.003,0.001,0.005,0.001,0.008,0.003c-0.138-0.056-0.277-0.112-0.411-0.166
					C172.047,257.653,172.184,257.708,172.316,257.762z"/>
				<path style="fill:#FFFFFF;" d="M156.293,245.867c0,0,5.864-14.236,6.498-16.044c0.479-1.366,4.563-7.053,6.529-9.751
					c0.703-0.965,1.284-2.009,1.732-3.116l1.242-3.065c0.379-0.936,0.59-1.932,0.623-2.941l0.031-0.953
					c0.05-1.513,0.351-3.004,0.894-4.416c1.689-4.396,5.464-14.121,6.225-15.253c0.988-1.468,10.336-7.805,10.336-7.805
					l-2.871-1.163l-0.684,1.689c0,0-9.509,4.307-10.497,5.775c-0.761,1.132-4.536,10.857-6.225,15.253
					c-0.543,1.413-0.845,2.904-0.894,4.416l-0.031,0.953c-0.033,1.009-0.244,2.005-0.623,2.941l-1.241,3.065
					c-0.448,1.106-1.029,2.151-1.732,3.116c-1.966,2.698-6.05,8.385-6.529,9.751c-0.634,1.807-6.498,16.044-6.498,16.044
					s-1.96,4.617,1.161,5.876c1.593,0.643,2.084,0.842,3.708,1.501C154.338,250.475,156.293,245.867,156.293,245.867z"/>
			</g>
			<path style="fill:#407BFF;" d="M197.448,183.379l1.119-2.763c0.618-1.526-0.118-3.264-1.644-3.882l-4.474-1.812
				c-1.526-0.618-3.264,0.118-3.882,1.644l-1.119,2.763l-1.006-0.407l-0.389,0.961l12.012,4.865l0.389-0.961L197.448,183.379z"/>
			<path style="opacity:0.5;fill:#FFFFFF;" d="M197.448,183.379l1.119-2.763c0.618-1.526-0.118-3.264-1.644-3.882l-4.474-1.812
				c-1.526-0.618-3.264,0.118-3.882,1.644l-1.119,2.763l-1.006-0.407l-0.389,0.961l12.012,4.865l0.389-0.961L197.448,183.379z"/>
			
				<rect x="185.053" y="185.319" transform="matrix(0.3754 -0.9269 0.9269 0.3754 -67.0403 295.7039)" style="fill:#FFFFFF;" width="1.637" height="24.544"/>
			
				<rect x="183.241" y="189.796" transform="matrix(0.3754 -0.9269 0.9269 0.3754 -72.3236 296.8141)" style="fill:#FFFFFF;" width="1.637" height="24.544"/>
			
				<rect x="181.428" y="194.272" transform="matrix(0.3754 -0.9269 0.9269 0.3754 -77.6048 297.9296)" style="fill:#FFFFFF;" width="1.637" height="24.544"/>
		</g>
		<g id="bin_3_">
			<polygon style="fill:#407BFF;" points="220.973,410.062 232.757,236.739 102.51,236.739 114.373,410.062 			"/>
			<path style="fill:#407BFF;" d="M234.477,236.739H100.79c-4.324,0-7.829-3.505-7.829-7.829v-1.53c0-4.324,3.505-7.829,7.829-7.829
				h133.687c4.324,0,7.829,3.505,7.829,7.829v1.53C242.306,233.234,238.8,236.739,234.477,236.739z"/>
			<polygon style="opacity:0.21;" points="231.552,250.235 232.757,236.739 102.51,236.739 103.715,250.235 			"/>
			<g>
				<g>
					<path style="fill:#FFFFFF;" d="M177.566,315.402c0,0,13.946,21.638,11.271,27.319c3.565-2.845,9.167-6.951,9.627-12.557
						c0.365-4.443-9.909-20.469-9.909-20.469L177.566,315.402z"/>
					<path style="fill:#FFFFFF;" d="M185.699,332.162c0,0,3.663,7.17,1.959,10.66h-9.872v3.378l-8.668-8.812l8.668-8.812v3.586
						H185.699z"/>
				</g>
				<g>
					<path style="fill:#FFFFFF;" d="M166.112,330.296c0,0-25.704,1.422-29.319-3.712c0.71,4.505,1.509,11.405,6.154,14.577
						c3.682,2.514,22.691,1.508,22.691,1.508L166.112,330.296z"/>
					<path style="fill:#FFFFFF;" d="M147.523,329.078c0,0-8.044-0.362-10.234-3.569l4.882-8.581l-2.936-1.67l11.946-3.177
						l3.373,11.892l-3.117-1.773L147.523,329.078z"/>
				</g>
				<g>
					<path style="fill:#FFFFFF;" d="M158.959,313.324c0,0,11.748-22.906,18.005-23.435c-4.247-1.662-10.607-4.455-15.69-2.046
						c-4.029,1.909-12.756,18.826-12.756,18.826L158.959,313.324z"/>
					<path style="fill:#FFFFFF;" d="M169.394,297.893c0,0,4.373-6.761,8.247-7.033l4.943,8.546l2.924-1.691l-3.288,11.915
						l-11.968-3.091l3.104-1.796L169.394,297.893z"/>
				</g>
			</g>
			<g>
				<polygon style="opacity:0.2;fill:#FFFFFF;" points="132.628,410.062 132.628,357.891 126.871,236.739 102.51,236.739 
					114.294,410.062 				"/>
				<polygon style="opacity:0.21;" points="220.966,410.062 232.757,236.739 208.409,236.739 202.815,360.564 202.815,410.062 				
					"/>
				<path style="opacity:0.2;fill:#FFFFFF;" d="M120.617,219.551h-20.062c-4.194,0-7.594,3.4-7.594,7.594v2.001
					c0,4.194,3.4,7.594,7.594,7.594h20.062V219.551z"/>
				<path style="opacity:0.21;" d="M214.96,236.739h19.752c4.194,0,7.594-3.4,7.594-7.594v-2.001c0-4.194-3.4-7.594-7.594-7.594
					H214.96V236.739z"/>
			</g>
		</g>
	</g>
</g>
<g id="Conveyor_belt">
	<g>
		<g>
			<path style="fill:#263238;" d="M263.369,193.334h-3.262v0.675c-2.919,1.263-4.963,4.166-4.963,7.549v212.394h16.449V201.559
				C271.593,197.016,267.911,193.334,263.369,193.334z"/>
			<path style="opacity:0.1;fill:#FFFFFF;" d="M263.369,193.334h-3.262v0.675c-2.919,1.263-4.963,4.166-4.963,7.549v212.394h16.449
				V201.559C271.593,197.016,267.911,193.334,263.369,193.334z"/>
			<path style="fill:#263238;" d="M268.331,413.952h-16.449v-212.86c0-4.284,3.473-7.758,7.758-7.758h0.934
				c4.284,0,7.758,3.473,7.758,7.758V413.952z"/>
			<path style="opacity:0.2;fill:#FFFFFF;" d="M268.331,413.952h-16.449v-212.86c0-4.284,3.473-7.758,7.758-7.758h0.934
				c4.284,0,7.758,3.473,7.758,7.758V413.952z"/>
		</g>
		<g>
			<g>
				<path style="fill:#263238;" d="M450.507,416.693v-23.729c0-4.542-3.682-8.224-8.224-8.224h-3.262v0.676
					c-2.919,1.263-4.962,4.166-4.962,7.549v23.729H450.507z"/>
				<path style="opacity:0.1;fill:#FFFFFF;" d="M450.507,416.693v-23.729c0-4.542-3.682-8.224-8.224-8.224h-3.262v0.676
					c-2.919,1.263-4.962,4.166-4.962,7.549v23.729H450.507z"/>
				<path style="fill:#263238;" d="M447.245,416.693v-23.729c0-4.542-3.682-8.224-8.224-8.224l0,0c-4.542,0-8.224,3.682-8.224,8.224
					v23.729H447.245z"/>
				<path style="opacity:0.2;fill:#FFFFFF;" d="M447.245,416.693v-23.729c0-4.542-3.682-8.224-8.224-8.224l0,0
					c-4.542,0-8.224,3.682-8.224,8.224v23.729H447.245z"/>
			</g>
			<g>
				<path style="fill:#263238;" d="M434.086,401.917h-66.248L184.483,195.122h64.099c4.083,0,7.988,1.671,10.807,4.624
					l180.37,188.909C444.525,393.647,440.987,401.917,434.086,401.917z"/>
				<path style="opacity:0.4;fill:#FFFFFF;" d="M434.086,401.917h-66.248L184.483,195.122h64.099c4.083,0,7.988,1.671,10.807,4.624
					l180.37,188.909C444.525,393.647,440.987,401.917,434.086,401.917z"/>
				<g>
					<rect x="302.991" y="314.347" style="opacity:0.2;" width="65.499" height="0.928"/>
					<rect x="267.458" y="276.95" style="opacity:0.2;" width="65.499" height="0.928"/>
					<rect x="231.925" y="239.553" style="opacity:0.2;" width="65.499" height="0.928"/>
					<rect x="196.393" y="202.156" style="opacity:0.2;" width="65.499" height="0.928"/>
					<rect x="339.629" y="351.664" style="opacity:0.2;" width="65.499" height="0.928"/>
				</g>
				<path style="fill:#263238;" d="M367.838,401.917L367.838,401.917c-2.223,0-4.35-0.91-5.885-2.518l-181.908-190.52
					c-4.944-5.178-1.274-13.756,5.885-13.756l0,0c2.223,0,4.35,0.91,5.885,2.518l181.908,190.52
					C378.667,393.338,374.997,401.917,367.838,401.917z"/>
				<path style="opacity:0.5;fill:#FFFFFF;" d="M367.838,401.917L367.838,401.917c-2.223,0-4.35-0.91-5.885-2.518l-181.908-190.52
					c-4.944-5.178-1.274-13.756,5.885-13.756l0,0c2.223,0,4.35,0.91,5.885,2.518l181.908,190.52
					C378.667,393.338,374.997,401.917,367.838,401.917z"/>
				<path style="fill:#407BFF;" d="M367.838,399.134c-1.455,0-2.867-0.603-3.873-1.657l-181.908-190.52
					c-1.528-1.6-1.92-3.769-1.05-5.803c0.87-2.034,2.71-3.248,4.922-3.248c1.456,0,2.867,0.604,3.873,1.657l181.908,190.52
					c1.528,1.6,1.92,3.77,1.05,5.803C371.89,397.919,370.051,399.134,367.838,399.134z"/>
				<path style="opacity:0.4;" d="M367.838,399.134c-1.455,0-2.867-0.603-3.873-1.657l-181.908-190.52
					c-1.528-1.6-1.92-3.769-1.05-5.803c0.87-2.034,2.71-3.248,4.922-3.248c1.456,0,2.867,0.604,3.873,1.657l181.908,190.52
					c1.528,1.6,1.92,3.77,1.05,5.803C371.89,397.919,370.051,399.134,367.838,399.134z"/>
				<g>
					<circle style="fill:#407BFF;" cx="185.559" cy="202.759" r="3.852"/>
					<path style="fill:#407BFF;" d="M225.945,241.084c0,2.127-1.725,3.852-3.852,3.852s-3.852-1.725-3.852-3.852
						c0-2.127,1.725-3.852,3.852-3.852S225.945,238.957,225.945,241.084z"/>
					<path style="fill:#407BFF;" d="M262.479,279.409c0,2.127-1.725,3.852-3.852,3.852s-3.852-1.725-3.852-3.852
						s1.725-3.852,3.852-3.852S262.479,277.282,262.479,279.409z"/>
					<circle style="fill:#407BFF;" cx="295.161" cy="317.735" r="3.852"/>
					<circle style="fill:#407BFF;" cx="331.695" cy="356.06" r="3.852"/>
					<path style="fill:#407BFF;" d="M372.081,394.385c0,2.127-1.725,3.852-3.852,3.852s-3.852-1.724-3.852-3.852
						c0-2.127,1.725-3.852,3.852-3.852S372.081,392.258,372.081,394.385z"/>
				</g>
				<g style="opacity:0.2;">
					<circle style="fill:#FFFFFF;" cx="185.559" cy="202.759" r="3.852"/>
					<path style="fill:#FFFFFF;" d="M225.945,241.084c0,2.127-1.725,3.852-3.852,3.852s-3.852-1.725-3.852-3.852
						c0-2.127,1.725-3.852,3.852-3.852S225.945,238.957,225.945,241.084z"/>
					<path style="fill:#FFFFFF;" d="M262.479,279.409c0,2.127-1.725,3.852-3.852,3.852s-3.852-1.725-3.852-3.852
						s1.725-3.852,3.852-3.852S262.479,277.282,262.479,279.409z"/>
					<circle style="fill:#FFFFFF;" cx="295.161" cy="317.735" r="3.852"/>
					<circle style="fill:#FFFFFF;" cx="331.695" cy="356.06" r="3.852"/>
					<path style="fill:#FFFFFF;" d="M372.081,394.385c0,2.127-1.725,3.852-3.852,3.852s-3.852-1.724-3.852-3.852
						c0-2.127,1.725-3.852,3.852-3.852S372.081,392.258,372.081,394.385z"/>
				</g>
				<rect x="376.051" y="392.176" style="opacity:0.2;" width="65.499" height="0.928"/>
			</g>
			<g>
				<g>
					<path style="fill:#263238;" d="M188.493,193.334h-3.262v0.675c-2.919,1.263-4.962,4.166-4.962,7.549v212.394h16.449V201.559
						C196.717,197.016,193.035,193.334,188.493,193.334z"/>
					<path style="opacity:0.1;fill:#FFFFFF;" d="M188.493,193.334h-3.262v0.675c-2.919,1.263-4.962,4.166-4.962,7.549v212.394
						h16.449V201.559C196.717,197.016,193.035,193.334,188.493,193.334z"/>
					<path style="fill:#263238;" d="M193.456,413.952h-16.449v-212.86c0-4.284,3.473-7.758,7.758-7.758h0.934
						c4.284,0,7.758,3.473,7.758,7.758V413.952z"/>
					<path style="opacity:0.2;fill:#FFFFFF;" d="M193.456,413.952h-16.449v-212.86c0-4.284,3.473-7.758,7.758-7.758h0.934
						c4.284,0,7.758,3.473,7.758,7.758V413.952z"/>
					<path style="opacity:0.5;fill:#FFFFFF;" d="M189.411,201.914c0,2.127-1.725,3.852-3.852,3.852
						c-2.127,0-3.852-1.725-3.852-3.852s1.725-3.852,3.852-3.852C187.687,198.063,189.411,199.787,189.411,201.914z"/>
				</g>
			</g>
			<g>
				<path style="fill:#263238;" d="M375.631,416.693v-23.729c0-4.542-3.682-8.224-8.225-8.224h-3.262v0.676
					c-2.919,1.263-4.962,4.166-4.962,7.549v23.729H375.631z"/>
				<path style="opacity:0.1;fill:#FFFFFF;" d="M375.631,416.693v-23.729c0-4.542-3.682-8.224-8.225-8.224h-3.262v0.676
					c-2.919,1.263-4.962,4.166-4.962,7.549v23.729H375.631z"/>
				<path style="fill:#263238;" d="M372.369,416.693v-23.729c0-4.542-3.682-8.224-8.224-8.224c-4.542,0-8.225,3.682-8.225,8.224
					v23.729H372.369z"/>
				<path style="opacity:0.2;fill:#FFFFFF;" d="M372.369,416.693v-23.729c0-4.542-3.682-8.224-8.224-8.224
					c-4.542,0-8.225,3.682-8.225,8.224v23.729H372.369z"/>
				<circle style="opacity:0.5;fill:#FFFFFF;" cx="364.473" cy="393.319" r="3.852"/>
			</g>
		</g>
	</g>
</g>
<g id="Trash">
	<g>
		<g>
			<path style="fill:#407BFF;" d="M342.283,273.488c-0.051-3.293-0.075-4.938-0.091-6.071c-0.011-0.786-0.037-2.986-0.037-2.986
				c-0.011-0.792-0.293-1.456-0.839-1.978c-1.376-1.318-3.961-1.255-4.07-1.252c-0.136,0.003-13.923,0.271-15.624,0.213
				c-1.314-0.044-7.111,1.43-10.45,2.313c-1.016,0.269-2.063,0.412-3.113,0.426l-2.989,0.041c-0.876,0.012-1.74-0.129-2.568-0.421
				l-0.813-0.286c-1.328-0.467-2.714-0.707-4.121-0.713c-5.074-0.022-13.765-0.019-14.963,0.251
				c-1.548,0.348-7.336,5.935-8.37,6.943l-1.845,0.025l0.121,8.893l1.845-0.025c1.061,0.979,6.999,6.407,8.556,6.712
				c1.207,0.237,9.894,0.003,14.964-0.157c1.406-0.044,2.786-0.322,4.101-0.825l0.805-0.309c0.819-0.313,1.679-0.478,2.555-0.49
				l2.989-0.041c1.05-0.014,2.1,0.101,3.123,0.341c3.362,0.792,9.199,2.108,10.509,2.027c1.7-0.104,15.489-0.211,15.628-0.212
				c0.106,0,2.691-0.007,4.031-1.362c0.531-0.537,0.795-1.208,0.784-1.996c0,0-0.025-1.736-0.038-2.637
				C342.321,276.701,342.283,273.488,342.283,273.488z"/>
			<path style="opacity:0.8;fill:#FFFFFF;" d="M342.283,273.488c-0.051-3.293-0.075-4.938-0.091-6.071
				c-0.011-0.786-0.037-2.986-0.037-2.986c-0.011-0.792-0.293-1.456-0.839-1.978c-1.376-1.318-3.961-1.255-4.07-1.252
				c-0.136,0.003-13.923,0.271-15.624,0.213c-1.314-0.044-7.111,1.43-10.45,2.313c-1.016,0.269-2.063,0.412-3.113,0.426
				l-2.989,0.041c-0.876,0.012-1.74-0.129-2.568-0.421l-0.813-0.286c-1.328-0.467-2.714-0.707-4.121-0.713
				c-5.074-0.022-13.765-0.019-14.963,0.251c-1.548,0.348-7.336,5.935-8.37,6.943l-1.845,0.025l0.121,8.893l1.845-0.025
				c1.061,0.979,6.999,6.407,8.556,6.712c1.207,0.237,9.894,0.003,14.964-0.157c1.406-0.044,2.786-0.322,4.101-0.825l0.805-0.309
				c0.819-0.313,1.679-0.478,2.555-0.49l2.989-0.041c1.05-0.014,2.1,0.101,3.123,0.341c3.362,0.792,9.199,2.108,10.509,2.027
				c1.7-0.104,15.489-0.211,15.628-0.212c0.106,0,2.691-0.007,4.031-1.362c0.531-0.537,0.795-1.208,0.784-1.996
				c0,0-0.025-1.736-0.038-2.637C342.321,276.701,342.283,273.488,342.283,273.488z"/>
			<path style="fill:#407BFF;" d="M272.836,278.552l-0.056-4.117l-0.056-4.117l1.647-0.022c0,0,6.746-6.598,8.306-6.949
				c1.203-0.27,10.632-0.261,14.89-0.243c1.368,0.006,2.723,0.24,4.014,0.695l0.813,0.286c0.861,0.303,1.769,0.452,2.682,0.439
				l2.989-0.041c1.079-0.015,2.149-0.161,3.192-0.437c2.917-0.771,9.047-2.347,10.355-2.302c1.73,0.059,15.646-0.213,15.646-0.213
				s4.528-0.136,4.569,2.9c0,0.001,0,0.003,0,0.004c0.015,1.238,0.022,1.856,0.037,2.99c0.015,1.132,0.04,2.778,0.09,6.068
				c0,0,0.038,3.218,0.082,6.433c0.012,0.898,0.025,1.797,0.037,2.625c0,0.001,0,0.003,0,0.004c0.041,3.038-4.488,3.024-4.488,3.024
				s-13.917,0.107-15.646,0.213c-1.306,0.08-7.476-1.328-10.413-2.019c-1.05-0.247-2.124-0.365-3.203-0.35l-2.989,0.041
				c-0.913,0.012-1.816,0.186-2.669,0.512l-0.805,0.308c-1.277,0.489-2.626,0.761-3.993,0.804
				c-4.255,0.135-13.681,0.401-14.891,0.163c-1.569-0.308-8.492-6.72-8.492-6.72L272.836,278.552 M272.187,279.22l0.659-0.009
				l1.384-0.019c1.529,1.408,7.028,6.392,8.619,6.704c1.177,0.231,8.827,0.045,15.038-0.151c1.443-0.046,2.859-0.33,4.208-0.847
				l0.805-0.308c0.783-0.3,1.605-0.457,2.442-0.469l2.989-0.041c1.023-0.014,2.047,0.098,3.043,0.333
				c4.128,0.972,9.32,2.114,10.605,2.036c1.691-0.104,15.471-0.211,15.603-0.212c0.115,0,2.833-0.008,4.27-1.46
				c0.596-0.602,0.892-1.353,0.88-2.237c-0.012-0.828-0.025-1.725-0.037-2.624c-0.044-3.215-0.082-6.432-0.082-6.434
				c-0.051-3.289-0.075-4.935-0.091-6.067c-0.011-0.783-0.017-1.321-0.025-1.987l-0.012-1.008c-0.012-0.879-0.328-1.621-0.94-2.207
				c-1.475-1.412-4.193-1.347-4.301-1.344c-0.139,0.003-13.917,0.271-15.61,0.213c-1.288-0.044-6.446,1.24-10.545,2.324
				c-0.99,0.262-2.01,0.402-3.033,0.415l-2.99,0.041c-0.837,0.011-1.663-0.124-2.454-0.402l-0.813-0.286
				c-1.362-0.48-2.785-0.726-4.229-0.732c-6.215-0.027-13.869-0.004-15.037,0.259c-1.582,0.356-6.943,5.487-8.433,6.937
				l-1.384,0.019l-0.659,0.009l0.009,0.659l0.056,4.117l0.056,4.117L272.187,279.22L272.187,279.22z"/>
			<path style="opacity:0.5;fill:#FFFFFF;" d="M272.836,278.552l-0.056-4.117l-0.056-4.117l1.647-0.022c0,0,6.746-6.598,8.306-6.949
				c1.203-0.27,10.632-0.261,14.89-0.243c1.368,0.006,2.723,0.24,4.014,0.695l0.813,0.286c0.861,0.303,1.769,0.452,2.682,0.439
				l2.989-0.041c1.079-0.015,2.149-0.161,3.192-0.437c2.917-0.771,9.047-2.347,10.355-2.302c1.73,0.059,15.646-0.213,15.646-0.213
				s4.528-0.136,4.569,2.9c0,0.001,0,0.003,0,0.004c0.015,1.238,0.022,1.856,0.037,2.99c0.015,1.132,0.04,2.778,0.09,6.068
				c0,0,0.038,3.218,0.082,6.433c0.012,0.898,0.025,1.797,0.037,2.625c0,0.001,0,0.003,0,0.004c0.041,3.038-4.488,3.024-4.488,3.024
				s-13.917,0.107-15.646,0.213c-1.306,0.08-7.476-1.328-10.413-2.019c-1.05-0.247-2.124-0.365-3.203-0.35l-2.989,0.041
				c-0.913,0.012-1.816,0.186-2.669,0.512l-0.805,0.308c-1.277,0.489-2.626,0.761-3.993,0.804
				c-4.255,0.135-13.681,0.401-14.891,0.163c-1.569-0.308-8.492-6.72-8.492-6.72L272.836,278.552 M272.187,279.22l0.659-0.009
				l1.384-0.019c1.529,1.408,7.028,6.392,8.619,6.704c1.177,0.231,8.827,0.045,15.038-0.151c1.443-0.046,2.859-0.33,4.208-0.847
				l0.805-0.308c0.783-0.3,1.605-0.457,2.442-0.469l2.989-0.041c1.023-0.014,2.047,0.098,3.043,0.333
				c4.128,0.972,9.32,2.114,10.605,2.036c1.691-0.104,15.471-0.211,15.603-0.212c0.115,0,2.833-0.008,4.27-1.46
				c0.596-0.602,0.892-1.353,0.88-2.237c-0.012-0.828-0.025-1.725-0.037-2.624c-0.044-3.215-0.082-6.432-0.082-6.434
				c-0.051-3.289-0.075-4.935-0.091-6.067c-0.011-0.783-0.017-1.321-0.025-1.987l-0.012-1.008c-0.012-0.879-0.328-1.621-0.94-2.207
				c-1.475-1.412-4.193-1.347-4.301-1.344c-0.139,0.003-13.917,0.271-15.61,0.213c-1.288-0.044-6.446,1.24-10.545,2.324
				c-0.99,0.262-2.01,0.402-3.033,0.415l-2.99,0.041c-0.837,0.011-1.663-0.124-2.454-0.402l-0.813-0.286
				c-1.362-0.48-2.785-0.726-4.229-0.732c-6.215-0.027-13.869-0.004-15.037,0.259c-1.582,0.356-6.943,5.487-8.433,6.937
				l-1.384,0.019l-0.659,0.009l0.009,0.659l0.056,4.117l0.056,4.117L272.187,279.22L272.187,279.22z"/>
		</g>
		<g>
			<path style="fill:#C1DEE1;" d="M341.831,264.828c0.03,2.096,0.037,2.406,0.037,2.406s0.012,1.013,0.03,2.47
				C341.873,267.952,341.857,266.878,341.831,264.828z"/>
			<path style="fill:#C1DEE1;" d="M342.006,277.61c0,0.003-0.001,0.005-0.001,0.008c-0.002-0.135-0.004-0.27-0.005-0.401
				C342.002,277.348,342.004,277.482,342.006,277.61z"/>
			<path style="opacity:0.1;fill:#263238;" d="M337.584,285.579c0,0-13.917,0.107-15.646,0.213
				c-1.306,0.08-7.476-1.328-10.414-2.019c-1.05-0.247-2.124-0.365-3.203-0.35l-2.989,0.041c-0.913,0.012-1.816,0.186-2.669,0.512
				l-0.805,0.308c-1.277,0.489-2.626,0.761-3.993,0.804c-4.255,0.135-13.681,0.4-14.891,0.163c-1.569-0.308-8.492-6.72-8.492-6.72
				l-1.647,0.022l-0.02-1.482c0,0,8.541,4.249,10.11,4.557c1.21,0.238,10.636-0.028,14.891-0.163
				c1.367-0.043,2.716-0.314,3.993-0.804l0.805-0.308c0.853-0.326,1.756-0.5,2.669-0.512l2.989-0.041
				c1.079-0.015,2.153,0.103,3.203,0.35c2.937,0.692,9.108,2.099,10.414,2.019c1.728-0.106,15.645-0.213,15.645-0.213
				s4.525,0.013,4.488-3.02c0.02,1.584,0.027,2.063,0.05,3.615C342.119,285.592,337.584,285.579,337.584,285.579z"/>
			<path style="fill:#C1DEE1;" d="M341.826,264.435c0.002,0.129,0.003,0.262,0.005,0.393c-0.002-0.131-0.004-0.266-0.006-0.401
				C341.826,264.43,341.826,264.432,341.826,264.435z"/>
			<path style="fill:#C1DEE1;" d="M341.899,269.705c0.021,1.457,0.055,3.788,0.055,3.788s0.019,1.628,0.046,3.724
				C341.97,275.168,341.921,271.458,341.899,269.705z"/>
		</g>
		<g>
			<path style="fill:#C1DEE1;" d="M341.875,268.058c0.002,0.128,0.003,0.262,0.005,0.393c-0.002-0.132-0.004-0.266-0.006-0.401
				C341.875,268.053,341.875,268.056,341.875,268.058z"/>
			<path style="fill:#C1DEE1;" d="M341.984,275.963c0.021,1.457,0.037,2.47,0.037,2.47s0.019,1.628,0.046,3.724
				C342.037,280.109,342.006,277.716,341.984,275.963z"/>
			<path style="fill:#C1DEE1;" d="M342.073,282.551c0,0.003-0.001,0.005-0.001,0.008c-0.002-0.135-0.004-0.27-0.005-0.401
				C342.069,282.289,342.071,282.423,342.073,282.551z"/>
			<path style="fill:#FFFFFF;" d="M337.306,265.154c0,0-13.915,0.272-15.645,0.213c-1.308-0.044-7.438,1.531-10.355,2.302
				c-1.043,0.276-2.114,0.423-3.192,0.437l-2.989,0.041c-0.913,0.012-1.821-0.136-2.682-0.439l-0.813-0.286
				c-1.29-0.454-2.646-0.689-4.014-0.695c-4.257-0.018-13.687-0.028-14.89,0.243c-1.56,0.351-9.964,6.148-9.964,6.148l-0.038-2.8
				l1.647-0.022c0,0,6.746-6.598,8.306-6.949c1.203-0.27,10.632-0.261,14.89-0.243c1.368,0.006,2.723,0.24,4.014,0.695l0.813,0.286
				c0.861,0.303,1.769,0.452,2.682,0.439l2.989-0.041c1.079-0.015,2.149-0.161,3.192-0.437c2.917-0.771,9.047-2.347,10.355-2.302
				c1.73,0.059,15.646-0.213,15.646-0.213s4.532-0.137,4.569,2.905c0.019,1.553,0.026,2.031,0.049,3.615
				C341.829,265.018,337.306,265.154,337.306,265.154z"/>
		</g>
		<path style="fill:#407BFF;" d="M271.175,279.334l-2.694,0.037c-1.488,0.02-2.711-1.17-2.731-2.657l-0.059-4.363
			c-0.02-1.488,1.169-2.711,2.657-2.731l2.694-0.037l-0.013-0.981l0.937-0.013l0.16,11.713l-0.937,0.013L271.175,279.334z"/>
		<path style="opacity:0.5;fill:#FFFFFF;" d="M271.175,279.334l-2.694,0.037c-1.488,0.02-2.711-1.17-2.731-2.657l-0.059-4.363
			c-0.02-1.488,1.169-2.711,2.657-2.731l2.694-0.037l-0.013-0.981l0.937-0.013l0.16,11.713l-0.937,0.013L271.175,279.334z"/>
		
			<rect x="286.166" y="263.149" transform="matrix(0.9999 -0.0136 0.0136 0.9999 -3.7102 3.9353)" style="fill:#FFFFFF;" width="1.553" height="22.186"/>
		
			<rect x="290.531" y="263.09" transform="matrix(0.9999 -0.0136 0.0136 0.9999 -3.7016 3.9868)" style="fill:#FFFFFF;" width="1.553" height="22.186"/>
		
			<rect x="294.896" y="263.03" transform="matrix(0.9999 -0.0136 0.0136 0.9999 -3.7077 4.0543)" style="fill:#FFFFFF;" width="1.553" height="22.186"/>
	</g>
	<g>
		<path style="fill:#407BFF;" d="M272.525,215.522l-36.046,7.531c-0.839,0.094-1.186,3.15-0.616,8.249
			c0.57,5.099,1.583,8.003,2.423,7.909l36.819-0.613L272.525,215.522z"/>
		<path style="opacity:0.8;fill:#FFFFFF;" d="M272.525,215.522l-36.046,7.531c-0.839,0.094-1.186,3.15-0.616,8.249
			c0.57,5.099,1.583,8.003,2.423,7.909l36.819-0.613L272.525,215.522z"/>
		<rect x="262.568" y="238.358" style="fill:#ACB9BA;" width="0" height="0.836"/>
		
			<rect x="259.84" y="218.116" transform="matrix(0.9791 -0.2035 0.2035 0.9791 -38.9439 57.5326)" style="fill:#ACB9BA;" width="0.836" height="0"/>
		<polygon style="fill:#ACB9BA;" points="262.302,238.781 262.15,238.784 262.15,238.784 		"/>
		<path style="fill:#FFFFFF;" d="M262.985,238.769c0,0-1.714-5.06-2.29-10.243c-0.501-4.506-0.029-10.491-0.028-10.495l-0.818,0.17
			c0,0-0.493,5.831,0.02,10.418c0.603,5.396,2.281,10.165,2.281,10.165l0.152-0.003L262.985,238.769z"/>
		<path style="fill:#FFFFFF;" d="M257.54,228.879c-0.434-3.903-0.138-8.914-0.05-10.188l-0.82,0.17
			c-0.092,1.255-0.4,6.146,0.044,10.11c0.515,4.608,1.813,8.757,2.181,9.87l0.839-0.015
			C259.365,237.68,258.034,233.326,257.54,228.879z"/>
		<path style="fill:#FFFFFF;" d="M254.232,229.249c-0.403-3.629-0.176-8.216-0.072-9.866l-0.821,0.171
			c-0.109,1.626-0.345,6.106,0.066,9.788c0.475,4.254,1.618,8.117,2.081,9.562l0.842-0.015
			C255.864,237.399,254.69,233.364,254.232,229.249z"/>
		<polygon style="fill:#ACB9BA;" points="259.643,238.829 259.035,238.839 259.643,238.829 		"/>
		<path style="fill:#D0DFE1;" d="M272.172,214.987c-0.238,0.027-0.438,0.301-0.6,0.779l1.283-0.267
			C272.618,215.145,272.388,214.963,272.172,214.987z"/>
		<path style="fill:#D0DFE1;" d="M274.878,239.198c0.216-0.024,0.401-0.253,0.553-0.651l-1.31,0.023
			C274.384,239.001,274.64,239.224,274.878,239.198z"/>
		<path style="fill:#407BFF;" d="M275.545,238.2c0.53-1.896,0.562-6.281-0.002-11.333c-0.565-5.052-1.564-9.322-2.5-11.054
			c-0.063-0.116-0.125-0.221-0.187-0.314l-1.283,0.267c-0.594,1.759-0.652,6.294-0.065,11.552c0.588,5.257,1.646,9.668,2.614,11.252
			l1.31-0.023C275.472,238.443,275.509,238.327,275.545,238.2z"/>
		<path style="opacity:0.6;fill:#FFFFFF;" d="M275.545,238.2c0.53-1.896,0.562-6.281-0.002-11.333
			c-0.565-5.052-1.564-9.322-2.5-11.054c-0.063-0.116-0.125-0.221-0.187-0.314l-1.283,0.267c-0.594,1.759-0.652,6.294-0.065,11.552
			c0.588,5.257,1.646,9.668,2.614,11.252l1.31-0.023C275.472,238.443,275.509,238.327,275.545,238.2z"/>
		<path style="fill:#407BFF;" d="M275.96,226.82c-0.057-0.506-1.413-12.387-3.82-12.118c-0.462,0.052-0.787,0.534-1.01,1.279
			c-0.943,3.137-0.085,10.975-0.04,11.383c0.046,0.409,0.94,8.242,2.552,11.094c0.383,0.677,0.806,1.076,1.268,1.025
			C277.318,239.214,276.017,227.326,275.96,226.82z M272.438,215.711c0.216,0.268,0.486,0.822,0.779,1.654l0,0
			c0.65,1.848,1.408,5.065,1.909,9.549c0.501,4.484,0.472,7.788,0.246,9.735c-0.102,0.876-0.243,1.476-0.394,1.785l0,0
			c-0.053,0.108-0.107,0.181-0.16,0.217c-0.067-0.026-0.145-0.098-0.23-0.21c-0.7-0.923-1.944-4.745-2.662-11.169
			c-0.718-6.425-0.348-10.427,0.13-11.482c0.058-0.128,0.118-0.215,0.177-0.255C272.294,215.557,272.362,215.617,272.438,215.711"/>
		<path style="opacity:0.4;fill:#FFFFFF;" d="M275.96,226.82c-0.057-0.506-1.413-12.387-3.82-12.118
			c-0.462,0.052-0.787,0.534-1.01,1.279c-0.943,3.137-0.085,10.975-0.04,11.383c0.046,0.409,0.94,8.242,2.552,11.094
			c0.383,0.677,0.806,1.076,1.268,1.025C277.318,239.214,276.017,227.326,275.96,226.82z M272.438,215.711
			c0.216,0.268,0.486,0.822,0.779,1.654l0,0c0.65,1.848,1.408,5.065,1.909,9.549c0.501,4.484,0.472,7.788,0.246,9.735
			c-0.102,0.876-0.243,1.476-0.394,1.785l0,0c-0.053,0.108-0.107,0.181-0.16,0.217c-0.067-0.026-0.145-0.098-0.23-0.21
			c-0.7-0.923-1.944-4.745-2.662-11.169c-0.718-6.425-0.348-10.427,0.13-11.482c0.058-0.128,0.118-0.215,0.177-0.255
			C272.294,215.557,272.362,215.617,272.438,215.711"/>
	</g>
</g>
<g id="Character_2">
	<g>
		<g>
			<polygon style="fill:#EBB376;" points="370.992,434.099 367.019,432.454 369.703,422.786 373.676,424.431 			"/>
			<g>
				<path style="fill:#263238;" d="M367.205,426.366l8.036,1.478c0,0,1.372-25.507,5.007-39.276
					c1.997-7.548,5.569-19.613,8.7-29.951c1.543-5.121,2.981-9.812,4.064-13.328c1.186-3.867,1.947-6.307,1.947-6.307l-14.299-5.739
					c0,0-9.668,37.391-12.204,50.234C365.689,397.541,367.205,426.366,367.205,426.366z"/>
			</g>
			<path style="fill:#263238;" d="M367.297,430.217h5.243c0.176,0,0.329,0.122,0.369,0.294l0.888,3.823
				c0.092,0.396-0.216,0.772-0.622,0.765c-1.687-0.029-2.919-0.128-5.044-0.128c-1.307,0-5.248,0.136-7.053,0.136
				c-1.766,0-2.059-1.785-1.321-1.947c3.306-0.725,5.793-1.724,6.844-2.678C366.791,430.309,367.039,430.217,367.297,430.217z"/>
			<path style="opacity:0.3;" d="M387.199,364.421l2.555-8.471l-0.586-4.083C389.167,351.867,387.553,357.722,387.199,364.421z"/>
			<polygon style="fill:#EBB376;" points="418.341,433.62 414.133,434.505 410.888,425.01 415.097,424.125 			"/>
			<g>
				<path style="fill:#263238;" d="M387.232,338.079c0,0,5.241,38.264,7.772,51.107c2.772,14.065,15.11,40.159,15.11,40.159
					l7.996-1.682c0,0-8.408-24.117-10.268-38.238c-2.08-15.791-5.202-51.461-5.202-51.461L387.232,338.079z"/>
			</g>
			<path style="fill:#263238;" d="M412.601,430.217h5.243c0.176,0,0.329,0.122,0.369,0.294l0.888,3.823
				c0.092,0.396-0.216,0.772-0.622,0.765c-1.687-0.029-2.919-0.128-5.044-0.128c-1.307,0-5.248,0.136-7.053,0.136
				c-1.766,0-2.059-1.785-1.321-1.947c3.306-0.725,5.793-1.724,6.844-2.678C412.095,430.309,412.344,430.217,412.601,430.217z"/>
		</g>
		<g>
			<path style="fill:#407BFF;" d="M387.202,304.541c-5.413,1.214-16.445,13.59-16.445,13.59l-19.932,2l-0.211,4.711
				c0,0,19.511,0.39,22.034,0.156s14.555-9.595,14.555-9.595V304.541z"/>
			<g>
				<path style="fill:#EBB376;" d="M351.242,324.648l-5.928-0.45l1.217-5.053c0,0,4.188-0.268,5.647,2.872L351.242,324.648z"/>
				<polygon style="fill:#EBB376;" points="341.739,321.934 343.547,318.385 346.531,319.145 345.314,324.198 				"/>
			</g>
			<path style="opacity:0.1;" d="M380.901,320.088c1.693-1.203,3.302-2.407,4.473-3.289c0.438-1.422,0.644-2.909,0.451-4.254
				C385.824,312.545,381.706,315.756,380.901,320.088z"/>
			<path style="fill:#407BFF;" d="M387.203,304.543c0,0-6.605,11.787-5.207,35.642c6.652,0.925,18.84,2.621,22.077,3.071
				c0.623-3.368,0.794-20.196,6.284-35.709c0,0-3.678-1.286-7.261-1.961c-2.802-0.528-6.874-1.186-9.385-1.305
				C390.4,304.125,387.203,304.543,387.203,304.543z"/>
			<path style="opacity:0.4;fill:#FFFFFF;" d="M381.995,340.186c4.865,0.676,12.684,1.763,17.807,2.478
				c1.879,0.257,3.398,0.47,4.267,0.592c0.386-2.059,0.599-9.184,1.969-17.962c0.026-0.187,0.058-0.38,0.09-0.573
				c0.386-2.413,0.862-4.942,1.454-7.523c0.734-3.179,1.641-6.442,2.774-9.653c0,0-3.681-1.281-7.259-1.956
				c-2.806-0.534-6.873-1.191-9.39-1.313c-3.308-0.148-6.506,0.264-6.506,0.264S380.599,316.329,381.995,340.186z"/>
			<g>
				<path style="fill:#EBB376;" d="M403.596,295.487c-1.102,2.905-2.628,8.311-0.868,10.675c-3.088,0.733-5.307,1.204-8.123,2.982
					c-0.554-1.994-1.217-4.574-1.217-4.574c3.488-0.229,3.825-2.73,3.639-5.165L403.596,295.487z"/>
				<path style="opacity:0.2;" d="M400.918,297.086l-3.887,2.317c0.046,0.577,0.059,1.156,0.005,1.707
					c1.312,0.033,3.31-1.072,3.675-2.39C400.892,298.063,400.974,297.416,400.918,297.086z"/>
			</g>
			<polygon style="fill:#407BFF;" points="405.854,306.206 404.022,303.918 398.079,305.062 395.063,308.518 394.684,304.529 
				393.568,303.191 391.13,304.246 391.13,306.743 392.866,306.178 394.37,309.662 399.114,307.711 400.17,309.055 			"/>
			<polygon style="opacity:0.7;fill:#FFFFFF;" points="405.854,306.206 404.022,303.918 398.079,305.062 395.063,308.518 
				394.684,304.529 393.568,303.191 391.13,304.246 391.13,306.743 392.866,306.178 394.37,309.662 399.114,307.711 400.17,309.055 
							"/>
			<polygon style="opacity:0.1;" points="394.37,309.662 393.794,305.492 391.13,306.743 392.866,306.178 			"/>
			<polygon style="opacity:0.1;" points="394.37,309.662 398.766,306.427 400.17,309.055 399.114,307.711 			"/>
			<g>
				<path style="fill:#263238;" d="M395.851,285.216c-1.26,1.103-1.477,3.048-1.715,4.279c-0.237,1.23-0.695,2.81,1.15,1.345
					C397.132,289.376,399.828,282.621,395.851,285.216z"/>
				<path style="fill:#EBB376;" d="M404.893,292.442c-1.16,4.049-0.718,4.834-3.256,6.464c-3.819,2.452-9.059,1.946-8.882-2.376
					c0.159-3.89,1.267-10.759,5.646-11.468C402.714,284.364,406.053,288.394,404.893,292.442z"/>
				<g>
					<path style="fill:#263238;" d="M394.301,295.138c0.112,0.729,0.059,2.021,0.059,2.021c0.116,0.026,0.232,0.052,0.35,0.072
						c1.584,0.311,2.422-0.068,2.87-0.582c0.244-0.282,0.369-0.61,0.434-0.884c0.079-0.317,0.063-0.56,0.063-0.56
						c-0.938,0.337-2.437,0.16-3.234,0.032C394.508,295.185,394.301,295.138,394.301,295.138z"/>
					<path style="fill:#FFFFFF;" d="M394.842,295.236l0.033,0.595c1.493,0.29,2.582,0.293,3.138-0.067
						c0.079-0.317,0.063-0.56,0.063-0.56C397.138,295.54,395.639,295.363,394.842,295.236z"/>
					<path style="fill:#DE5753;" d="M394.709,297.23c1.584,0.311,2.422-0.068,2.87-0.582c-0.544-0.085-1.209-0.128-1.827,0.003
						C395.279,296.749,394.948,296.979,394.709,297.23z"/>
				</g>
				<path style="fill:#263238;" d="M403.209,296.571c-2.166-0.402-1.129-2.167-0.918-2.851c0.314-1.018,0.677-1.467,0.261-3.266
					c-0.416-1.799,2.879-3.989,5.242-2.881C409.97,288.593,406.827,297.241,403.209,296.571z"/>
				<path style="fill:#EBB376;" d="M406.164,295.597c-0.62,0.897-1.531,1.432-2.33,1.588c-1.203,0.235-1.575-0.973-1.048-2.148
					c0.474-1.058,1.67-2.455,2.785-2.157C406.668,293.173,406.873,294.571,406.164,295.597z"/>
				<path style="fill:#D58745;" d="M396.19,291.078c0,0-0.921,1.434-1.745,2.047c0.391,0.545,1.243,0.508,1.243,0.508
					L396.19,291.078z"/>
				<path style="fill:#263238;" d="M408.608,285.914c-1.861-5.678-11.71-3.71-11.534-7.357c-1.592,1.098-2.772,3.785-2.178,5.44
					c1.046,2.914,4.181,2.775,4.181,2.775c3.989-0.117,4.481,1.69,4.481,1.69l3.552,0.439
					C407.11,288.901,409.254,287.888,408.608,285.914z"/>
				<path style="fill:#263238;" d="M399.124,291.353c-0.071,0.345-0.312,0.586-0.538,0.537c-0.226-0.049-0.351-0.368-0.279-0.714
					c0.071-0.345,0.312-0.586,0.537-0.537C399.07,290.688,399.195,291.008,399.124,291.353z"/>
				<path style="fill:#263238;" d="M395.222,290.508c-0.071,0.345-0.312,0.586-0.538,0.537c-0.226-0.049-0.351-0.368-0.28-0.714
					c0.071-0.345,0.312-0.586,0.538-0.537C395.168,289.843,395.293,290.163,395.222,290.508z"/>
				<path style="fill:#263238;" d="M401.245,290.453c-0.072-0.006-0.139-0.049-0.173-0.12c-0.397-0.839-1.151-0.957-1.159-0.959
					c-0.113-0.016-0.193-0.122-0.178-0.235c0.015-0.113,0.12-0.192,0.233-0.176c0.04,0.005,0.986,0.153,1.478,1.195
					c0.049,0.104,0.005,0.227-0.098,0.276C401.315,290.45,401.279,290.455,401.245,290.453z"/>
				<path style="fill:#263238;" d="M394.476,288.901c-0.039-0.003-0.078-0.017-0.112-0.044c-0.09-0.071-0.108-0.201-0.038-0.291
					c0.699-0.905,1.649-0.825,1.692-0.826c0.114,0.01,0.199,0.111,0.19,0.225c-0.009,0.114-0.108,0.198-0.221,0.189
					c-0.04-0.005-0.772-0.057-1.333,0.669C394.61,288.879,394.542,288.906,394.476,288.901z"/>
			</g>
			<path style="opacity:0.1;" d="M399.802,342.664c1.879,0.257,3.398,0.47,4.267,0.592c0.386-2.059,0.599-9.184,1.969-17.962
				c-1.519-4.042-2.986-7.111-2.986-7.111s-4.115,4.121-7.735,10.231C392.701,332.829,395.298,339.504,399.802,342.664z"/>
		</g>
		<g>
			<g>
				<path style="fill:#407BFF;" d="M343.489,299.88l5.548-9.911c0.437-0.781,1.126-1.294,1.914-1.426l1.392-0.233l-0.201-1.201
					l11.771-1.971l0.201,1.201l1.392-0.233c0.788-0.132,1.607,0.129,2.274,0.725l8.474,7.563c1.091,0.974,1.851,2.404,2.115,3.981
					l7.886,47.102c0.628,3.754-1.346,7.212-4.409,7.725l-24.489,4.1c-3.064,0.513-6.056-2.114-6.685-5.868l-7.886-47.102
					C342.523,302.755,342.775,301.156,343.489,299.88z"/>
			</g>
			<g style="opacity:0.9;">
				<path style="fill:#FFFFFF;" d="M343.489,299.88l5.548-9.911c0.437-0.781,1.126-1.294,1.914-1.426l1.392-0.233l-0.201-1.201
					l11.771-1.971l0.201,1.201l1.392-0.233c0.788-0.132,1.607,0.129,2.274,0.725l8.474,7.563c1.091,0.974,1.851,2.404,2.115,3.981
					l7.886,47.102c0.628,3.754-1.346,7.212-4.409,7.725l-24.489,4.1c-3.064,0.513-6.056-2.114-6.685-5.868l-7.886-47.102
					C342.523,302.755,342.775,301.156,343.489,299.88z"/>
			</g>
			<path style="opacity:0.1;fill:#263238;" d="M383.609,345.921l-7.886-47.102c-0.264-1.578-1.024-3.008-2.115-3.982l-8.474-7.563
				c-0.667-0.596-1.487-0.857-2.274-0.725l-1.392,0.233l-0.201-1.201l2.646-0.443l0.201,1.201l1.392-0.233
				c0.788-0.132,1.607,0.129,2.274,0.725l8.474,7.563c1.091,0.974,1.851,2.404,2.115,3.981l7.886,47.102
				c0.628,3.754-1.346,7.212-4.409,7.725l-2.647,0.443C382.264,353.133,384.238,349.675,383.609,345.921z"/>
			
				<rect x="342.682" y="301.281" transform="matrix(-0.9863 0.1651 -0.1651 -0.9863 766.3949 540.7042)" style="fill:#407BFF;" width="36.078" height="1.858"/>
			
				<rect x="349.881" y="344.278" transform="matrix(-0.9863 0.1651 -0.1651 -0.9863 787.7932 624.9206)" style="fill:#407BFF;" width="36.078" height="1.858"/>
			
				<rect x="342.682" y="301.281" transform="matrix(-0.9863 0.1651 -0.1651 -0.9863 766.3949 540.7042)" style="opacity:0.8;fill:#FFFFFF;" width="36.078" height="1.858"/>
			
				<rect x="349.881" y="344.278" transform="matrix(-0.9863 0.1651 -0.1651 -0.9863 787.7932 624.9206)" style="opacity:0.8;fill:#FFFFFF;" width="36.078" height="1.858"/>
			
				<rect x="342.682" y="301.281" transform="matrix(-0.9863 0.1651 -0.1651 -0.9863 766.3949 540.7042)" style="opacity:0.1;fill:#263238;" width="36.078" height="1.858"/>
			
				<rect x="349.881" y="344.278" transform="matrix(-0.9863 0.1651 -0.1651 -0.9863 787.7932 624.9206)" style="opacity:0.1;fill:#263238;" width="36.078" height="1.858"/>
			
				<rect x="350.932" y="283.462" transform="matrix(-0.9863 0.1651 -0.1651 -0.9863 757.7319 506.609)" style="fill:#407BFF;" width="13.75" height="2.68"/>
			<path style="fill:#407BFF;" d="M355.249,277.506l2.599-0.435c2.244-0.376,4.368,1.139,4.744,3.383l0.356,2.128l-10.726,1.796
				l-0.356-2.128C351.49,280.006,353.005,277.882,355.249,277.506z"/>
			
				<rect x="350.932" y="283.462" transform="matrix(-0.9863 0.1651 -0.1651 -0.9863 757.7319 506.609)" style="opacity:0.5;fill:#FFFFFF;" width="13.75" height="2.68"/>
			
				<rect x="350.932" y="283.462" transform="matrix(-0.9863 0.1651 -0.1651 -0.9863 757.7319 506.609)" style="opacity:0.1;fill:#263238;" width="13.75" height="2.68"/>
			<path style="opacity:0.5;fill:#FFFFFF;" d="M355.249,277.506l2.599-0.435c2.244-0.376,4.368,1.139,4.744,3.383l0.356,2.128
				l-10.726,1.796l-0.356-2.128C351.49,280.006,353.005,277.882,355.249,277.506z"/>
			<path style="fill:#407BFF;" d="M357.358,357.303l24.489-4.1c3.063-0.513,5.038-3.972,4.409-7.725l-7.886-47.102
				c-0.264-1.578-1.024-3.008-2.115-3.981l-8.474-7.563c-0.667-0.595-1.487-0.857-2.274-0.725l-1.392,0.233l-0.201-1.201
				l-11.771,1.971l0.201,1.201l-1.393,0.233c-0.787,0.132-1.477,0.646-1.914,1.426l-5.548,9.911
				c-0.714,1.276-0.967,2.876-0.703,4.453l7.886,47.102C351.302,355.189,354.294,357.816,357.358,357.303z M351.489,351.298
				l-7.886-47.102c-0.231-1.382-0.009-2.808,0.609-3.913l5.548-9.911c0.278-0.496,0.688-0.842,1.155-0.975
				c0.057-0.016,0.115-0.03,0.174-0.04l2.208-0.369l-0.201-1.201l10.139-1.698l0.201,1.2l2.208-0.37
				c0.541-0.091,1.105,0.096,1.587,0.526l8.473,7.564c0.945,0.842,1.619,2.119,1.85,3.501l7.887,47.103
				c0.514,3.07-0.942,6.004-3.315,6.679h0c-0.135,0.039-0.274,0.07-0.415,0.094l-24.488,4.1
				C354.613,356.924,352.041,354.597,351.489,351.298z"/>
			<path style="opacity:0.5;fill:#FFFFFF;" d="M357.358,357.303l24.489-4.1c3.063-0.513,5.038-3.972,4.409-7.725l-7.886-47.102
				c-0.264-1.578-1.024-3.008-2.115-3.981l-8.474-7.563c-0.667-0.595-1.487-0.857-2.274-0.725l-1.392,0.233l-0.201-1.201
				l-11.771,1.971l0.201,1.201l-1.393,0.233c-0.787,0.132-1.477,0.646-1.914,1.426l-5.548,9.911
				c-0.714,1.276-0.967,2.876-0.703,4.453l7.886,47.102C351.302,355.189,354.294,357.816,357.358,357.303z M351.489,351.298
				l-7.886-47.102c-0.231-1.382-0.009-2.808,0.609-3.913l5.548-9.911c0.278-0.496,0.688-0.842,1.155-0.975
				c0.057-0.016,0.115-0.03,0.174-0.04l2.208-0.369l-0.201-1.201l10.139-1.698l0.201,1.2l2.208-0.37
				c0.541-0.091,1.105,0.096,1.587,0.526l8.473,7.564c0.945,0.842,1.619,2.119,1.85,3.501l7.887,47.103
				c0.514,3.07-0.942,6.004-3.315,6.679h0c-0.135,0.039-0.274,0.07-0.415,0.094l-24.488,4.1
				C354.613,356.924,352.041,354.597,351.489,351.298z"/>
		</g>
		<g>
			<g>
				<path style="fill:#EBB376;" d="M380.381,335.82l-5.301,2.691l3.063,4.199c0,0,3.97-1.361,4.112-4.819L380.381,335.82z"/>
				<polygon style="fill:#EBB376;" points="372.647,341.974 375.68,344.557 378.143,342.71 375.08,338.511 				"/>
			</g>
			<path style="fill:#407BFF;" d="M410.357,307.546c5.803,3.602-3.878,22.421-5.7,25.233c-1.821,2.813-22.403,7.409-22.403,7.409
				l-2.544-4.369l19.116-8.492l5.83-14.614C406.92,308.044,410.357,307.546,410.357,307.546z"/>
		</g>
	</g>
</g>
<g id="Character_1">
	<g>
		<g>
			<path style="fill:#407BFF;" d="M76.614,273.662c4.463,0.001,12.62,16.218,12.62,16.218l-2.956,4.922l-9.453-11.099
				L76.614,273.662z"/>
			<path style="opacity:0.1;" d="M77.024,283.939l7.904,9.274c-0.037-0.175-0.083-0.366-0.138-0.568
				c-2.181-7.853-7.506-11.124-7.506-11.124C77.072,282.307,76.991,283.122,77.024,283.939z"/>
		</g>
		<polygon style="fill:#E4897B;" points="89.259,412.117 84.891,413.354 83.851,406.556 83.291,402.92 87.66,401.683 
			88.404,406.556 		"/>
		<polygon style="fill:#E4897B;" points="64.145,412.474 59.642,413.071 59.599,406.556 59.568,402.507 64.078,401.917 
			64.108,406.556 		"/>
		<polygon style="opacity:0.2;" points="64.078,401.917 64.108,406.556 59.599,406.556 59.568,402.507 		"/>
		<polygon style="opacity:0.2;" points="88.404,406.556 83.851,406.556 83.291,402.92 87.66,401.683 		"/>
		<g>
			<path style="fill:#263238;" d="M89.206,411.436l-4.961-0.134c-0.186-0.005-0.351,0.119-0.398,0.298l-1.042,3.995
				c-0.108,0.414,0.196,0.818,0.625,0.822c1.79,0.018,4.38-0.017,6.629,0.044c2.63,0.071,4.302-0.058,7.386,0.025
				c1.865,0.05,2.45-1.812,1.675-2.003c-3.526-0.87-5.83-0.698-8.833-2.665C89.961,411.604,89.598,411.446,89.206,411.436z"/>
			<path style="fill:#407BFF;" d="M89.562,411.984c-0.005-0.045,0.02-0.089,0.061-0.109c0.21-0.1,2.067-0.978,2.61-0.652
				c0.104,0.062,0.162,0.162,0.167,0.29c0.008,0.214-0.066,0.387-0.22,0.516c-0.514,0.425-1.809,0.212-2.536,0.047
				c-0.005-0.001-0.009-0.003-0.014-0.004C89.593,412.058,89.566,412.025,89.562,411.984z M90.009,411.934
				c0.997,0.193,1.746,0.17,2.034-0.069c0.101-0.084,0.148-0.195,0.142-0.341c-0.002-0.056-0.021-0.091-0.064-0.116
				c-0.012-0.007-0.024-0.013-0.038-0.018C91.745,411.263,90.742,411.612,90.009,411.934z"/>
			<path style="fill:#407BFF;" d="M89.603,412.058c-0.03-0.023-0.046-0.061-0.041-0.098c0.007-0.052,0.173-1.266,0.768-1.723
				c0.182-0.139,0.384-0.196,0.603-0.168c0.294,0.039,0.375,0.189,0.39,0.31c0.065,0.513-1.057,1.462-1.614,1.692
				c-0.026,0.011-0.054,0.011-0.079,0.001C89.621,412.069,89.612,412.064,89.603,412.058z M90.904,410.281
				c-0.162-0.021-0.307,0.02-0.443,0.124c-0.39,0.3-0.578,1.024-0.65,1.378c0.572-0.32,1.337-1.068,1.299-1.376
				c-0.003-0.019-0.009-0.068-0.097-0.101C90.986,410.296,90.95,410.287,90.904,410.281z"/>
		</g>
		<g>
			<path style="fill:#263238;" d="M63.965,411.436l-4.961-0.134c-0.186-0.005-0.351,0.119-0.398,0.298l-1.042,3.995
				c-0.108,0.414,0.196,0.818,0.625,0.822c1.791,0.018,4.38-0.017,6.629,0.044c2.63,0.071,4.302-0.058,7.386,0.025
				c1.865,0.05,2.45-1.812,1.676-2.003c-3.526-0.87-5.83-0.698-8.833-2.665C64.72,411.604,64.357,411.446,63.965,411.436z"/>
			<path style="fill:#407BFF;" d="M64.322,411.984c-0.005-0.045,0.02-0.089,0.061-0.109c0.21-0.1,2.068-0.978,2.61-0.652
				c0.104,0.062,0.162,0.162,0.167,0.29c0.008,0.214-0.066,0.387-0.22,0.516c-0.514,0.425-1.809,0.212-2.536,0.047
				c-0.005-0.001-0.009-0.003-0.014-0.004C64.353,412.058,64.326,412.025,64.322,411.984z M64.769,411.934
				c0.997,0.193,1.746,0.17,2.034-0.069c0.102-0.084,0.148-0.195,0.142-0.341c-0.002-0.056-0.021-0.091-0.064-0.116
				c-0.012-0.007-0.025-0.013-0.039-0.018C66.505,411.263,65.501,411.612,64.769,411.934z"/>
			<path style="fill:#407BFF;" d="M64.363,412.058c-0.03-0.023-0.046-0.061-0.041-0.098c0.007-0.052,0.173-1.266,0.768-1.723
				c0.182-0.139,0.384-0.196,0.603-0.168c0.295,0.039,0.374,0.189,0.39,0.31c0.065,0.513-1.057,1.462-1.614,1.692
				c-0.026,0.011-0.054,0.011-0.079,0.001C64.381,412.069,64.371,412.064,64.363,412.058z M65.664,410.281
				c-0.162-0.021-0.307,0.02-0.443,0.124c-0.39,0.3-0.579,1.024-0.65,1.378c0.572-0.32,1.337-1.068,1.299-1.376
				c-0.002-0.019-0.009-0.068-0.097-0.101C65.745,410.296,65.71,410.287,65.664,410.281z"/>
		</g>
		<path style="fill:#263238;" d="M54.855,313.456c-2.386,10.346,1.708,91.71,1.708,91.71h7.913l3.383-67.808l12.462,67.808
			l8.457-0.616c-5.528-52.527-10.416-83.887-10.416-83.887l-0.678-7.207H54.855z"/>
		<g>
			<path style="fill:#407BFF;" d="M50.027,275.177c1.32,4.901,3.281,9.804,3.811,14.501c0.385,3.437,0.605,6.717,0.732,9.691
				c0.3,6.972,0.094,12.287,0.284,14.088c3.471-0.241,15.697,0.5,22.83,0c3.472-25.23-1.07-39.794-1.07-39.794l-6.281-0.783
				c0,0-0.816-0.042-1.23-0.05c-2.68-0.056-7.054,0.346-10.07,0.702c-0.634,0.075-1.275,0.168-1.899,0.269
				C53.96,274.316,50.027,275.177,50.027,275.177z"/>
		</g>
		<g style="opacity:0.4;">
			<path style="fill:#FFFFFF;" d="M50.027,275.177c1.32,4.901,3.281,9.804,3.811,14.501c0.385,3.437,0.605,6.717,0.732,9.691
				c0.3,6.972,0.094,12.287,0.284,14.088c3.471-0.241,15.697,0.5,22.83,0c3.472-25.23-1.07-39.794-1.07-39.794l-6.281-0.783
				c0,0-0.816-0.042-1.23-0.05c-2.68-0.056-7.054,0.346-10.07,0.702c-0.634,0.075-1.275,0.168-1.899,0.269
				C53.96,274.316,50.027,275.177,50.027,275.177z"/>
		</g>
		<g>
			<path style="fill:#E4897B;" d="M59.822,273.252c0,0,6.155,3.059,7.74,2.708c1.111-0.246,2.342-2.408,2.342-2.408
				c-0.9-0.245-1.564-0.596-2.032-1.026c-1.419-1.28-1.166-3.251-0.621-5.119l-5.98-5.466c0.204,1.302,0.387,3.043,0.382,4.792
				c0.001,0.006,0.001,0.006,0.001,0.006C61.657,269.353,61.23,271.995,59.822,273.252z"/>
			<path style="opacity:0.2;" d="M61.654,266.732c0.001,0.006,0.001,0.006,0.001,0.006c1.072,2.711,2.981,5.699,6.217,5.787
				c-1.419-1.28-1.166-3.251-0.621-5.119l-5.98-5.466C61.476,263.243,61.659,264.984,61.654,266.732z"/>
		</g>
		<g>
			<path style="fill:#263238;" d="M73.942,256.609c0.553,1.702,0.291,5.213-2.105,4.094
				C69.441,259.586,72.991,253.683,73.942,256.609z"/>
			<path style="fill:#E4897B;" d="M61.661,259.03c-0.222,4.391-0.576,6.952,1.382,9.417c2.944,3.709,8.569,2.264,10.102-1.985
				c1.38-3.824,1.511-10.362-2.575-12.537C66.543,251.783,61.883,254.639,61.661,259.03z"/>
			<path style="fill:#263238;" d="M69.597,267.19c-0.545,0-1.229-0.201-1.831-0.987c-0.076-0.099-0.057-0.24,0.042-0.315
				c0.098-0.075,0.239-0.057,0.315,0.042c0.989,1.293,2.195,0.671,2.246,0.644c0.108-0.058,0.246-0.018,0.304,0.092
				c0.059,0.109,0.019,0.245-0.09,0.305C70.575,266.974,70.162,267.19,69.597,267.19z"/>
			<path style="fill:#263238;" d="M64.795,256.265l-0.045-4.903c0,0-5.301,0.011-5.044,2.68c-2.877,1.46-1.707,7.858,2.195,10.027
				c2.112-1.722,2.068-7.735,2.068-7.735C63.959,255.839,64.453,256.526,64.795,256.265z"/>
			<path style="fill:#E4897B;" d="M59.569,262.476c0.223,1.162,0.964,2.108,1.781,2.635c1.229,0.793,2.288-0.205,2.319-1.593
				c0.028-1.249-0.578-3.167-1.99-3.4C60.287,259.887,59.315,261.147,59.569,262.476z"/>
			<path style="fill:#263238;" d="M68.159,260.929c-0.04,0.355,0.116,0.663,0.349,0.686c0.233,0.024,0.454-0.245,0.494-0.6
				c0.04-0.355-0.117-0.663-0.349-0.686C68.42,260.305,68.199,260.574,68.159,260.929z"/>
			<path style="fill:#263238;" d="M72.185,261.341c-0.04,0.355,0.116,0.663,0.349,0.687c0.233,0.024,0.454-0.245,0.494-0.6
				c0.04-0.355-0.116-0.663-0.349-0.686C72.446,260.717,72.225,260.986,72.185,261.341z"/>
			<path style="fill:#DE5753;" d="M70.885,261.387c0,0,0.608,2.058,1.4,3.108c-0.684,0.491-1.725,0.113-1.725,0.113L70.885,261.387z
				"/>
			<path style="fill:#263238;" d="M67.063,259.505c0.071,0.017,0.15-0.003,0.204-0.061c0.646-0.684,1.411-0.561,1.418-0.56
				c0.114,0.02,0.224-0.056,0.245-0.171c0.021-0.114-0.055-0.223-0.169-0.243c-0.04-0.007-0.998-0.162-1.8,0.687
				c-0.08,0.085-0.077,0.217,0.008,0.296C66.997,259.48,67.029,259.497,67.063,259.505z"/>
			<path style="fill:#263238;" d="M74.075,260.138c0.039,0.009,0.081,0.008,0.121-0.007c0.11-0.04,0.167-0.16,0.128-0.269
				c-0.39-1.092-1.33-1.313-1.371-1.328c-0.113-0.026-0.227,0.044-0.254,0.157c-0.027,0.112,0.042,0.224,0.153,0.251
				c0.04,0.008,0.762,0.187,1.075,1.064C73.952,260.074,74.009,260.122,74.075,260.138z"/>
			<path style="fill:#263238;" d="M63.969,256.334c1.633,0.507,3.343,0.849,5.039,1.045c0.976,0.113,1.961,0.161,2.943,0.105
				c1.045-0.059,2.18-0.129,3.016-0.849c1.088-0.937,1.099-2.265,0.956-3.573c-0.098-0.897-0.493-1.564-1.049-2.257
				c0.29,0.404-0.044,1.844-0.608,1.913c0.072-0.459,0.182-0.904,0.025-1.364c-0.112-0.327-0.347-0.58-0.517-0.869
				c0.169,0.303,0.103,0.98-0.126,1.235c-0.146,0.162-0.371,0.306-0.53,0.46c0.191-0.321,0.125-0.706,0.029-1.043
				c-0.244,0.291-0.273,0.633-0.702,0.81c-0.533,0.22-0.899,0.025-1.382-0.153c-0.548-0.201-1.15-0.303-1.721-0.412
				c-0.998-0.191-2.082-0.315-3.096-0.377c-1.915-0.117-7.509,0.375-6.993,3.445c0.062,0.367,0.041,0.344,0.421,0.441
				c0.146,0.037,0.255-0.046,0.399-0.032c0.618,0.059,1.04,0.46,1.582,0.689C62.395,255.861,63.197,256.102,63.969,256.334z"/>
		</g>
		<g>
			<g>
				<path style="fill:#407BFF;" d="M67.564,275.961c0,0-1.04,1.44-2.276,2.88c-2.014-0.807-6.758-3.02-6.746-5.45
					c0.205-0.725,2.001-1.329,2.001-1.329S62.77,274.482,67.564,275.961z"/>
			</g>
			<g>
				<path style="fill:#407BFF;" d="M67.564,275.961c0,0,1.61,1.038,2.719,2.44c1.34-1.043,0.23-5.465-0.335-5.916
					c-1.183-0.578-2.5-0.426-2.5-0.426S68.636,274.012,67.564,275.961z"/>
			</g>
			<g style="opacity:0.7;">
				<g>
					<path style="fill:#FFFFFF;" d="M67.564,275.961c0,0-1.04,1.44-2.276,2.88c-2.014-0.807-6.758-3.02-6.746-5.45
						c0.205-0.725,2.001-1.329,2.001-1.329S62.77,274.482,67.564,275.961z"/>
				</g>
				<g>
					<path style="fill:#FFFFFF;" d="M67.564,275.961c0,0,1.61,1.038,2.719,2.44c1.34-1.043,0.23-5.465-0.335-5.916
						c-1.183-0.578-2.5-0.426-2.5-0.426S68.636,274.012,67.564,275.961z"/>
				</g>
			</g>
		</g>
		<path style="opacity:0.2;" d="M52.879,285.416c0,0,0.377,2.699-0.39,5.004c-0.255-1.694-0.513-3.375-0.761-4.976
			C52.067,285.354,52.455,285.341,52.879,285.416z"/>
		<path style="opacity:0.2;" d="M70.513,351.788l-2.652-14.427l0.511-7.635C68.372,329.726,72.008,342.965,70.513,351.788z"/>
		<path style="opacity:0.1;" d="M53.695,299.518c0.293,0.051,0.59,0.084,0.884,0.11c1.619,0.138,3.277-0.021,4.71-0.29
			c1.277-0.236,2.378-0.561,3.125-0.837c10.865-4.064,10.72-6.435,10.72-6.435s-7.131,1.005-10.889-0.306
			c-0.8-0.278-1.605-0.939-2.377-1.802c-2.876-3.194-5.312-9.202-5.312-9.202s-0.707,0.947-1.638,2.412
			c-0.384,0.596-0.806,1.282-1.229,2.024c0.012,0.086,0.028,0.164,0.04,0.249c0.248,1.601,0.506,3.282,0.761,4.976l-0.005,0.007
			C52.954,293.588,53.392,296.784,53.695,299.518z"/>
		<path style="fill:#E4897B;" d="M73.032,288.243l0.473,2.873c1.534,2.647,4.597,0.086,4.597,0.086l1.97-0.637
			c0.668-0.216,1.065-0.962,0.94-1.763l-0.315-2.011c-0.144-0.917-0.915-1.572-1.71-1.454l-1.787,0.267
			c-0.52,0.078-1.013,0.283-1.434,0.597L73.032,288.243z"/>
		<g>
			<path style="fill:#407BFF;" d="M50.027,275.177c-6.323,3.287,3.564,22.764,6.17,22.936c4.936,0.326,18.347-5.153,18.347-5.153
				l-1.113-5.45c0,0-13.15,4.133-14.386,3.864c-1.603-0.349-3.948-7.992-5.037-11.606C52.919,276.156,50.027,275.177,50.027,275.177
				z"/>
		</g>
		<path style="fill:#263238;" d="M79.626,301.916l0.028-0.006l13.053-1.51c0.493-0.052,0.952-0.514,1.028-1.019l2.975-19.955
			c0.037-0.278-0.043-0.517-0.219-0.663c-0.127-0.119-0.316-0.182-0.537-0.158l-13.074,1.514c-0.492,0.059-0.952,0.514-1.027,1.026
			l-2.975,19.955C78.801,301.607,79.142,301.974,79.626,301.916z"/>
		<path style="opacity:0.6;fill:#FFFFFF;" d="M79.626,301.916l0.028-0.006l13.053-1.51c0.493-0.052,0.952-0.514,1.028-1.019
			l2.975-19.955c0.037-0.278-0.043-0.517-0.219-0.663c-0.127-0.119-0.316-0.182-0.537-0.158l-13.074,1.514
			c-0.492,0.059-0.952,0.514-1.027,1.026l-2.975,19.955C78.801,301.607,79.142,301.974,79.626,301.916z"/>
		<path style="opacity:0.4;" d="M79.654,301.91l13.053-1.51c0.493-0.052,0.952-0.514,1.028-1.019l2.975-19.955
			c0.037-0.278-0.043-0.517-0.219-0.663l-13.046,1.508c-0.492,0.059-0.951,0.514-1.026,1.026l-2.975,19.955
			C79.4,301.532,79.485,301.763,79.654,301.91z"/>
		<g>
			<polygon style="fill:#263238;" points="93.599,279.988 93.967,277.753 85.712,278.699 85.449,280.893 			"/>
			<polygon style="opacity:0.1;fill:#FFFFFF;" points="93.599,279.988 93.967,277.753 85.712,278.699 85.449,280.893 			"/>
		</g>
		<path style="fill:#E4897B;" d="M96.749,288.153l-0.637,2.797c-1.516,2.899-3.894,1.426-3.894,1.426l-1.613-0.012
			c-0.547-0.004-0.822-0.578-0.649-1.356l0.433-1.953c0.197-0.89,0.904-1.723,1.566-1.846l1.489-0.276
			c0.433-0.08,0.833-0.035,1.163,0.133L96.749,288.153z"/>
	</g>
</g>
</svg>
